<svg width="451" height="394" viewBox="0 0 451 394" fill="none" xmlns="http://www.w3.org/2000/svg">
<path opacity="0.02" fill-rule="evenodd" clip-rule="evenodd" d="M288.496 288.88C269.236 297.306 255.995 316.564 255.995 339.033C255.995 369.124 280.471 394 310.965 394C341.46 394 366.337 368.723 365.535 338.23C366.738 297.707 388.004 266.813 420.104 246.752V246.35C438.561 237.523 451 218.265 451 197C451 176.538 440.166 158.081 422.11 148.452C390.011 129.193 367.942 94.6884 365.936 54.9674C365.936 24.8758 341.059 0 310.965 0C280.471 0 255.995 24.8758 255.995 54.9674C255.995 75.4297 267.23 93.4847 284.082 102.713C357.109 142.835 361.923 246.35 288.496 288.88ZM190.19 158.884C190.19 153.668 192.197 149.656 195.407 146.045C198.215 143.637 201.024 142.033 204.635 141.23C206.24 140.829 208.246 140.428 210.253 140.428C215.87 140.428 223.494 143.236 227.506 146.847L261.211 180.951C265.625 184.963 267.631 190.58 267.631 195.796C267.631 201.413 265.625 207.031 261.211 211.043L225.099 247.153C222.29 249.961 218.278 251.967 214.265 253.171C211.456 253.572 208.648 253.572 205.839 253.171C200.623 252.369 196.209 249.56 192.999 244.745C191.394 241.937 190.19 238.727 190.19 235.116L190.19 158.884ZM140.035 0C109.941 0 85.4653 24.8758 85.4653 54.9674C85.4653 85.4603 109.941 109.935 140.035 109.935C170.529 109.935 195.005 85.4603 195.005 54.9674C195.005 24.8758 170.529 0 140.035 0ZM140.035 284.065C109.941 284.065 85.4653 308.54 85.4653 339.033C85.4653 369.124 109.941 394 140.035 394C170.529 394 195.005 369.124 195.005 339.033C195.005 308.54 170.529 284.065 140.035 284.065ZM54.9706 142.033C24.476 142.033 0 166.908 0 197C0 227.493 24.476 251.967 54.9706 251.967C85.0641 251.967 109.54 227.493 109.54 197C109.54 166.908 85.0641 142.033 54.9706 142.033Z" fill="white"/>
</svg>
