<svg width="85" height="33" viewBox="0 0 85 33" fill="none" xmlns="http://www.w3.org/2000/svg">
<path d="M47.0047 26.5676L47.5147 24.5156H48.0015L47.085 27.7317C47.0159 27.973 46.9184 28.1562 46.7924 28.2812C46.6664 28.4079 46.5232 28.4713 46.3627 28.4713C46.3005 28.4713 46.2211 28.4574 46.1245 28.4296V28.039L46.2254 28.0494C46.3583 28.0494 46.4619 28.0173 46.5361 27.9531C46.6121 27.8906 46.6733 27.7812 46.7199 27.6249L46.8105 27.3098L45.9873 24.5156H46.4869L47.0047 26.5676Z" fill="white"/>
<path d="M50.4195 27.3333H49.9639V24.914H48.9516V27.3333H48.4908V24.5156H50.4195V27.3333Z" fill="white"/>
<path d="M53.1767 26.0598C53.1767 26.506 53.0965 26.8385 52.936 27.0572C52.7772 27.276 52.5519 27.3854 52.2603 27.3854C51.9789 27.3854 51.7623 27.2786 51.6104 27.065V28.4166H51.1548V24.5156H51.569L51.5923 24.8281C51.7459 24.585 51.966 24.4635 52.2525 24.4635C52.5597 24.4635 52.7893 24.5711 52.9412 24.7864C53.093 25.0017 53.1716 25.3237 53.1767 25.7525V26.0598ZM52.7211 25.7968C52.7211 25.4808 52.6728 25.2482 52.5761 25.0989C52.4795 24.9479 52.3241 24.8723 52.1101 24.8723C51.8909 24.8723 51.7243 24.9826 51.6104 25.2031V26.6692C51.7226 26.8845 51.8909 26.9921 52.1153 26.9921C52.3224 26.9921 52.4743 26.9175 52.5709 26.7682C52.6693 26.6171 52.7194 26.3871 52.7211 26.0781V25.7968Z" fill="white"/>
<path d="M55.2091 27.3333C55.1814 27.2725 55.1616 27.1701 55.1495 27.026C54.9873 27.2656 54.7802 27.3854 54.5282 27.3854C54.2745 27.3854 54.076 27.3142 53.9327 27.1718C53.7912 27.0277 53.7204 26.8255 53.7204 26.565C53.7204 26.2786 53.8171 26.0511 54.0104 25.8827C54.2037 25.7143 54.4686 25.6284 54.8052 25.6249H55.1417V25.3255C55.1417 25.1571 55.1046 25.0373 55.0304 24.9661C54.9562 24.8949 54.8432 24.8593 54.6913 24.8593C54.5532 24.8593 54.441 24.901 54.3547 24.9843C54.2684 25.0659 54.2253 25.1701 54.2253 25.2968H53.767C53.767 25.1527 53.8093 25.0156 53.8939 24.8854C53.9785 24.7534 54.0924 24.6501 54.2356 24.5755C54.3789 24.5008 54.5385 24.4635 54.7146 24.4635C55.0011 24.4635 55.2186 24.5355 55.367 24.6796C55.5171 24.822 55.5939 25.0303 55.5974 25.3046V26.7265C55.5991 26.9435 55.6285 27.1319 55.6854 27.2916V27.3333H55.2091ZM54.5981 26.9661C54.7103 26.9661 54.8173 26.9348 54.9191 26.8723C55.0209 26.8098 55.0951 26.7317 55.1417 26.638V25.9661H54.8829C54.6654 25.9696 54.4936 26.019 54.3677 26.1145C54.2417 26.2083 54.1787 26.3402 54.1787 26.5104C54.1787 26.6701 54.2106 26.7864 54.2745 26.8593C54.3383 26.9305 54.4462 26.9661 54.5981 26.9661Z" fill="white"/>
<path d="M56.3508 27.3333V24.5156H57.2906C57.6116 24.5156 57.8567 24.5815 58.0258 24.7135C58.195 24.8454 58.2795 25.0373 58.2795 25.289C58.2795 25.4192 58.2459 25.5364 58.1786 25.6406C58.1113 25.7447 58.0129 25.8246 57.8834 25.8801C58.0267 25.9183 58.1415 25.9956 58.2278 26.1119C58.3158 26.2282 58.3598 26.3689 58.3598 26.5338C58.3598 26.7942 58.2787 26.993 58.1164 27.1301C57.9559 27.2656 57.7281 27.3333 57.433 27.3333H56.3508ZM56.8064 26.0963V26.9452H57.4381C57.7471 26.9452 57.9016 26.8029 57.9016 26.5182C57.9016 26.2369 57.7454 26.0963 57.433 26.0963H56.8064ZM56.8064 25.7109H57.2854C57.6427 25.7109 57.8213 25.5789 57.8213 25.315C57.8213 25.0494 57.653 24.9131 57.3165 24.9062H56.8064V25.7109Z" fill="white"/>
<path d="M60.9565 24.5156V27.3333H60.4983V24.914H59.7604L59.7164 25.8697C59.6922 26.3992 59.6215 26.7751 59.5041 26.9973C59.3867 27.2178 59.1986 27.3298 58.9397 27.3333H58.787V26.9088L58.9035 26.8984C59.0312 26.881 59.1209 26.7951 59.1727 26.6406C59.2262 26.4843 59.2616 26.1779 59.2789 25.7213L59.3229 24.5156H60.9565Z" fill="white"/>
<path d="M63.5144 24.5156V27.3333H63.0561V26.2369H62.515L61.9507 27.3333H61.4588L62.0646 26.1562C61.9127 26.0902 61.797 25.9886 61.7176 25.8515C61.6383 25.7143 61.5986 25.5555 61.5986 25.3749C61.5986 25.1163 61.6814 24.9088 61.8471 24.7525C62.0128 24.5946 62.2354 24.5156 62.515 24.5156H63.5144ZM62.0568 25.3801C62.0568 25.519 62.0939 25.631 62.1681 25.7161C62.2423 25.7994 62.3424 25.8411 62.4684 25.8411H63.0561V24.9062H62.5099C62.3735 24.9062 62.2639 24.9505 62.1811 25.039C62.0982 25.1258 62.0568 25.2395 62.0568 25.3801Z" fill="white"/>
<path d="M64.7389 25.7109H65.2619C65.2947 25.3289 65.4077 25.026 65.6011 24.802C65.7961 24.5763 66.0394 24.4635 66.3311 24.4635C66.6418 24.4635 66.8955 24.5867 67.0923 24.8333C67.289 25.0781 67.396 25.3992 67.4133 25.7968L67.4159 25.9557C67.4159 26.3775 67.3167 26.7213 67.1182 26.9869C66.9197 27.2525 66.6591 27.3854 66.3363 27.3854C66.0291 27.3854 65.7788 27.2673 65.5855 27.0312C65.3922 26.7933 65.2835 26.4852 65.2593 26.1067H64.7389V27.3333H64.2833V24.5156H64.7389V25.7109ZM65.7124 25.9557C65.7124 26.2699 65.7685 26.5216 65.8807 26.7109C65.9928 26.8984 66.1447 26.9921 66.3363 26.9921C66.5244 26.9921 66.6746 26.8984 66.7868 26.7109C66.899 26.5234 66.9551 26.2525 66.9551 25.8984C66.9551 25.5807 66.8981 25.3281 66.7842 25.1406C66.6703 24.9531 66.5193 24.8593 66.3311 24.8593C66.1447 24.8593 65.9946 24.9531 65.8807 25.1406C65.7685 25.3281 65.7124 25.5998 65.7124 25.9557Z" fill="white"/>
<path d="M68.4592 24.5156V26.94H69.2489V24.5156H69.7045V26.94H70.4967V24.5156H70.955V26.94H71.3045L71.2579 28.1692H70.8514V27.3333H67.9984V24.5156H68.4592Z" fill="white"/>
<path d="M73.2591 27.3333C73.2315 27.2725 73.2117 27.1701 73.1996 27.026C73.0373 27.2656 72.8302 27.3854 72.5782 27.3854C72.3245 27.3854 72.126 27.3142 71.9828 27.1718C71.8413 27.0277 71.7705 26.8255 71.7705 26.565C71.7705 26.2786 71.8671 26.0511 72.0604 25.8827C72.2538 25.7143 72.5187 25.6284 72.8553 25.6249H73.1918V25.3255C73.1918 25.1571 73.1547 25.0373 73.0805 24.9661C73.0063 24.8949 72.8932 24.8593 72.7413 24.8593C72.6033 24.8593 72.4911 24.901 72.4048 24.9843C72.3185 25.0659 72.2753 25.1701 72.2753 25.2968H71.8171C71.8171 25.1527 71.8594 25.0156 71.9439 24.8854C72.0285 24.7534 72.1424 24.6501 72.2857 24.5755C72.4289 24.5008 72.5886 24.4635 72.7646 24.4635C73.0511 24.4635 73.2686 24.5355 73.4171 24.6796C73.5672 24.822 73.644 25.0303 73.6475 25.3046V26.7265C73.6492 26.9435 73.6785 27.1319 73.7355 27.2916V27.3333H73.2591ZM72.6481 26.9661C72.7603 26.9661 72.8673 26.9348 72.9692 26.8723C73.071 26.8098 73.1452 26.7317 73.1918 26.638V25.9661H72.9329C72.7155 25.9696 72.5437 26.019 72.4177 26.1145C72.2917 26.2083 72.2287 26.3402 72.2287 26.5104C72.2287 26.6701 72.2607 26.7864 72.3245 26.8593C72.3884 26.9305 72.4963 26.9661 72.6481 26.9661Z" fill="white"/>
<path d="M76.1898 24.5156V27.3333H75.7316V26.2369H75.1905L74.6261 27.3333H74.1342L74.74 26.1562C74.5881 26.0902 74.4725 25.9886 74.3931 25.8515C74.3137 25.7143 74.274 25.5555 74.274 25.3749C74.274 25.1163 74.3568 24.9088 74.5225 24.7525C74.6882 24.5946 74.9109 24.5156 75.1905 24.5156H76.1898ZM74.7322 25.3801C74.7322 25.519 74.7693 25.631 74.8436 25.7161C74.9178 25.7994 75.0179 25.8411 75.1439 25.8411H75.7316V24.9062H75.1853C75.049 24.9062 74.9394 24.9505 74.8565 25.039C74.7737 25.1258 74.7322 25.2395 74.7322 25.3801Z" fill="white"/>
<path d="M46.9995 31.4661H46.7406V32.6666H46.2824V29.8489H46.7406V31.0416H46.9685L47.7322 29.8489H48.2785L47.3439 31.19L48.3458 32.6666H47.771L46.9995 31.4661Z" fill="white"/>
<path d="M48.6332 31.1275C48.6332 30.7178 48.7315 30.394 48.9283 30.1562C49.1268 29.9166 49.3883 29.7968 49.7127 29.7968C50.0372 29.7968 50.2978 29.9131 50.4946 30.1458C50.6931 30.3784 50.7949 30.6952 50.8001 31.0963V31.3932C50.8001 31.8012 50.7017 32.1241 50.505 32.3619C50.3082 32.5998 50.0459 32.7187 49.7179 32.7187C49.3934 32.7187 49.1328 32.6032 48.9361 32.3723C48.741 32.1414 48.6401 31.8289 48.6332 31.4348V31.1275ZM49.0914 31.3932C49.0914 31.6831 49.1475 31.9114 49.2597 32.0781C49.3736 32.243 49.5263 32.3255 49.7179 32.3255C50.1218 32.3255 50.3298 32.0321 50.3419 31.4452V31.1275C50.3419 30.8393 50.2849 30.6119 50.171 30.4452C50.0571 30.2768 49.9043 30.1926 49.7127 30.1926C49.5246 30.1926 49.3736 30.2768 49.2597 30.4452C49.1475 30.6119 49.0914 30.8385 49.0914 31.1249V31.3932Z" fill="white"/>
<path d="M52.7651 32.0286L53.5159 29.8489H54.0855V32.6666H53.6298V30.7239L52.923 32.6666H52.6098L51.8875 30.677V32.6666H51.4318V29.8489H52.0221L52.7651 32.0286Z" fill="white"/>
<path d="M56.7883 32.6666H56.3327V30.2473H55.3204V32.6666H54.8596V29.8489H56.7883V32.6666Z" fill="white"/>
<path d="M58.963 32.6666C58.9354 32.6058 58.9156 32.5034 58.9035 32.3593C58.7412 32.5989 58.5341 32.7187 58.2821 32.7187C58.0284 32.7187 57.8299 32.6475 57.6867 32.5051C57.5451 32.361 57.4744 32.1588 57.4744 31.8984C57.4744 31.6119 57.571 31.3845 57.7643 31.2161C57.9576 31.0477 58.2226 30.9617 58.5591 30.9583H58.8957V30.6588C58.8957 30.4904 58.8586 30.3706 58.7844 30.2994C58.7102 30.2282 58.5971 30.1926 58.4452 30.1926C58.3072 30.1926 58.195 30.2343 58.1087 30.3176C58.0224 30.3992 57.9792 30.5034 57.9792 30.6301H57.521C57.521 30.486 57.5633 30.3489 57.6478 30.2187C57.7324 30.0867 57.8463 29.9834 57.9896 29.9088C58.1328 29.8341 58.2925 29.7968 58.4685 29.7968C58.755 29.7968 58.9725 29.8689 59.1209 30.013C59.2711 30.1553 59.3479 30.3637 59.3514 30.638V32.0598C59.3531 32.2768 59.3824 32.4652 59.4394 32.6249V32.6666H58.963ZM58.352 32.2994C58.4642 32.2994 58.5712 32.2682 58.6731 32.2057C58.7749 32.1432 58.8491 32.065 58.8957 31.9713V31.2994H58.6368C58.4193 31.3029 58.2476 31.3524 58.1216 31.4479C57.9956 31.5416 57.9326 31.6735 57.9326 31.8437C57.9326 32.0034 57.9646 32.1197 58.0284 32.1926C58.0923 32.2638 58.2001 32.2994 58.352 32.2994Z" fill="white"/>
<path d="M62.0309 32.6666H61.5753V31.4635H60.5656V32.6666H60.1047V29.8489H60.5656V31.0702H61.5753V29.8489H62.0309V32.6666Z" fill="white"/>
<path d="M64.2755 29.8489H64.7312V32.6666H64.2755V30.6119L63.2607 32.6666H62.8024V29.8489H63.2607V31.9062L64.2755 29.8489Z" fill="white"/>
<path d="M67.2942 29.8489V32.6666H66.836V31.5702H66.2949L65.7305 32.6666H65.2386L65.8444 31.4895C65.6925 31.4235 65.5769 31.322 65.4975 31.1848C65.4181 31.0477 65.3784 30.8888 65.3784 30.7083C65.3784 30.4496 65.4613 30.2421 65.6269 30.0859C65.7926 29.9279 66.0153 29.8489 66.2949 29.8489H67.2942ZM65.8366 30.7135C65.8366 30.8524 65.8738 30.9643 65.948 31.0494C66.0222 31.1327 66.1223 31.1744 66.2483 31.1744H66.836V30.2395H66.2897C66.1534 30.2395 66.0438 30.2838 65.9609 30.3723C65.8781 30.4591 65.8366 30.5729 65.8366 30.7135Z" fill="white"/>
<path d="M10.6298 11.1662L12.3983 11.9958L13.0325 12.2932L5.43328 28.6856L3.03059 27.5586L10.6298 11.1662Z" fill="white"/>
<path d="M11.7641 12.2932L12.3983 11.9958L14.1668 11.1662L21.766 27.5586L19.3633 28.6856L11.7641 12.2932Z" fill="white"/>
<path d="M10.6298 11.1662L12.3983 11.9958L14.1668 11.1662L10.6298 11.1662Z" fill="white"/>
<path d="M1.49123 27.3332H4.1423V32.9999H1.49123V27.3332Z" fill="white"/>
<path d="M20.7115 27.3332H23.3626V32.9999H20.7115V27.3332Z" fill="white"/>
<path d="M4.1423 27.3332H20.7115V29.6665H4.1423V27.3332Z" fill="white"/>
<path fill-rule="evenodd" clip-rule="evenodd" d="M29.1618 33C31.6325 33 33.6355 30.9853 33.6355 28.5C33.6355 26.0147 31.6325 24 29.1618 24C26.6911 24 24.6881 26.0147 24.6881 28.5C24.6881 30.9853 26.6911 33 29.1618 33ZM29.1618 31.6667C30.9005 31.6667 32.3099 30.2489 32.3099 28.5C32.3099 26.7511 30.9005 25.3333 29.1618 25.3333C27.4231 25.3333 26.0137 26.7511 26.0137 28.5C26.0137 30.2489 27.4231 31.6667 29.1618 31.6667Z" fill="white"/>
<path d="M34.961 24.3334H36.2865V24.5868V32.6667H34.961V24.3334Z" fill="white"/>
<path d="M42.9142 24.3334H44.2397V32.6667H42.9142V24.5338V24.3334Z" fill="white"/>
<path d="M42.4887 24.3342L42.9142 24.5338L43.6901 24.8977L40.0308 32.6667L39.6512 32.4285L38.9596 31.9945L42.4887 24.3342Z" fill="white"/>
<path d="M35.6238 24.8977L36.2865 24.5868L36.8251 24.3342L40.3474 31.9945L39.6512 32.4285L39.271 32.6655L39.269 32.6667L35.6238 24.8977Z" fill="white"/>
<path d="M42.9142 24.5338V24.3334L42.4887 24.3342L42.9142 24.5338Z" fill="white"/>
<path d="M36.2865 24.3334V24.5868L36.8251 24.3342L36.2865 24.3334Z" fill="white"/>
<path d="M40.0308 32.6667L39.6512 32.4285L39.271 32.6655L40.0308 32.6667Z" fill="white"/>
<path d="M10.7686 0.000406901L13.1713 1.12739L2.87629 23.335L0.511231 22.2257L10.7686 0.000406901Z" fill="white"/>
<path d="M2.87629 23.335L0.511231 22.2257L0 23.3334L2.87629 23.335Z" fill="white"/>
<path d="M23.0312 0H10.77L22.037 22.3333H32.9727L34.6296 18.5L23.0312 0Z" fill="white"/>
<path d="M24.5271 1.49111L26.8098 1.24045e-07L37.9955 17.3258L35.7128 18.8169L24.5271 1.49111Z" fill="white"/>
<path d="M24.5271 1.49111L26.8098 1.24045e-07L23.5283 0L24.5271 1.49111Z" fill="white"/>
<path d="M44.0741 0.000109695L46.4356 1.05429L36.2423 22.2897L34.1326 21.1667L44.0741 0.000109695Z" fill="white"/>
<path d="M44.0741 0.000109695L46.4356 1.05429L46.8908 0.000109655L44.0741 0.000109695Z" fill="white"/>
<path d="M36.2423 22.2897L34.1326 21.1667L33.6355 22.2897H36.2423Z" fill="white"/>
<path d="M41.5887 14H42.9142V22.3334H41.5887V14Z" fill="white"/>
<path d="M42.9142 17.3334H44.2397V18.6667H42.9142V17.3334Z" fill="white"/>
<path fill-rule="evenodd" clip-rule="evenodd" d="M48.2163 22.3334C50.5956 22.3334 52.5243 20.3933 52.5243 18C52.5243 15.6068 50.5956 13.6667 48.2163 13.6667C45.8371 13.6667 43.9083 15.6068 43.9083 18C43.9083 20.3933 45.8371 22.3334 48.2163 22.3334ZM48.2163 21.0494C49.8906 21.0494 51.2479 19.6842 51.2479 18C51.2479 16.3159 49.8906 14.9507 48.2163 14.9507C46.5421 14.9507 45.1848 16.3159 45.1848 18C45.1848 19.6842 46.5421 21.0494 48.2163 21.0494Z" fill="white"/>
<path d="M55.1754 15H56.5009V22.3334H55.1754V15Z" fill="white"/>
<path d="M52.8557 13.6667H58.8206V15H52.8557V13.6667Z" fill="white"/>
<path d="M59.4834 14.0001H60.8089V22.3334H59.4834V14.0001Z" fill="white"/>
<path d="M65.1169 14.0001H66.4424V22.3334H65.1169V14.0001Z" fill="white"/>
<path d="M60.8089 17.3334H65.1169V18.6668H60.8089V17.3334Z" fill="white"/>
<path d="M71.5789 22.3334C72.9515 22.3334 74.0643 21.2141 74.0643 19.8334C74.0643 18.4527 72.9515 17.3334 71.5789 17.3334C70.6252 17.3334 69.7969 17.8738 69.3802 18.6668H71.4132C72.1453 18.6668 72.7388 19.2637 72.7388 20.0001C72.7388 20.7365 72.1453 21.3334 71.4132 21.3334H69.5904C70.0439 21.9407 70.7658 22.3334 71.5789 22.3334Z" fill="white"/>
<path d="M69.2592 20.7329V18.934C69.1522 19.2131 69.0935 19.5164 69.0935 19.8334C69.0935 20.1505 69.1522 20.4538 69.2592 20.7329Z" fill="white"/>
<path d="M68.0994 14.0001H69.4249V22.3334H68.0994V14.0001Z" fill="white"/>
<path d="M69.4249 21.3334H71.7446V22.3334H69.4249V21.3334Z" fill="white"/>
<path d="M69.4249 17.3334H71.7446V18.3334L69.4249 18.6668V17.3334Z" fill="white"/>
<path d="M74.727 14.0001H76.0526V22.3334H74.727V14.0001Z" fill="white"/>
<path d="M78.0409 14.0001H79.3665V20.3334V22.3334H78.0409V14.0001Z" fill="white"/>
<path d="M83.6745 14.0001H85V22.3334H83.6745V16.0001V14.0001Z" fill="white"/>
<path d="M79.3665 20.3334V22.3334L83.6745 16.0001V14.0001L79.3665 20.3334Z" fill="white"/>
<path d="M81.6862 12.3334C82.4182 12.3334 83.0117 11.7365 83.0117 11.0001H84.0059C84.0059 12.2888 82.9673 13.3334 81.6862 13.3334C80.405 13.3334 79.3665 12.2888 79.3665 11.0001H80.3606C80.3606 11.7365 80.9541 12.3334 81.6862 12.3334Z" fill="white"/>
</svg>
