<svg xmlns="http://www.w3.org/2000/svg" width="18" height="18" viewBox="0 0 18 18"><g><g opacity=".3"><path fill="#fff" d="M9 13.636A4.641 4.641 0 0 1 4.364 9 4.641 4.641 0 0 1 9 4.364 4.641 4.641 0 0 1 13.636 9 4.642 4.642 0 0 1 9 13.636zm0-1.959A2.68 2.68 0 0 0 11.677 9 2.68 2.68 0 0 0 9 6.323 2.68 2.68 0 0 0 6.323 9 2.68 2.68 0 0 0 9 11.677zm4.785-6.354a1.098 1.098 0 0 1-1.097-1.097 1.098 1.098 0 0 1 2.194 0c0 .605-.492 1.097-1.097 1.097zM18 13.459A4.545 4.545 0 0 1 13.46 18H4.54A4.546 4.546 0 0 1 0 13.46V4.54A4.546 4.546 0 0 1 4.54 0h8.92A4.546 4.546 0 0 1 18 4.54zM4.54 1.96A2.585 2.585 0 0 0 1.96 4.541v8.918a2.585 2.585 0 0 0 2.582 2.582h8.918a2.585 2.585 0 0 0 2.582-2.582V4.541a2.585 2.585 0 0 0-2.582-2.582z"/></g></g></svg>