<svg width="41" height="38" viewBox="0 0 41 38" fill="none" xmlns="http://www.w3.org/2000/svg">
<path d="M21.6148 29.6895C20.4381 28.8013 19.8807 27.5008 19.8807 25.5025C19.8807 22.9967 20.6239 19.9516 21.8625 18.6194C22.7296 17.7312 23.9683 17.3189 25.6405 17.3189C28.0249 17.3189 30.9668 17.9533 32.1745 19.2538C33.0106 20.1102 33.3822 21.2838 33.3822 22.9332C33.3822 25.3122 32.7319 28.6427 31.2764 30.0384C30.4403 30.7997 29.3565 31.1486 27.7772 31.1486C25.6405 31.1169 22.9464 30.6094 21.6148 29.6895ZM32.1125 34.9232L31.8338 37.207L38.0582 38L41 13.3539L34.7757 12.5609L34.497 14.9399H33.7538C32.8248 13.2588 30.3474 10.975 25.6405 10.975C19.1065 10.975 14.2757 15.9232 13.4086 22.6795C13.3157 23.3456 13.2847 24.0117 13.2847 24.6778C13.2847 31.1486 17.5582 36.4457 24.247 37.207C24.6186 37.2387 24.9902 37.2705 25.3618 37.2387C28.1488 37.2387 30.2545 36.0017 31.3384 34.9232H32.1125ZM4.05665 0L0 33.2104L6.59592 34.0351L10.5906 0.82471L4.05665 0Z" fill="white"/>
</svg>
