<svg width="375" height="812" viewBox="0 0 375 812" fill="none" xmlns="http://www.w3.org/2000/svg">
<g clip-path="url(#clip0)">
<rect width="375" height="812" fill="#120B31"/>
<path opacity="0.02" fill-rule="evenodd" clip-rule="evenodd" d="M161.496 807.88C142.236 816.306 128.995 835.564 128.995 858.033C128.995 888.124 153.471 913 183.965 913C214.46 913 239.337 887.723 238.535 857.23C239.738 816.707 261.004 785.813 293.104 765.752V765.35C311.561 756.523 324 737.265 324 716C324 695.538 313.166 677.081 295.11 667.452C263.011 648.193 240.942 613.688 238.936 573.967C238.936 543.876 214.059 519 183.965 519C153.471 519 128.995 543.876 128.995 573.967C128.995 594.43 140.23 612.485 157.082 621.713C230.109 661.835 234.923 765.35 161.496 807.88ZM63.1904 677.884C63.1904 672.668 65.1966 668.656 68.4066 665.045C71.2153 662.637 74.024 661.033 77.6352 660.23C79.2402 659.829 81.2464 659.428 83.2527 659.428C88.8701 659.428 96.4938 662.236 100.506 665.847L134.211 699.951C138.625 703.963 140.631 709.58 140.631 714.796C140.631 720.413 138.625 726.031 134.211 730.043L98.0987 766.153C95.29 768.961 91.2776 770.967 87.2651 772.171C84.4564 772.572 81.6477 772.572 78.839 772.171C73.6228 771.369 69.2091 768.56 65.9991 763.745C64.3941 760.937 63.1904 757.727 63.1904 754.116L63.1904 677.884ZM13.0347 519C-17.0587 519 -41.5347 543.876 -41.5347 573.967C-41.5347 604.46 -17.0587 628.935 13.0347 628.935C43.5293 628.935 68.0053 604.46 68.0053 573.967C68.0053 543.876 43.5293 519 13.0347 519ZM13.0347 803.065C-17.0587 803.065 -41.5347 827.54 -41.5347 858.033C-41.5347 888.124 -17.0587 913 13.0347 913C43.5293 913 68.0053 888.124 68.0053 858.033C68.0053 827.54 43.5293 803.065 13.0347 803.065ZM-72.0294 661.033C-102.524 661.033 -127 685.908 -127 716C-127 746.493 -102.524 770.967 -72.0294 770.967C-41.9359 770.967 -17.46 746.493 -17.46 716C-17.46 685.908 -41.9359 661.033 -72.0294 661.033Z" fill="white"/>
</g>
<defs>
<clipPath id="clip0">
<rect width="375" height="812" fill="white"/>
</clipPath>
</defs>
</svg>
