<svg width="151" height="32" viewBox="0 0 151 32" fill="none" xmlns="http://www.w3.org/2000/svg">
<path fill-rule="evenodd" clip-rule="evenodd" d="M22.8131 22.8486C21.2901 23.515 20.243 25.0382 20.243 26.8154C20.243 29.1954 22.1785 31.1629 24.5899 31.1629C27.0013 31.1629 28.9685 29.1637 28.905 26.7519C29.0002 23.5467 30.6818 21.1032 33.2201 19.5165V19.4848C34.6797 18.7866 35.6633 17.2634 35.6633 15.5815C35.6633 13.963 34.8066 12.5033 33.3788 11.7416C30.8405 10.2184 29.0954 7.48926 28.9367 4.34758C28.9367 1.96752 26.9695 0 24.5899 0C22.1785 0 20.243 1.96752 20.243 4.34758C20.243 5.96602 21.1314 7.39406 22.464 8.12394C28.2387 11.2974 28.6194 19.4848 22.8131 22.8486ZM15.0395 12.5667C15.0395 12.1542 15.1981 11.8368 15.452 11.5512C15.6741 11.3608 15.8962 11.2339 16.1817 11.1704C16.3086 11.1387 16.4673 11.107 16.6259 11.107C17.0701 11.107 17.673 11.3291 17.9903 11.6147L20.6555 14.3121C21.0045 14.6294 21.1632 15.0737 21.1632 15.4863C21.1632 15.9305 21.0045 16.3748 20.6555 16.6922L17.7999 19.5482C17.5778 19.7704 17.2605 19.929 16.9432 20.0242C16.7211 20.056 16.499 20.056 16.2769 20.0242C15.8644 19.9608 15.5154 19.7386 15.2616 19.3578C15.1347 19.1357 15.0395 18.8818 15.0395 18.5962V12.5667ZM11.0734 0C8.69371 0 6.75825 1.96752 6.75825 4.34758C6.75825 6.75937 8.69371 8.69516 11.0734 8.69516C13.4848 8.69516 15.4202 6.75937 15.4202 4.34758C15.4202 1.96752 13.4848 0 11.0734 0ZM11.0734 22.4678C8.69371 22.4678 6.75825 24.4036 6.75825 26.8154C6.75825 29.1954 8.69371 31.1629 11.0734 31.1629C13.4848 31.1629 15.4202 29.1954 15.4202 26.8154C15.4202 24.4036 13.4848 22.4678 11.0734 22.4678ZM4.34686 11.2339C1.93546 11.2339 0 13.2014 0 15.5815C0 17.9933 1.93546 19.929 4.34686 19.929C6.72652 19.929 8.66198 17.9933 8.66198 15.5815C8.66198 13.2014 6.72652 11.2339 4.34686 11.2339Z" fill="url(#paint0_linear)"/>
<path d="M141.371 11.877V14.4157H143.846V22.7618H146.702V14.4157H150.001V11.877H146.702V8.48145H143.846V11.877H141.371Z" fill="white"/>
<path d="M140.26 22.7627V11.8779H137.404V22.7627H140.26Z" fill="white"/>
<path d="M138.863 10.8619C139.657 10.8619 140.291 10.2272 140.291 9.4339C140.291 8.67228 139.657 8.00586 138.863 8.00586C138.102 8.00586 137.436 8.67228 137.436 9.4339C137.436 10.2272 138.102 10.8619 138.863 10.8619Z" fill="white"/>
<path d="M111.449 22.7622H114.273V16.7962C114.273 15.0826 115.161 14.0671 116.526 14.0671C118.207 14.0671 118.969 15.5268 118.969 16.7962V22.7622H121.825V16.7962C121.825 15.5268 122.586 14.0671 124.236 14.0671C125.632 14.0671 126.52 15.0826 126.52 16.7962V22.7622H129.344V16.3837C129.344 13.0516 126.425 11.6553 124.299 11.6553C122.745 11.6553 121.349 12.2582 120.428 13.1785C119.54 12.2582 118.144 11.6553 116.558 11.6553C113.861 11.6553 111.449 13.5276 111.449 16.3837V22.7622Z" fill="white"/>
<path d="M104.564 23.0791C106.055 23.0791 107.801 22.3809 108.879 21.0798C109.958 19.8105 110.275 18.4776 110.275 17.3352C110.275 16.3832 110.022 15.4311 109.546 14.5109C109.006 13.6223 108.308 12.8924 107.388 12.3847C106.5 11.8769 105.548 11.623 104.564 11.623C103.073 11.623 101.55 12.2895 100.662 13.178C99.2655 14.5743 98.8848 16.2245 98.8848 17.3352C98.8848 20.4451 101.455 23.0791 104.564 23.0791ZM101.709 17.4621C101.709 16.8909 101.867 16.3197 102.216 15.8437C102.883 14.8599 103.898 14.5426 104.596 14.5426C105.389 14.5426 106.087 14.8282 106.658 15.3994C107.229 15.9706 107.515 16.6688 107.515 17.4621C107.515 18.2555 107.229 18.9219 106.658 19.4931C106.087 20.0643 105.389 20.3499 104.596 20.3499C104.025 20.3499 103.485 20.1595 103.01 19.8422C102.026 19.1758 101.709 18.1603 101.709 17.4621Z" fill="white"/>
<path d="M89.1133 21.4606C90.6997 22.4761 92.2227 22.9839 93.6188 22.9839C94.412 22.9839 95.1418 22.8569 95.8715 22.5396C97.2359 22.0001 98.1243 20.9846 98.1243 19.6201C98.1243 17.9381 97.1089 17.2717 96.2523 16.7957C95.935 16.637 95.3321 16.4149 94.4437 16.0976C93.5553 15.7802 93.0159 15.5264 92.8256 15.3359C92.6352 15.1455 92.54 14.9551 92.54 14.7647C92.54 14.3522 92.8573 14.0666 93.6505 14.0666C93.9678 14.0666 94.3168 14.1618 94.761 14.2887C95.1418 14.4474 95.7763 14.7647 96.6013 15.209L97.8704 13.1463C96.6647 12.2577 95.0783 11.6865 93.6822 11.6865C92.9525 11.6865 92.2862 11.8135 91.6516 12.0673C90.3824 12.6068 89.6844 13.5906 89.6844 14.8599C89.6844 16.161 90.3824 17.1131 92.6035 17.9381C93.7457 18.3507 94.3803 18.6363 94.6024 18.7632C94.9831 18.9854 95.2369 19.271 95.2369 19.6201C95.2369 20.1595 94.6658 20.6038 93.587 20.6038C92.5083 20.6038 91.2708 20.0009 90.319 19.3345L89.1133 21.4606Z" fill="white"/>
<path d="M79.5625 21.4606C81.1489 22.4761 82.6719 22.9839 84.068 22.9839C84.8295 22.9839 85.591 22.8569 86.289 22.5396C87.6851 22.0001 88.5418 20.9846 88.5418 19.6201C88.5418 17.9381 87.5264 17.2717 86.7015 16.7957C86.3842 16.637 85.7814 16.4149 84.8929 16.0976C84.0045 15.7802 83.4652 15.5264 83.2748 15.3359C83.0844 15.1455 82.9892 14.9551 82.9892 14.7647C82.9892 14.3522 83.3065 14.0666 84.0997 14.0666C84.417 14.0666 84.766 14.1618 85.1785 14.2887C85.591 14.4474 86.1938 14.7647 87.0505 15.209L88.3197 13.1463C87.0822 12.2577 85.4958 11.6865 84.1315 11.6865C83.4017 11.6865 82.7037 11.8135 82.1008 12.0673C80.8317 12.6068 80.1019 13.5906 80.1019 14.8599C80.1019 16.161 80.8317 17.1131 83.0527 17.9381C84.1632 18.3507 84.8295 18.6363 85.0516 18.7632C85.4323 18.9854 85.6862 19.271 85.6862 19.6201C85.6862 20.1595 85.1151 20.6038 84.0363 20.6038C82.9575 20.6038 81.7201 20.0009 80.7682 19.3345L79.5625 21.4606Z" fill="white"/>
<path d="M73.5974 23.0791C75.0887 23.0791 76.8338 22.3809 77.9126 21.0798C78.9913 19.8105 79.3086 18.4776 79.3086 17.3352C79.3086 16.3832 79.0548 15.4311 78.5471 14.5109C78.0395 13.6223 77.3414 12.8924 76.4213 12.3847C75.5012 11.8769 74.581 11.623 73.5974 11.623C72.1062 11.623 70.5832 12.2895 69.6948 13.178C68.2987 14.5743 67.918 16.2245 67.918 17.3352C67.918 20.4451 70.488 23.0791 73.5974 23.0791ZM70.7418 17.4621C70.7418 16.8909 70.9005 16.3197 71.2178 15.8437C71.8841 14.8599 72.8994 14.5426 73.6292 14.5426C74.4224 14.5426 75.1204 14.8282 75.6915 15.3994C76.2627 15.9706 76.5165 16.6688 76.5165 17.4621C76.5165 18.2555 76.2627 18.9219 75.6915 19.4931C75.1204 20.0643 74.4224 20.3499 73.6292 20.3499C73.058 20.3499 72.5187 20.1595 72.0427 19.8422C71.0591 19.1758 70.7418 18.1603 70.7418 17.4621Z" fill="white"/>
<path d="M66.5543 22.7616V7.21191H63.7305V22.7616H66.5543Z" fill="white"/>
<path d="M57.0981 22.7617C60.3662 22.7617 62.2699 21.1749 62.2699 18.3506C62.2699 16.986 61.6988 15.8753 60.5248 14.9868C61.6988 14.13 62.2699 13.0193 62.2699 11.6547C62.2699 8.86209 60.3662 7.24365 57.0981 7.24365L48.6582 7.21191V22.7617H57.0981ZM51.5773 16.3514H57.1615C58.4307 16.3514 59.1922 17.0812 59.1922 18.1919C59.1922 19.2709 58.399 20.0642 57.1298 20.0642H51.5455L51.5773 16.3514ZM51.5455 9.97279H57.1298C58.399 9.97279 59.1922 10.7344 59.1922 11.8134C59.1922 12.9558 58.4307 13.6857 57.1615 13.6857H51.5773L51.5455 9.97279Z" fill="white"/>
<defs>
<linearGradient id="paint0_linear" x1="-0.000317289" y1="15.5815" x2="35.6658" y2="15.5815" gradientUnits="userSpaceOnUse">
<stop stop-color="#FFCC67"/>
<stop offset="0.231373" stop-color="#FE785C"/>
<stop offset="0.501961" stop-color="#EA5BDA"/>
<stop offset="1" stop-color="#492AF3"/>
</linearGradient>
</defs>
</svg>
