<svg xmlns="http://www.w3.org/2000/svg" width="26" height="24" viewBox="0 0 26 24"><defs><linearGradient id="h20ra" x1="0" x2="26" y1="12" y2="12" gradientUnits="userSpaceOnUse"><stop offset="0" stop-color="#ffcc67"/><stop offset=".23" stop-color="#fe785c"/><stop offset=".5" stop-color="#ea5bda"/><stop offset="1" stop-color="#492af3"/></linearGradient></defs><g><g><path fill="url(#h20ra)" d="M25.563 10.663c.41.363.546.922.346 1.424-.2.503-.689.828-1.243.828h-1.864v10.342c0 .41-.342.743-.765.743h-6.393a.754.754 0 0 1-.765-.743v-6.28h-3.758v6.28c0 .41-.342.743-.764.743H3.962a.754.754 0 0 1-.764-.743V12.915H1.335a1.324 1.324 0 0 1-1.244-.828 1.261 1.261 0 0 1 .346-1.424L12.102.34a1.356 1.356 0 0 1 1.796 0zm-2.96-9.18c.422 0 .764.332.764.742v4.467l-5.9-5.21z"/></g></g></svg>