<svg width="26" height="24" viewBox="0 0 26 24" fill="none" xmlns="http://www.w3.org/2000/svg">
<g opacity="0.3">
<path d="M25.5633 10.6627L13.898 0.339866C13.3859 -0.113305 12.6138 -0.113256 12.102 0.339817L0.436618 10.6628C0.0264592 11.0258 -0.109025 11.585 0.0913574 12.0875C0.29179 12.59 0.779797 12.9146 1.33468 12.9146H3.19784V23.2574C3.19784 23.6675 3.54021 24 3.96245 24H10.3565C10.7787 24 11.1211 23.6675 11.1211 23.2574V16.9776H14.879V23.2574C14.879 23.6675 15.2214 24 15.6436 24H22.0374C22.4596 24 22.802 23.6676 22.802 23.2574V12.9146H24.6655C25.2203 12.9146 25.7084 12.5899 25.9088 12.0875C26.1089 11.585 25.9735 11.0258 25.5633 10.6627Z" fill="white"/>
<path d="M22.6023 1.48219H17.4673L23.3669 6.69181V2.2247C23.3669 1.81463 23.0246 1.48219 22.6023 1.48219Z" fill="white"/>
</g>
</svg>
