<svg xmlns="http://www.w3.org/2000/svg" width="27" height="22" viewBox="0 0 27 22"><g><g opacity=".3"><path fill="#fff" d="M5.532 8.773H.027C.027 1.043 6.84 0 13.504 0 20.168 0 26.98 1.042 26.98 8.773h-5.548c-.385-4.99-3.235-4.71-7.785-4.754-4.511-.044-7.69-.331-8.116 4.754zM0 9.407h5.557c0 .235-.02.438-.053.616-.25 1.316-1.374 1.236-2.725 1.236-1.535 0-2.779.105-2.779-1.852zm27 0c0 1.854-1.25 1.754-2.792 1.754-1.346 0-2.469.075-2.733-1.138a2.911 2.911 0 0 1-.059-.616zm-8.242-.654c1.317 1.353 5.622 7.112 5.777 7.79v4.677c0 .43-.353.78-.788.78H2.741a.785.785 0 0 1-.788-.78l-.002-4.654c.156-.697 4.463-6.459 5.779-7.812V7.297c0-.347.405-.37.904-.37h.817c.5 0 .905.023.905.37v1.19h5.776v-1.19c0-.347.405-.37.905-.37h.816c.5 0 .905.023.905.37zm-7.921 7.681a.762.762 0 0 0-.766-.757.762.762 0 0 0-.766.758c0 .418.343.757.766.757a.762.762 0 0 0 .766-.758zm0-2.598a.762.762 0 0 0-.766-.758.762.762 0 0 0-.766.758c0 .419.343.758.766.758a.762.762 0 0 0 .766-.758zm0-2.598a.762.762 0 0 0-.766-.758.762.762 0 0 0-.766.758c0 .418.343.757.766.757a.762.762 0 0 0 .766-.757zm3.15 5.197a.761.761 0 0 0-.765-.758.762.762 0 0 0-.766.758c0 .418.343.757.766.757a.761.761 0 0 0 .766-.758zm0-2.6a.761.761 0 0 0-.765-.757.762.762 0 0 0-.766.758c0 .419.343.758.766.758a.761.761 0 0 0 .766-.758zm0-2.598a.762.762 0 0 0-.765-.757.762.762 0 0 0-.766.758c0 .418.343.757.766.757a.761.761 0 0 0 .766-.757zm3.152 5.197a.761.761 0 0 0-.766-.757.761.761 0 0 0-.766.758c0 .418.343.757.766.757a.761.761 0 0 0 .766-.758zm0-2.598a.761.761 0 0 0-.766-.758.761.761 0 0 0-.766.758c0 .419.343.758.766.758a.761.761 0 0 0 .766-.758zm0-2.598a.762.762 0 0 0-.766-.758.762.762 0 0 0-.766.758c0 .418.343.757.766.757a.761.761 0 0 0 .766-.757z"/></g></g></svg>