<svg width="26" height="21" viewBox="0 0 26 21" fill="none" xmlns="http://www.w3.org/2000/svg">
<path d="M0.957518 4.40237C0.319139 5.00398 0 5.72406 0 6.56247V17.9375C0 18.7762 0.319139 19.4963 0.957518 20.0977C1.59595 20.6994 2.3601 21 3.24998 21H4.17848V3.49989H3.24998C2.3599 3.49989 1.5958 3.80076 0.957518 4.40237Z" fill="url(#paint0_linear)"/>
<path d="M18.5713 1.31245C18.5713 0.947833 18.436 0.638002 18.1651 0.382763C17.8945 0.127524 17.5654 0 17.1787 0H8.82149C8.43466 0 8.10582 0.127524 7.83491 0.382763C7.56404 0.637858 7.42867 0.947785 7.42867 1.31245V3.49989H5.57151V21H20.4287V3.49989H18.5713V1.31245ZM16.7143 3.49989H9.28577V1.74994H16.7143V3.49989Z" fill="url(#paint1_linear)"/>
<path d="M25.0425 4.40237C24.4041 3.80081 23.6398 3.49989 22.75 3.49989H21.8214V21H22.75C23.6399 21 24.4041 20.6995 25.0425 20.0977C25.6807 19.4962 26 18.7762 26 17.9375V6.56247C25.9999 5.72406 25.6807 5.00398 25.0425 4.40237Z" fill="url(#paint2_linear)"/>
<defs>
<linearGradient id="paint0_linear" x1="-0.000231317" y1="10.5" x2="26.0019" y2="10.5" gradientUnits="userSpaceOnUse">
<stop stop-color="#FFCC67"/>
<stop offset="0.231373" stop-color="#FE785C"/>
<stop offset="0.501961" stop-color="#EA5BDA"/>
<stop offset="1" stop-color="#492AF3"/>
</linearGradient>
<linearGradient id="paint1_linear" x1="-0.000231317" y1="10.5" x2="26.0019" y2="10.5" gradientUnits="userSpaceOnUse">
<stop stop-color="#FFCC67"/>
<stop offset="0.231373" stop-color="#FE785C"/>
<stop offset="0.501961" stop-color="#EA5BDA"/>
<stop offset="1" stop-color="#492AF3"/>
</linearGradient>
<linearGradient id="paint2_linear" x1="-0.000231317" y1="10.5" x2="26.0019" y2="10.5" gradientUnits="userSpaceOnUse">
<stop stop-color="#FFCC67"/>
<stop offset="0.231373" stop-color="#FE785C"/>
<stop offset="0.501961" stop-color="#EA5BDA"/>
<stop offset="1" stop-color="#492AF3"/>
</linearGradient>
</defs>
</svg>
