<svg xmlns="http://www.w3.org/2000/svg" width="26" height="21" viewBox="0 0 26 21"><g><g opacity=".3"><path fill="#fff" d="M3.25 3.5h.928V21H3.25c-.89 0-1.654-.3-2.292-.902C.319 19.496 0 18.776 0 17.938V6.562c0-.838.32-1.558.958-2.16A3.225 3.225 0 0 1 3.25 3.5zm15.321 0h1.858V21H5.572V3.5h1.857V1.312c0-.364.135-.674.406-.93.27-.254.6-.382.986-.382h8.358c.386 0 .716.128.986.383.271.255.406.565.406.93zm-1.857-1.75H9.286V3.5h7.428zM26 6.562v11.376c0 .838-.32 1.558-.958 2.16-.638.602-1.402.902-2.292.902h-.929V3.5h.929c.89 0 1.654.3 2.292.902.639.602.958 1.322.958 2.16z"/></g></g></svg>