<svg width="23" height="23" viewBox="0 0 23 23" fill="none" xmlns="http://www.w3.org/2000/svg">
<path fill-rule="evenodd" clip-rule="evenodd" d="M11.5 0C5.1589 0 0 5.15897 0 11.5001C0 17.8412 5.1589 23 11.5 23C17.8411 23 23 17.8412 23 11.5001C23 5.15897 17.8411 0 11.5 0ZM10.1062 6.27336C10.1062 5.50439 10.7314 4.87879 11.4999 4.87879C12.2683 4.87879 12.8935 5.50439 12.8935 6.27336C12.8935 7.04162 12.2683 7.66667 11.4999 7.66667C10.7314 7.66667 10.1062 7.04162 10.1062 6.27336ZM10.4545 10.803C10.4545 10.2257 10.9226 9.75758 11.5 9.75758C12.0774 9.75758 12.5455 10.2257 12.5455 10.803V17.0758C12.5455 17.6531 12.0774 18.1212 11.5 18.1212C10.9226 18.1212 10.4545 17.6531 10.4545 17.0758V10.803Z" fill="url(#paint0_linear)"/>
<defs>
<linearGradient id="paint0_linear" x1="-0.000204626" y1="11.5" x2="23.0016" y2="11.5" gradientUnits="userSpaceOnUse">
<stop stop-color="#FFCC67"/>
<stop offset="0.231373" stop-color="#FE785C"/>
<stop offset="0.501961" stop-color="#EA5BDA"/>
<stop offset="1" stop-color="#492AF3"/>
</linearGradient>
</defs>
</svg>
