<svg width="34" height="44" viewBox="0 0 34 44" fill="none" xmlns="http://www.w3.org/2000/svg">
<path d="M0 11.846H6.94361V43.9998H0V11.846Z" fill="white"/>
<path d="M6.94372 25.8682H15.9225L27.2957 44H18.3169L6.94372 25.8682Z" fill="white"/>
<path fill-rule="evenodd" clip-rule="evenodd" d="M21.0699 21.5163C23.7146 21.5163 25.8586 19.3516 25.8586 16.6812C25.8586 14.0108 23.7146 11.846 21.0699 11.846C18.4251 11.846 16.2812 14.0108 16.2812 16.6812C16.2812 19.3516 18.4251 21.5163 21.0699 21.5163ZM21.0699 19.7032C22.7228 19.7032 24.0628 18.3502 24.0628 16.6812C24.0628 15.0122 22.7228 13.6592 21.0699 13.6592C19.4169 13.6592 18.0769 15.0122 18.0769 16.6812C18.0769 18.3502 19.4169 19.7032 21.0699 19.7032Z" fill="white"/>
<path fill-rule="evenodd" clip-rule="evenodd" d="M22.8067 5.92306C24.4265 5.92306 25.7397 4.59714 25.7397 2.96153C25.7397 1.32592 24.4265 0 22.8067 0C21.1868 0 19.8736 1.32592 19.8736 2.96153C19.8736 4.59714 21.1868 5.92306 22.8067 5.92306ZM22.8067 4.59339C23.6993 4.59339 24.4228 3.86278 24.4228 2.96153C24.4228 2.06028 23.6993 1.32967 22.8067 1.32967C21.914 1.32967 21.1905 2.06028 21.1905 2.96153C21.1905 3.86278 21.914 4.59339 22.8067 4.59339Z" fill="white"/>
<path fill-rule="evenodd" clip-rule="evenodd" d="M30.4683 14.3846C32.4188 14.3846 34 12.7881 34 10.8187C34 8.84929 32.4188 7.25277 30.4683 7.25277C28.5178 7.25277 26.9367 8.84929 26.9367 10.8187C26.9367 12.7881 28.5178 14.3846 30.4683 14.3846ZM30.4683 12.9341C31.6254 12.9341 32.5634 11.987 32.5634 10.8187C32.5634 9.6504 31.6254 8.70331 30.4683 8.70331C29.3113 8.70331 28.3733 9.6504 28.3733 10.8187C28.3733 11.987 29.3113 12.9341 30.4683 12.9341Z" fill="white"/>
</svg>
