<svg width="247" height="202" viewBox="0 0 247 202" fill="none" xmlns="http://www.w3.org/2000/svg">
<path d="M9.9989 81.6235C16.7304 88.1987 71.5991 69.4191 71.856 61.5826C72.113 53.7461 69.9278 51.5361 64.0195 40.7066C58.1112 29.8772 121.188 28.1168 123.5 27.6672C125.812 27.2176 123.5 0.0466561 123.5 0.0466561C80.8992 -0.787817 16.148 9.7721 9.9989 15.6555C5.58561 17.2312 -2.71228 47.2403 0.877701 66.7855C4.43975 73.1069 3.26745 75.0484 9.9989 81.6235Z" fill="url(#paint0_linear)"/>
<path d="M237.001 81.6235C230.27 88.1987 175.401 69.4191 175.144 61.5826C174.887 53.7461 177.072 51.5361 182.98 40.7066C188.889 29.8772 125.684 27.8598 123.5 27.6672C121.316 27.4745 123.5 0.0466561 123.5 0.0466561C166.101 -0.787817 230.852 9.7721 237.001 15.6555C241.414 17.2312 249.712 47.2403 246.122 66.7855C242.56 73.1069 243.733 75.0484 237.001 81.6235Z" fill="url(#paint1_linear)"/>
<path opacity="0.2" d="M63.1509 40.8174C42.018 54.033 28.5104 59.6169 1.53906 66.2323" stroke="white" stroke-linecap="round"/>
<path opacity="0.2" d="M182.523 43.1279C203.656 56.3436 217.163 61.9275 244.135 68.5428" stroke="white" stroke-linecap="round"/>
<path d="M123.457 199.639C123.465 200.639 123.465 200.639 123.466 200.639L123.468 200.639L123.478 200.639L123.515 200.638L123.661 200.637L124.232 200.632C124.732 200.627 125.467 200.62 126.406 200.611C128.283 200.592 130.973 200.564 134.228 200.525C140.737 200.448 149.503 200.329 158.531 200.165C167.557 200 176.849 199.789 184.409 199.527C191.926 199.266 197.831 198.953 200.005 198.568C203.921 197.875 206.817 197.238 208.798 196.753C211.239 196.155 212.8 193.939 212.678 191.471C212.017 178.032 209.435 127.709 206.798 105.163C204.424 84.8732 199.348 73.3028 197.376 69.4269C196.772 68.2401 195.727 67.4239 194.549 66.9927C192.075 66.0869 187.198 64.2093 184.009 62.4006C180.75 60.5524 176.578 57.2589 174.426 55.4966C173.74 54.9348 173.31 54.1145 173.222 53.2134L170.904 29.4634C170.629 26.648 168.262 24.501 165.433 24.501H158.593C155.557 24.501 153.096 26.9618 153.096 29.9973V38.0543H123.457H93.8172V29.9973C93.8172 26.9618 91.3564 24.501 88.3208 24.501H81.4799C78.6512 24.501 76.2844 26.648 76.0096 29.4634L73.6912 53.2134C73.6033 54.1145 73.1732 54.9348 72.4872 55.4966C70.3353 57.2589 66.1636 60.5524 62.9048 62.4006C59.7156 64.2093 54.8385 66.0869 52.3644 66.9927C51.1867 67.4239 50.1411 68.2401 49.5372 69.4269C47.5652 73.3028 42.4897 84.8732 40.1158 105.163C37.478 127.709 34.8966 178.032 34.2352 191.471C34.1137 193.939 35.674 196.155 38.1157 196.753C40.0966 197.238 42.9928 197.875 46.9085 198.568C49.0829 198.953 54.9872 199.266 62.5043 199.527C70.064 199.789 79.3561 200 88.3829 200.165C97.4106 200.329 106.177 200.448 112.686 200.525C115.94 200.564 118.631 200.592 120.508 200.611C121.446 200.62 122.181 200.627 122.682 200.632L123.252 200.637L123.399 200.638L123.436 200.639L123.445 200.639L123.447 200.639C123.448 200.639 123.448 200.639 123.457 199.639ZM123.457 199.639L123.448 200.639L123.457 200.639L123.465 200.639L123.457 199.639Z" fill="url(#paint2_linear)" stroke="#120B31" stroke-width="2"/>
<rect opacity="0.2" x="90.2461" y="41.1123" width="1.44917" height="17.3758" rx="0.724584" transform="rotate(48.1024 90.2461 41.1123)" fill="white"/>
<path opacity="0.2" d="M155.846 41.8711C155.556 41.6967 155.476 41.3123 155.671 41.036C155.847 40.7877 156.185 40.717 156.446 40.8739L162.438 44.4767C162.78 44.6823 163.106 44.914 163.413 45.1697L168.52 49.4301C168.753 49.6246 168.798 49.9655 168.622 50.2132C168.426 50.4899 168.036 50.5408 167.775 50.3235L162.675 46.0695C162.41 45.8486 162.129 45.6484 161.833 45.4707L155.846 41.8711Z" fill="white"/>
<path opacity="0.8" d="M193.472 105.985C193.472 131.74 167.063 152.619 123.007 152.619C78.9523 152.619 52.543 131.74 52.543 105.985C52.543 80.2302 84.091 59.3516 123.007 59.3516C161.924 59.3516 193.472 80.2302 193.472 105.985Z" fill="white"/>
<path d="M171.759 100.719C171.759 118.528 153.487 132.964 123.005 132.964C92.5242 132.964 74.252 118.528 74.252 100.719C74.252 82.9104 96.0796 68.4736 123.005 68.4736C149.931 68.4736 171.759 82.9104 171.759 100.719Z" fill="url(#paint3_linear)"/>
<path opacity="0.8" d="M142.985 98.9843C142.985 106.257 135.498 112.152 123.008 112.152C110.518 112.152 103.031 106.257 103.031 98.9843C103.031 91.7119 111.975 85.8164 123.008 85.8164C134.041 85.8164 142.985 91.7119 142.985 98.9843Z" fill="white"/>
<path d="M156.265 104.767C154.618 104.494 153.824 106.71 155.269 107.545L157.828 109.024C159.045 109.727 160.425 110.097 161.83 110.097H168.401C169.768 110.097 170.919 111.119 171.08 112.476C171.384 115.036 174.762 115.752 176.079 113.535L177.25 111.562C177.799 110.638 177.89 109.512 177.495 108.512L177.119 107.557C176.164 105.135 173.661 103.697 171.088 104.093L162.555 105.406C161.718 105.535 160.865 105.53 160.029 105.391L156.265 104.767Z" fill="white"/>
<path d="M118.935 121.497C119.492 124.103 117.755 126.684 114.102 127.465C110.45 128.246 107.809 126.601 107.251 123.995C106.694 121.388 108.858 118.716 112.084 118.026C115.31 117.336 118.377 118.89 118.935 121.497Z" fill="#F7F5FF"/>
<path d="M119.171 74.6754C119.441 76.8582 117.439 78.903 113.732 79.3623C110.026 79.8216 107.584 78.3274 107.314 76.1447C107.043 73.9619 109.478 71.8635 112.753 71.4578C116.027 71.0521 118.9 72.4927 119.171 74.6754Z" fill="#F7F5FF"/>
<path d="M136.049 77.2358C135.37 79.3277 132.69 80.332 129.138 79.1785C125.585 78.0249 124.007 75.6375 124.686 73.5456C125.365 71.4537 128.46 70.5839 131.598 71.6029C134.736 72.6219 136.729 75.1439 136.049 77.2358Z" fill="#F7F5FF"/>
<path d="M151.622 85.9196C150.536 87.8324 147.709 88.2779 144.461 86.4343C141.213 84.5907 140.146 81.9349 141.231 80.0221C142.317 78.1093 145.523 77.8788 148.393 79.5073C151.262 81.1359 152.708 84.0067 151.622 85.9196Z" fill="#F7F5FF"/>
<path d="M156.265 116.887C155.842 119.046 153.302 120.365 149.637 119.646C145.972 118.928 144.118 116.748 144.541 114.589C144.964 112.431 147.931 111.196 151.169 111.83C154.406 112.465 156.688 114.729 156.265 116.887Z" fill="#F7F5FF"/>
<path d="M138.671 121.41C139.228 124.017 137.491 126.598 133.839 127.379C130.186 128.16 127.545 126.515 126.988 123.909C126.43 121.302 128.594 118.63 131.82 117.94C135.046 117.25 138.114 118.804 138.671 121.41Z" fill="#F7F5FF"/>
<path d="M104.03 117.092C104.145 119.755 102.002 122.01 98.2702 122.172C94.5389 122.333 92.2086 120.271 92.0934 117.608C91.9782 114.945 94.5568 112.671 97.8529 112.528C101.149 112.386 103.914 114.429 104.03 117.092Z" fill="#F7F5FF"/>
<path d="M91.4308 106.053C91.528 108.298 89.7205 110.2 86.574 110.337C83.4275 110.473 81.4626 108.734 81.3654 106.488C81.2682 104.243 83.4427 102.325 86.2221 102.205C89.0016 102.084 91.3336 103.807 91.4308 106.053Z" fill="#F7F5FF"/>
<path d="M92.5259 93.7924C92.6144 95.8394 90.3566 97.5996 86.4703 97.7677C82.584 97.9359 80.1825 96.3773 80.094 94.3304C80.0054 92.2834 82.7166 90.5036 86.1495 90.3551C89.5825 90.2065 92.4373 91.7455 92.5259 93.7924Z" fill="#F7F5FF"/>
<path d="M101.449 79.7079C101.924 81.443 100.315 83.3954 96.988 84.3058C93.6611 85.2162 91.2818 84.3554 90.807 82.6203C90.3322 80.8851 92.3297 78.8266 95.2685 78.0223C98.2073 77.2181 100.975 77.9728 101.449 79.7079Z" fill="#F7F5FF"/>
<path opacity="0.2" d="M52.543 171.162C52.543 170.851 52.7747 170.597 53.0852 170.585C58.0226 170.405 95.5768 169.065 120.245 169.065C144.914 169.065 182.468 170.405 187.406 170.585C187.716 170.597 187.948 170.851 187.948 171.162C187.948 171.489 187.695 171.752 187.368 171.74C182.279 171.555 144.852 170.221 120.245 170.221C95.6391 170.221 58.2122 171.555 53.1232 171.74C52.7959 171.752 52.543 171.489 52.543 171.162Z" fill="white"/>
<defs>
<linearGradient id="paint0_linear" x1="-0.00219751" y1="41.4976" x2="247.018" y2="41.4976" gradientUnits="userSpaceOnUse">
<stop stop-color="#FFCC67"/>
<stop offset="0.231373" stop-color="#FE785C"/>
<stop offset="0.501961" stop-color="#EA5BDA"/>
<stop offset="1" stop-color="#492AF3"/>
</linearGradient>
<linearGradient id="paint1_linear" x1="-0.00219751" y1="41.4976" x2="247.018" y2="41.4976" gradientUnits="userSpaceOnUse">
<stop stop-color="#FFCC67"/>
<stop offset="0.231373" stop-color="#FE785C"/>
<stop offset="0.501961" stop-color="#EA5BDA"/>
<stop offset="1" stop-color="#492AF3"/>
</linearGradient>
<linearGradient id="paint2_linear" x1="35.2269" y1="112.57" x2="211.697" y2="112.57" gradientUnits="userSpaceOnUse">
<stop stop-color="#FFCC67"/>
<stop offset="0.231373" stop-color="#FE785C"/>
<stop offset="0.501961" stop-color="#EA5BDA"/>
<stop offset="1" stop-color="#492AF3"/>
</linearGradient>
<linearGradient id="paint3_linear" x1="74.2511" y1="100.719" x2="171.766" y2="100.719" gradientUnits="userSpaceOnUse">
<stop stop-color="#FFCC67"/>
<stop offset="0.231373" stop-color="#FE785C"/>
<stop offset="0.501961" stop-color="#EA5BDA"/>
<stop offset="1" stop-color="#492AF3"/>
</linearGradient>
</defs>
</svg>
