<svg width="40" height="38" viewBox="0 0 40 38" fill="none" xmlns="http://www.w3.org/2000/svg">
<path d="M36.7467 7.38471C36.3107 6.79671 35.8795 6.20871 35.4999 5.61608L12.1956 18.8391L0.946521 12.4684C0.68834 13.1558 0.530521 13.876 0.47781 14.6074L12.3034 21.3717L36.7467 7.38471Z" fill="white"/>
<path d="M12.1956 23.8163L0.112217 16.964C0.0227996 17.3855 -0.0134105 17.8162 0.0044133 18.2465C0.0044133 23.4854 2.11129 28.5098 5.86156 32.2143C9.61183 35.9188 14.6983 38 20.002 38C25.3056 38 30.3921 35.9188 34.1424 32.2143C37.8926 28.5098 39.9995 23.4854 39.9995 18.2465C40.0219 15.1208 39.279 12.0361 37.8341 9.25519L12.1956 23.8163Z" fill="white"/>
<path d="M33.8735 3.95857C33.3039 3.42758 32.7063 2.92684 32.083 2.45848L12.1956 13.862L2.60576 8.45422C2.28235 9.04222 1.95425 9.68578 1.57459 10.3803L12.0878 16.376L33.8735 3.95857Z" fill="white"/>
<path d="M30.1331 1.176C29.3805 0.730901 28.5974 0.337957 27.7896 0L12.1956 8.87091L5.2071 4.97715C4.73839 5.44014 4.26968 6.04666 3.80097 6.63466L12.144 11.3479L30.1331 1.176Z" fill="white"/>
</svg>
