<svg xmlns="http://www.w3.org/2000/svg" width="20" height="11" viewBox="0 0 20 11"><g><g opacity=".3"><path fill="#fff" d="M9.785 10.954h1.196s.36-.038.545-.23c.17-.176.164-.506.164-.506s-.023-1.547.722-1.774c.733-.225 1.676 1.494 2.675 2.155.755.5 1.33.39 1.33.39l2.67-.035s1.397-.083.735-1.142c-.055-.087-.386-.784-1.986-2.215-1.675-1.5-1.45-1.257.567-3.849 1.228-1.579 1.72-2.542 1.566-2.955-.146-.393-1.05-.29-1.05-.29l-3.007.019s-.223-.03-.388.066c-.162.093-.266.31-.266.31s-.476 1.222-1.11 2.261c-1.34 2.193-1.875 2.308-2.094 2.172-.51-.317-.382-1.274-.382-1.954 0-2.125.334-3.01-.65-3.24-.328-.076-.568-.126-1.404-.135-1.073-.01-1.982.004-2.496.247C6.78.41 6.516.77 6.677.79c.199.025.649.117.888.43.308.404.297 1.312.297 1.312s.177 2.5-.414 2.812c-.405.213-.961-.222-2.155-2.211C4.681 2.114 4.219.989 4.219.989S4.13.779 3.972.666c-.193-.137-.463-.18-.463-.18L.652.504S.222.516.065.695c-.14.16-.01.491-.01.491s2.236 5.046 4.77 7.59c2.322 2.331 4.96 2.178 4.96 2.178z"/></g></g></svg>