<svg width="48" height="30" viewBox="0 0 48 30" fill="none" xmlns="http://www.w3.org/2000/svg">
<g opacity="0.2">
<path d="M19.7476 13.56C20.7437 13.059 21.4967 12.501 22.0128 11.898C22.9309 10.812 23.3839 9.372 23.3839 7.587C23.3839 5.85 22.9309 4.365 22.0248 3.12C20.5127 1.092 17.9535 0.054 14.3352 0H0V29.259H13.3661C14.8722 29.259 16.2673 29.13 17.5574 28.866C18.8475 28.599 19.9636 28.11 20.9087 27.396C21.7488 26.775 22.4508 26.004 23.0089 25.095C23.8909 23.721 24.332 22.164 24.332 20.43C24.332 18.75 23.9449 17.319 23.1769 16.143C22.3998 14.967 21.2597 14.106 19.7476 13.56ZM5.91348 5.082H12.37C13.7891 5.082 14.9592 5.235 15.8773 5.538C16.9394 5.979 17.4704 6.876 17.4704 8.244C17.4704 9.471 17.0654 10.329 16.2643 10.812C15.4573 11.295 14.4102 11.538 13.1261 11.538H5.91348V5.082ZM16.1233 23.667C15.4092 24.012 14.4042 24.183 13.1171 24.183H5.91348V16.38H13.2161C14.4882 16.389 15.4783 16.557 16.1863 16.872C17.4464 17.442 18.0735 18.486 18.0735 20.013C18.0735 21.813 17.4254 23.025 16.1233 23.667Z" fill="white"/>
<path d="M43.3865 1.365H30.6745V5.007H43.3865V1.365Z" fill="white"/>
<path d="M47.8029 15.738C47.5389 14.043 46.9568 12.552 46.0507 11.265C45.0577 9.807 43.7976 8.739 42.2644 8.064C40.7373 7.386 39.0182 7.047 37.104 7.05C33.8907 7.05 31.2805 8.055 29.2614 10.05C27.2482 12.051 26.2401 14.928 26.2401 18.678C26.2401 22.677 27.3532 25.566 29.5914 27.339C31.8206 29.115 34.3948 30 37.317 30C40.8543 30 43.6055 28.947 45.5707 26.847C46.8278 25.521 47.5389 24.216 47.6949 22.935H41.8384C41.4994 23.568 41.1063 24.063 40.6563 24.423C39.8402 25.083 38.7781 25.413 37.476 25.413C36.2369 25.413 35.1869 25.14 34.3108 24.597C32.8647 23.727 32.1086 22.203 32.0126 20.034H47.9949C48.0189 18.165 47.9589 16.728 47.8029 15.738ZM32.1566 16.299C32.3666 14.892 32.8767 13.776 33.6867 12.951C34.4968 12.129 35.6429 11.715 37.11 11.712C38.4631 11.712 39.5942 12.099 40.5153 12.876C41.4244 13.659 41.9374 14.796 42.0424 16.299H32.1566Z" fill="white"/>
</g>
</svg>
