<svg width="274" height="58" viewBox="0 0 274 58" fill="none" xmlns="http://www.w3.org/2000/svg">
<path d="M101.944 18.736H91.192V12.4H120.472V18.736H109.72V46H101.944V18.736ZM133.231 19.792C137.231 19.792 140.303 20.752 142.447 22.672C144.591 24.56 145.663 27.424 145.663 31.264V46H138.655V42.784C137.247 45.184 134.623 46.384 130.783 46.384C128.799 46.384 127.071 46.048 125.599 45.376C124.159 44.704 123.055 43.776 122.287 42.592C121.519 41.408 121.135 40.064 121.135 38.56C121.135 36.16 122.031 34.272 123.823 32.896C125.647 31.52 128.447 30.832 132.223 30.832H138.175C138.175 29.2 137.679 27.952 136.687 27.088C135.695 26.192 134.207 25.744 132.223 25.744C130.847 25.744 129.487 25.968 128.143 26.416C126.831 26.832 125.711 27.408 124.783 28.144L122.095 22.912C123.503 21.92 125.183 21.152 127.135 20.608C129.119 20.064 131.151 19.792 133.231 19.792ZM132.655 41.344C133.935 41.344 135.071 41.056 136.063 40.48C137.055 39.872 137.759 38.992 138.175 37.84V35.2H133.039C129.967 35.2 128.431 36.208 128.431 38.224C128.431 39.184 128.799 39.952 129.535 40.528C130.303 41.072 131.343 41.344 132.655 41.344ZM179.362 20.176V41.68C179.362 46.416 178.13 49.936 175.666 52.24C173.202 54.544 169.602 55.696 164.866 55.696C162.37 55.696 160.002 55.392 157.762 54.784C155.522 54.176 153.666 53.296 152.194 52.144L155.17 46.768C156.258 47.664 157.634 48.368 159.298 48.88C160.962 49.424 162.626 49.696 164.29 49.696C166.882 49.696 168.786 49.104 170.002 47.92C171.25 46.768 171.874 45.008 171.874 42.64V41.536C169.922 43.68 167.202 44.752 163.714 44.752C161.346 44.752 159.17 44.24 157.186 43.216C155.234 42.16 153.682 40.688 152.53 38.8C151.378 36.912 150.802 34.736 150.802 32.272C150.802 29.808 151.378 27.632 152.53 25.744C153.682 23.856 155.234 22.4 157.186 21.376C159.17 20.32 161.346 19.792 163.714 19.792C167.458 19.792 170.306 21.024 172.258 23.488V20.176H179.362ZM165.202 38.608C167.186 38.608 168.802 38.032 170.05 36.88C171.33 35.696 171.97 34.16 171.97 32.272C171.97 30.384 171.33 28.864 170.05 27.712C168.802 26.528 167.186 25.936 165.202 25.936C163.218 25.936 161.586 26.528 160.306 27.712C159.026 28.864 158.386 30.384 158.386 32.272C158.386 34.16 159.026 35.696 160.306 36.88C161.586 38.032 163.218 38.608 165.202 38.608ZM212.875 39.76V46H186.859V12.4H212.251V18.64H194.587V25.936H210.187V31.984H194.587V39.76H212.875ZM233.798 19.792C236.198 19.792 238.374 20.352 240.326 21.472C242.31 22.56 243.862 24.112 244.982 26.128C246.102 28.112 246.662 30.432 246.662 33.088C246.662 35.744 246.102 38.08 244.982 40.096C243.862 42.08 242.31 43.632 240.326 44.752C238.374 45.84 236.198 46.384 233.798 46.384C230.502 46.384 227.91 45.344 226.022 43.264V55.312H218.534V20.176H225.686V23.152C227.542 20.912 230.246 19.792 233.798 19.792ZM232.502 40.24C234.422 40.24 235.99 39.6 237.206 38.32C238.454 37.008 239.078 35.264 239.078 33.088C239.078 30.912 238.454 29.184 237.206 27.904C235.99 26.592 234.422 25.936 232.502 25.936C230.582 25.936 228.998 26.592 227.75 27.904C226.534 29.184 225.926 30.912 225.926 33.088C225.926 35.264 226.534 37.008 227.75 38.32C228.998 39.6 230.582 40.24 232.502 40.24ZM260.363 46.384C258.219 46.384 256.123 46.128 254.075 45.616C252.027 45.072 250.395 44.4 249.179 43.6L251.675 38.224C252.827 38.96 254.219 39.568 255.851 40.048C257.483 40.496 259.083 40.72 260.651 40.72C263.819 40.72 265.403 39.936 265.403 38.368C265.403 37.632 264.971 37.104 264.107 36.784C263.243 36.464 261.915 36.192 260.123 35.968C258.011 35.648 256.267 35.28 254.891 34.864C253.515 34.448 252.315 33.712 251.291 32.656C250.299 31.6 249.803 30.096 249.803 28.144C249.803 26.512 250.267 25.072 251.195 23.824C252.155 22.544 253.531 21.552 255.323 20.848C257.147 20.144 259.291 19.792 261.755 19.792C263.579 19.792 265.387 20 267.179 20.416C269.003 20.8 270.507 21.344 271.691 22.048L269.195 27.376C266.923 26.096 264.443 25.456 261.755 25.456C260.155 25.456 258.955 25.68 258.155 26.128C257.355 26.576 256.955 27.152 256.955 27.856C256.955 28.656 257.387 29.216 258.251 29.536C259.115 29.856 260.491 30.16 262.379 30.448C264.491 30.8 266.219 31.184 267.563 31.6C268.907 31.984 270.075 32.704 271.067 33.76C272.059 34.816 272.555 36.288 272.555 38.176C272.555 39.776 272.075 41.2 271.115 42.448C270.155 43.696 268.747 44.672 266.891 45.376C265.067 46.048 262.891 46.384 260.363 46.384Z" fill="white"/>
<path d="M8.57461 22.5814H0V15H27.0205V22.5814H18.4459V44H8.57461V22.5814Z" fill="white"/>
<path d="M51 36.6257V44H26.6565V15H50.4562V22.3743H36.3604V25.7714H48.7413V32.8143H36.3604V36.6257H51Z" fill="white"/>
</svg>
