<svg width="329" height="49" viewBox="0 0 329 49" fill="none" xmlns="http://www.w3.org/2000/svg">
<path d="M107.531 39H100.266V10.7812H90.9609V4.73444H116.836V10.7812H107.531V39ZM145.734 19.6641C145.734 21.0703 145.289 22.2734 144.398 23.2734C143.523 24.2578 142.227 24.8906 140.508 25.1719V25.3594C142.367 25.5781 143.836 26.2188 144.914 27.2812C146.008 28.3281 146.555 29.625 146.555 31.1719C146.555 33.7188 145.555 35.6641 143.555 37.0078C141.555 38.3359 138.695 39 134.977 39H121.547V12.7969H134.977C138.57 12.7969 141.258 13.3828 143.039 14.5547C144.836 15.7109 145.734 17.4141 145.734 19.6641ZM139.148 30.7969C139.148 29.7656 138.75 29.0234 137.953 28.5703C137.156 28.1016 135.961 27.8672 134.367 27.8672H128.695V34.0547H134.508C136.023 34.0547 137.172 33.7734 137.953 33.2109C138.75 32.6328 139.148 31.8281 139.148 30.7969ZM138.492 20.2266C138.492 18.6328 137.227 17.8359 134.695 17.8359H128.695V23.0156H133.875C135.391 23.0156 136.539 22.7969 137.32 22.3594C138.102 21.9219 138.492 21.2109 138.492 20.2266ZM157.945 25.8516C157.945 28.4453 158.367 30.4062 159.211 31.7344C160.07 33.0625 161.461 33.7266 163.383 33.7266C165.289 33.7266 166.656 33.0703 167.484 31.7578C168.328 30.4297 168.75 28.4609 168.75 25.8516C168.75 23.2578 168.328 21.3125 167.484 20.0156C166.641 18.7188 165.258 18.0703 163.336 18.0703C161.43 18.0703 160.055 18.7188 159.211 20.0156C158.367 21.2969 157.945 23.2422 157.945 25.8516ZM176.062 25.8516C176.062 30.1172 174.938 33.4531 172.688 35.8594C170.438 38.2656 167.305 39.4688 163.289 39.4688C160.773 39.4688 158.555 38.9219 156.633 37.8281C154.711 36.7188 153.234 35.1328 152.203 33.0703C151.172 31.0078 150.656 28.6016 150.656 25.8516C150.656 21.5703 151.773 18.2422 154.008 15.8672C156.242 13.4922 159.383 12.3047 163.43 12.3047C165.945 12.3047 168.164 12.8516 170.086 13.9453C172.008 15.0391 173.484 16.6094 174.516 18.6562C175.547 20.7031 176.062 23.1016 176.062 25.8516ZM188.883 12.7969V23.1562C188.883 24.25 188.703 26.9219 188.344 31.1719L200.438 12.7969H209.039V39H202.125V28.5469C202.125 26.6875 202.281 24.0625 202.594 20.6719L190.547 39H181.969V12.7969H188.883ZM206.93 1.52344C206.633 4.44534 205.531 6.57814 203.625 7.92194C201.719 9.25004 198.969 9.91414 195.375 9.91414C191.672 9.91414 188.93 9.27344 187.148 7.99224C185.383 6.71094 184.391 4.55474 184.172 1.52344H190.57C190.68 3.13284 191.078 4.26564 191.766 4.92194C192.469 5.56254 193.719 5.88284 195.516 5.88284C197.094 5.88284 198.266 5.53124 199.031 4.82814C199.812 4.10944 200.289 3.00784 200.461 1.52344H206.93ZM225.516 32.9531H228.164C230.43 28.4219 232.219 23.8984 233.531 19.3828C234.844 14.8516 235.82 9.96884 236.461 4.73444H256.43V32.9531H261V48.9844H253.992V39H232.523V48.9844H225.516V32.9531ZM242.227 10.7812C241.727 14.3594 240.891 18.1484 239.719 22.1484C238.562 26.1484 237.258 29.75 235.805 32.9531H249.188V10.7812H242.227ZM271.43 25.8516C271.43 28.4453 271.852 30.4062 272.695 31.7344C273.555 33.0625 274.945 33.7266 276.867 33.7266C278.773 33.7266 280.141 33.0703 280.969 31.7578C281.812 30.4297 282.234 28.4609 282.234 25.8516C282.234 23.2578 281.812 21.3125 280.969 20.0156C280.125 18.7188 278.742 18.0703 276.82 18.0703C274.914 18.0703 273.539 18.7188 272.695 20.0156C271.852 21.2969 271.43 23.2422 271.43 25.8516ZM289.547 25.8516C289.547 30.1172 288.422 33.4531 286.172 35.8594C283.922 38.2656 280.789 39.4688 276.773 39.4688C274.258 39.4688 272.039 38.9219 270.117 37.8281C268.195 36.7188 266.719 35.1328 265.688 33.0703C264.656 31.0078 264.141 28.6016 264.141 25.8516C264.141 21.5703 265.258 18.2422 267.492 15.8672C269.727 13.4922 272.867 12.3047 276.914 12.3047C279.43 12.3047 281.648 12.8516 283.57 13.9453C285.492 15.0391 286.969 16.6094 288 18.6562C289.031 20.7031 289.547 23.1016 289.547 25.8516ZM328.477 39H321.797V18.3516L321.422 19.8047C320.578 23.1016 319.82 25.5938 319.148 27.2812L314.508 39H309.422L304.711 27.1875C304.039 25.4688 303.32 23.0547 302.555 19.9453L302.109 18.3516V39H295.453V12.7969H305.297L309.797 23.9766C310.266 25.1797 310.695 26.5625 311.086 28.125C311.492 29.6875 311.766 31.0234 311.906 32.1328C312.422 29.7891 312.82 28.1094 313.102 27.0938C313.398 26.0625 313.719 25.1172 314.062 24.2578C314.406 23.3984 315.961 19.5781 318.727 12.7969H328.477V39Z" fill="white"/>
<path d="M25.1214 0.878677C23.9498 -0.292892 22.0504 -0.292892 20.8788 0.878677L1.78689 19.9706C0.615309 21.1421 0.615309 23.0416 1.78689 24.2132C2.95846 25.3848 4.85795 25.3848 6.02952 24.2132L23.0001 7.2426L39.9707 24.2132C41.1422 25.3848 43.0417 25.3848 44.2133 24.2132C45.3849 23.0416 45.3849 21.1421 44.2133 19.9706L25.1214 0.878677ZM20.0001 37C20.0001 38.6569 21.3432 40 23.0001 40C24.657 40 26.0001 38.6569 26.0001 37H20.0001ZM20.0001 3V37H26.0001V3H20.0001Z" fill="white"/>
</svg>
