<svg width="336" height="76" viewBox="0 0 336 76" fill="none" xmlns="http://www.w3.org/2000/svg">
<rect y="18.979" width="11.2323" height="51.5138" fill="#028087"/>
<path d="M11.2324 41.4434H25.757L44.1548 70.4925H29.6302L11.2324 41.4434Z" fill="#58BDAD"/>
<path fill-rule="evenodd" clip-rule="evenodd" d="M34.0843 34.4719C38.3625 34.4719 41.8308 31.0037 41.8308 26.7254C41.8308 22.4472 38.3625 18.979 34.0843 18.979C29.8061 18.979 26.3379 22.4472 26.3379 26.7254C26.3379 31.0037 29.8061 34.4719 34.0843 34.4719ZM34.0843 31.567C36.7582 31.567 38.9258 29.3993 38.9258 26.7254C38.9258 24.0515 36.7582 21.8839 34.0843 21.8839C31.4104 21.8839 29.2428 24.0515 29.2428 26.7254C29.2428 29.3993 31.4104 31.567 34.0843 31.567Z" fill="#FDED00"/>
<path fill-rule="evenodd" clip-rule="evenodd" d="M36.8931 9.48938C39.5135 9.48938 41.6378 7.36511 41.6378 4.74469C41.6378 2.12427 39.5135 0 36.8931 0C34.2727 0 32.1484 2.12427 32.1484 4.74469C32.1484 7.36511 34.2727 9.48938 36.8931 9.48938ZM36.8931 7.35911C38.3371 7.35911 39.5075 6.18859 39.5075 4.74469C39.5075 3.30078 38.3371 2.13027 36.8931 2.13027C35.4492 2.13027 34.2787 3.30078 34.2787 4.74469C34.2787 6.18859 35.4492 7.35911 36.8931 7.35911Z" fill="#FDED00"/>
<path fill-rule="evenodd" clip-rule="evenodd" d="M49.2872 23.0456C52.4424 23.0456 55.0002 20.4878 55.0002 17.3326C55.0002 14.1774 52.4424 11.6196 49.2872 11.6196C46.132 11.6196 43.5742 14.1774 43.5742 17.3326C43.5742 20.4878 46.132 23.0456 49.2872 23.0456ZM49.2872 20.7217C51.159 20.7217 52.6763 19.2044 52.6763 17.3326C52.6763 15.4609 51.159 13.9436 49.2872 13.9436C47.4155 13.9436 45.8981 15.4609 45.8981 17.3326C45.8981 19.2044 47.4155 20.7217 49.2872 20.7217Z" fill="#FDED00"/>
<path d="M123.25 64H115L102.578 46.6328V64H95.3125V29.7344H102.578V46.3281L114.859 29.7344H122.594L110.102 46.1875L123.25 64ZM133.914 37.7969V48.1562C133.914 49.25 133.734 51.9219 133.375 56.1719L145.469 37.7969H154.07V64H147.156V53.5469C147.156 51.6875 147.312 49.0625 147.625 45.6719L135.578 64H127V37.7969H133.914ZM172.234 64.4688C164.078 64.4688 160 59.9922 160 51.0391C160 46.5859 161.109 43.1875 163.328 40.8438C165.547 38.4844 168.727 37.3047 172.867 37.3047C175.898 37.3047 178.617 37.8984 181.023 39.0859L178.914 44.6172C177.789 44.1641 176.742 43.7969 175.773 43.5156C174.805 43.2188 173.836 43.0703 172.867 43.0703C169.148 43.0703 167.289 45.7109 167.289 50.9922C167.289 56.1172 169.148 58.6797 172.867 58.6797C174.242 58.6797 175.516 58.5 176.688 58.1406C177.859 57.7656 179.031 57.1875 180.203 56.4062V62.5234C179.047 63.2578 177.875 63.7656 176.688 64.0469C175.516 64.3281 174.031 64.4688 172.234 64.4688ZM209.758 64H202.609V43.1641H196.023C195.523 49.0234 194.914 53.3984 194.195 56.2891C193.477 59.1641 192.516 61.25 191.312 62.5469C190.125 63.8281 188.562 64.4688 186.625 64.4688C184.969 64.4688 183.609 64.2188 182.547 63.7188V58C183.312 58.3125 184.078 58.4688 184.844 58.4688C185.734 58.4688 186.477 57.8281 187.07 56.5469C187.68 55.2656 188.219 53.1328 188.688 50.1484C189.172 47.1484 189.586 43.0312 189.93 37.7969H209.758V64ZM222.977 50.8516C222.977 53.4453 223.398 55.4062 224.242 56.7344C225.102 58.0625 226.492 58.7266 228.414 58.7266C230.32 58.7266 231.688 58.0703 232.516 56.7578C233.359 55.4297 233.781 53.4609 233.781 50.8516C233.781 48.2578 233.359 46.3125 232.516 45.0156C231.672 43.7188 230.289 43.0703 228.367 43.0703C226.461 43.0703 225.086 43.7188 224.242 45.0156C223.398 46.2969 222.977 48.2422 222.977 50.8516ZM241.094 50.8516C241.094 55.1172 239.969 58.4531 237.719 60.8594C235.469 63.2656 232.336 64.4688 228.32 64.4688C225.805 64.4688 223.586 63.9219 221.664 62.8281C219.742 61.7188 218.266 60.1328 217.234 58.0703C216.203 56.0078 215.688 53.6016 215.688 50.8516C215.688 46.5703 216.805 43.2422 219.039 40.8672C221.273 38.4922 224.414 37.3047 228.461 37.3047C230.977 37.3047 233.195 37.8516 235.117 38.9453C237.039 40.0391 238.516 41.6094 239.547 43.6562C240.578 45.7031 241.094 48.1016 241.094 50.8516ZM261.391 64.4688C258.312 64.4688 255.898 63.3516 254.148 61.1172H253.773C254.023 63.3047 254.148 64.5703 254.148 64.9141V75.5312H247V37.7969H252.812L253.82 41.1953H254.148C255.82 38.6016 258.297 37.3047 261.578 37.3047C264.672 37.3047 267.094 38.5 268.844 40.8906C270.594 43.2812 271.469 46.6016 271.469 50.8516C271.469 53.6484 271.055 56.0781 270.227 58.1406C269.414 60.2031 268.25 61.7734 266.734 62.8516C265.219 63.9297 263.438 64.4688 261.391 64.4688ZM259.281 43.0234C257.516 43.0234 256.227 43.5703 255.414 44.6641C254.602 45.7422 254.18 47.5312 254.148 50.0312V50.8047C254.148 53.6172 254.562 55.6328 255.391 56.8516C256.234 58.0703 257.562 58.6797 259.375 58.6797C262.578 58.6797 264.18 56.0391 264.18 50.7578C264.18 48.1797 263.781 46.25 262.984 44.9688C262.203 43.6719 260.969 43.0234 259.281 43.0234ZM283.07 50.8516C283.07 53.4453 283.492 55.4062 284.336 56.7344C285.195 58.0625 286.586 58.7266 288.508 58.7266C290.414 58.7266 291.781 58.0703 292.609 56.7578C293.453 55.4297 293.875 53.4609 293.875 50.8516C293.875 48.2578 293.453 46.3125 292.609 45.0156C291.766 43.7188 290.383 43.0703 288.461 43.0703C286.555 43.0703 285.18 43.7188 284.336 45.0156C283.492 46.2969 283.07 48.2422 283.07 50.8516ZM301.188 50.8516C301.188 55.1172 300.062 58.4531 297.812 60.8594C295.562 63.2656 292.43 64.4688 288.414 64.4688C285.898 64.4688 283.68 63.9219 281.758 62.8281C279.836 61.7188 278.359 60.1328 277.328 58.0703C276.297 56.0078 275.781 53.6016 275.781 50.8516C275.781 46.5703 276.898 43.2422 279.133 40.8672C281.367 38.4922 284.508 37.3047 288.555 37.3047C291.07 37.3047 293.289 37.8516 295.211 38.9453C297.133 40.0391 298.609 41.6094 299.641 43.6562C300.672 45.7031 301.188 48.1016 301.188 50.8516ZM323.5 58.7734V43.1641H318.133C317.742 46.0703 317.203 48.8281 316.516 51.4375C315.844 54.0469 314.906 56.4922 313.703 58.7734H323.5ZM334.492 73.3984H328.07V64H310.445V73.3984H304.023V58.7734H306.227C307.727 56.4453 308.984 53.5078 310 49.9609C311.016 46.4141 311.727 42.3594 312.133 37.7969H330.648V58.7734H334.492V73.3984Z" fill="white"/>
</svg>
