<svg width="560" height="460" viewBox="0 0 560 460" fill="none" xmlns="http://www.w3.org/2000/svg">
<path d="M22.6696 185.057C37.9312 199.965 162.33 157.387 162.912 139.62C163.495 121.853 158.541 116.843 145.145 92.2903C131.75 67.7377 274.757 63.7465 280 62.7272C285.243 61.7079 280 0.105779 280 0.105779C183.415 -1.78614 36.6109 22.1554 22.6696 35.4942C12.6637 39.0668 -6.14929 107.104 1.98993 151.417C10.0658 165.748 7.40797 170.15 22.6696 185.057Z" fill="url(#paint0_linear)"/>
<path d="M537.33 185.057C522.069 199.965 397.67 157.387 397.087 139.62C396.505 121.853 401.459 116.843 414.855 92.2903C428.25 67.7377 284.951 63.164 280 62.7272C275.049 62.2904 280 0.105779 280 0.105779C376.585 -1.78614 523.389 22.1554 537.33 35.4942C547.336 39.0668 566.149 107.104 558.01 151.417C549.934 165.748 552.592 170.15 537.33 185.057Z" fill="url(#paint1_linear)"/>
<path opacity="0.2" d="M143.179 92.5425C95.2663 122.505 64.6419 135.165 3.49219 150.163" stroke="white" stroke-width="4" stroke-linecap="round"/>
<path opacity="0.2" d="M413.821 97.7808C461.734 127.743 492.358 140.403 553.508 155.402" stroke="white" stroke-width="4" stroke-linecap="round"/>
<path d="M345.869 68.0096V85.0436H279.903H213.937V68.0096C213.937 60.4465 207.805 54.3154 200.242 54.3154H184.733C177.685 54.3154 171.788 59.6647 171.103 66.6792L165.847 120.525C165.678 122.254 164.856 123.809 163.563 124.868C158.681 128.866 149.297 136.27 142.011 140.402C134.88 144.446 123.912 148.673 118.298 150.728C115.382 151.796 112.744 153.836 111.213 156.846C106.679 165.757 95.1269 192.13 89.7271 238.283C83.7407 289.449 77.8864 403.591 76.3876 434.044C76.0845 440.203 79.9888 445.774 86.1239 447.276C90.6421 448.382 97.2345 449.833 106.137 451.408C111.174 452.299 124.668 453.011 141.668 453.601C158.818 454.196 179.893 454.674 200.361 455.047C220.832 455.42 240.709 455.689 255.468 455.864C262.848 455.952 268.948 456.016 273.204 456.059C275.332 456.08 276.999 456.096 278.134 456.106L279.429 456.118L279.76 456.121L279.844 456.121L279.866 456.122L279.871 456.122C279.872 456.122 279.873 456.122 279.903 452.622L279.873 456.122L279.903 456.122L279.932 456.122L279.926 455.362C279.933 456.122 279.933 456.122 279.934 456.122L279.94 456.122L279.961 456.121L280.045 456.121L280.377 456.118L281.671 456.106C282.806 456.096 284.473 456.08 286.601 456.059C290.857 456.016 296.958 455.952 304.337 455.864C319.096 455.689 338.974 455.42 359.445 455.047C379.913 454.674 400.988 454.196 418.137 453.601C435.137 453.011 448.631 452.299 453.668 451.408C462.571 449.833 469.163 448.382 473.681 447.276C479.816 445.774 483.721 440.203 483.418 434.044C481.919 403.591 476.065 289.449 470.078 238.283C464.678 192.13 453.126 165.757 448.592 156.846C447.061 153.836 444.424 151.796 441.507 150.728C435.894 148.673 424.926 144.446 417.794 140.402C410.509 136.27 401.124 128.866 396.242 124.868C394.949 123.809 394.127 122.254 393.958 120.525L388.702 66.6792C388.017 59.6647 382.12 54.3154 375.073 54.3154H359.563C352 54.3154 345.869 60.4465 345.869 68.0096Z" fill="url(#paint2_linear)" stroke="#120B31" stroke-width="7"/>
<rect opacity="0.2" x="204.609" y="93.2109" width="3.28556" height="39.3946" rx="1.64278" transform="rotate(48.1024 204.609 93.2109)" fill="white"/>
<path opacity="0.2" d="M353.336 94.9301C352.678 94.5346 352.496 93.6631 352.94 93.0369C353.339 92.4739 354.104 92.3136 354.696 92.6692L368.323 100.863C369.071 101.312 369.783 101.819 370.453 102.377L382.071 112.068C382.599 112.509 382.7 113.282 382.302 113.843C381.857 114.471 380.972 114.586 380.381 114.093L368.819 104.449C368.218 103.948 367.58 103.494 366.91 103.091L353.336 94.9301Z" fill="white"/>
<path opacity="0.8" d="M438.642 240.291C438.642 298.683 378.767 346.02 278.884 346.02C179.002 346.02 119.127 298.683 119.127 240.291C119.127 181.899 190.653 134.563 278.884 134.563C367.116 134.563 438.642 181.899 438.642 240.291Z" fill="white"/>
<path d="M389.418 228.35C389.418 268.725 347.991 301.456 278.884 301.456C209.777 301.456 168.35 268.725 168.35 228.35C168.35 187.974 217.837 155.243 278.884 155.243C339.93 155.243 389.418 187.974 389.418 228.35Z" fill="url(#paint3_linear)"/>
<path opacity="0.8" d="M324.174 224.417C324.174 240.906 307.2 254.272 278.883 254.272C250.566 254.272 233.592 240.906 233.592 224.417C233.592 207.929 253.869 194.563 278.883 194.563C303.897 194.563 324.174 207.929 324.174 224.417Z" fill="white"/>
<path d="M343.966 235.817C342.32 235.544 341.525 237.76 342.971 238.595L360.181 248.539C361.397 249.242 362.778 249.612 364.183 249.612H381.799C384.898 249.612 387.507 251.93 387.873 255.007C388.562 260.811 396.221 262.434 399.205 257.408L401.862 252.933C403.106 250.838 403.311 248.285 402.417 246.019L400.207 240.411C398.836 236.934 395.241 234.87 391.548 235.438L366.943 239.223C366.105 239.352 365.253 239.347 364.417 239.209L343.966 235.817Z" fill="white"/>
<path d="M269.652 275.457C270.915 281.367 266.976 287.219 258.696 288.99C250.415 290.76 244.427 287.031 243.163 281.122C241.899 275.212 246.805 269.153 254.119 267.589C261.434 266.025 268.388 269.548 269.652 275.457Z" fill="#F7F5FF"/>
<path d="M270.189 169.304C270.803 174.253 266.262 178.889 257.859 179.931C249.455 180.972 243.921 177.584 243.308 172.635C242.694 167.687 248.215 162.929 255.638 162.009C263.061 161.089 269.576 164.356 270.189 169.304Z" fill="#F7F5FF"/>
<path d="M308.455 175.109C306.914 179.852 300.838 182.129 292.784 179.513C284.731 176.898 281.151 171.485 282.692 166.742C284.232 162 291.248 160.028 298.362 162.338C305.476 164.648 309.995 170.366 308.455 175.109Z" fill="#F7F5FF"/>
<path d="M343.761 194.796C341.299 199.132 334.889 200.142 327.525 195.963C320.161 191.783 317.742 185.762 320.203 181.425C322.665 177.088 329.934 176.565 336.439 180.258C342.944 183.95 346.222 190.459 343.761 194.796Z" fill="#F7F5FF"/>
<path d="M354.284 265.007C353.325 269.9 347.566 272.891 339.257 271.262C330.947 269.633 326.743 264.69 327.703 259.797C328.662 254.903 335.39 252.102 342.73 253.541C350.071 254.98 355.243 260.113 354.284 265.007Z" fill="#F7F5FF"/>
<path d="M314.4 275.261C315.663 281.171 311.724 287.023 303.444 288.793C295.163 290.564 289.175 286.835 287.911 280.925C286.647 275.016 291.553 268.957 298.867 267.393C306.182 265.829 313.136 269.351 314.4 275.261Z" fill="#F7F5FF"/>
<path d="M235.859 265.471C236.121 271.508 231.261 276.622 222.801 276.988C214.342 277.354 209.059 272.679 208.797 266.642C208.536 260.604 214.382 255.448 221.855 255.124C229.328 254.801 235.598 259.433 235.859 265.471Z" fill="#F7F5FF"/>
<path d="M207.297 240.443C207.518 245.534 203.42 249.846 196.286 250.155C189.152 250.464 184.697 246.522 184.477 241.43C184.257 236.339 189.187 231.991 195.488 231.718C201.79 231.446 207.077 235.352 207.297 240.443Z" fill="#F7F5FF"/>
<path d="M209.778 212.646C209.979 217.287 204.86 221.277 196.049 221.659C187.238 222.04 181.793 218.506 181.592 213.865C181.391 209.225 187.538 205.189 195.321 204.853C203.105 204.516 209.577 208.005 209.778 212.646Z" fill="#F7F5FF"/>
<path d="M230.008 180.714C231.084 184.648 227.435 189.075 219.892 191.139C212.35 193.203 206.955 191.251 205.879 187.317C204.802 183.383 209.331 178.716 215.994 176.893C222.657 175.07 228.931 176.781 230.008 180.714Z" fill="#F7F5FF"/>
<path opacity="0.2" d="M119.127 388.058C119.127 387.354 119.652 386.777 120.356 386.751C131.55 386.343 216.694 383.304 272.622 383.304C328.551 383.304 413.694 386.343 424.888 386.751C425.592 386.777 426.118 387.354 426.118 388.058C426.118 388.801 425.544 389.396 424.802 389.369C413.264 388.949 328.41 385.926 272.622 385.926C216.835 385.926 131.98 388.949 120.443 389.369C119.7 389.396 119.127 388.801 119.127 388.058Z" fill="white"/>
<defs>
<linearGradient id="paint0_linear" x1="-0.00498221" y1="94.0836" x2="560.04" y2="94.0836" gradientUnits="userSpaceOnUse">
<stop stop-color="#FFCC67"/>
<stop offset="0.231373" stop-color="#FE785C"/>
<stop offset="0.501961" stop-color="#EA5BDA"/>
<stop offset="1" stop-color="#492AF3"/>
</linearGradient>
<linearGradient id="paint1_linear" x1="-0.00498221" y1="94.0836" x2="560.04" y2="94.0836" gradientUnits="userSpaceOnUse">
<stop stop-color="#FFCC67"/>
<stop offset="0.231373" stop-color="#FE785C"/>
<stop offset="0.501961" stop-color="#EA5BDA"/>
<stop offset="1" stop-color="#492AF3"/>
</linearGradient>
<linearGradient id="paint2_linear" x1="79.8675" y1="255.219" x2="479.963" y2="255.219" gradientUnits="userSpaceOnUse">
<stop stop-color="#FFCC67"/>
<stop offset="0.231373" stop-color="#FE785C"/>
<stop offset="0.501961" stop-color="#EA5BDA"/>
<stop offset="1" stop-color="#492AF3"/>
</linearGradient>
<linearGradient id="paint3_linear" x1="168.348" y1="228.35" x2="389.434" y2="228.35" gradientUnits="userSpaceOnUse">
<stop stop-color="#FFCC67"/>
<stop offset="0.231373" stop-color="#FE785C"/>
<stop offset="0.501961" stop-color="#EA5BDA"/>
<stop offset="1" stop-color="#492AF3"/>
</linearGradient>
</defs>
</svg>
