<svg width="1920" height="5846" viewBox="0 0 1920 5846" fill="none" xmlns="http://www.w3.org/2000/svg">
<g clip-path="url(#clip0)">
<rect width="1920" height="5846" fill="#120B31"/>
<path opacity="0.02" fill-rule="evenodd" clip-rule="evenodd" d="M599.583 1029.26C549.408 1051.2 514.912 1101.35 514.912 1159.86C514.912 1238.22 578.676 1303 658.121 1303C737.565 1303 802.374 1237.18 800.284 1157.77C803.42 1052.25 858.821 971.797 942.447 919.556V918.512C990.531 895.526 1022.94 845.375 1022.94 790C1022.94 736.715 994.713 688.654 947.673 663.579C864.048 613.428 806.556 523.574 801.329 420.139C801.329 341.778 736.519 277 658.121 277C578.676 277 514.912 341.778 514.912 420.139C514.912 473.424 544.181 520.44 588.084 544.471C778.332 648.951 790.876 918.512 599.583 1029.26ZM343.48 690.744C343.48 677.161 348.707 666.713 357.069 657.31C364.387 651.041 371.704 646.862 381.112 644.772C385.293 643.727 390.519 642.683 395.746 642.683C410.381 642.683 430.242 649.996 440.695 659.399L528.501 748.208C540 758.656 545.226 773.283 545.226 786.866C545.226 801.493 540 816.121 528.501 826.569L434.423 920.601C427.106 927.915 416.652 933.139 406.199 936.273C398.882 937.318 391.565 937.318 384.248 936.273C370.658 934.184 359.16 926.87 350.797 914.332C346.616 907.019 343.48 898.66 343.48 889.257V690.744ZM212.816 277C134.417 277 70.6525 341.778 70.6525 420.139C70.6525 499.544 134.417 563.277 212.816 563.277C292.26 563.277 356.024 499.544 356.024 420.139C356.024 341.778 292.26 277 212.816 277ZM212.816 1016.72C134.417 1016.72 70.6525 1080.46 70.6525 1159.86C70.6525 1238.22 134.417 1303 212.816 1303C292.26 1303 356.024 1238.22 356.024 1159.86C356.024 1080.46 292.26 1016.72 212.816 1016.72ZM-8.79158 646.862C-88.2357 646.862 -152 711.64 -152 790C-152 869.406 -88.2357 933.139 -8.79158 933.139C69.6072 933.139 133.372 869.406 133.372 790C133.372 711.64 69.6072 646.862 -8.79158 646.862Z" fill="white"/>
<path opacity="0.02" fill-rule="evenodd" clip-rule="evenodd" d="M1648.98 2778.26C1598.85 2800.2 1564.38 2850.35 1564.38 2908.86C1564.38 2987.22 1628.09 3052 1707.48 3052C1786.86 3052 1851.61 2986.18 1849.52 2906.77C1852.66 2801.25 1908.02 2720.8 1991.57 2668.56V2667.51C2039.62 2644.53 2072 2594.38 2072 2539C2072 2485.72 2043.8 2437.65 1996.8 2412.58C1913.24 2362.43 1855.79 2272.58 1850.57 2169.14C1850.57 2090.78 1785.81 2026 1707.48 2026C1628.09 2026 1564.38 2090.78 1564.38 2169.14C1564.38 2222.42 1593.63 2269.44 1637.49 2293.47C1827.59 2397.95 1840.12 2667.51 1648.98 2778.26ZM1393.09 2439.74C1393.09 2426.16 1398.31 2415.71 1406.66 2406.31C1413.98 2400.04 1421.29 2395.86 1430.69 2393.77C1434.86 2392.73 1440.09 2391.68 1445.31 2391.68C1459.93 2391.68 1479.78 2399 1490.22 2408.4L1577.96 2497.21C1589.45 2507.66 1594.67 2522.28 1594.67 2535.87C1594.67 2550.49 1589.45 2565.12 1577.96 2575.57L1483.96 2669.6C1476.64 2676.92 1466.2 2682.14 1455.75 2685.27C1448.44 2686.32 1441.13 2686.32 1433.82 2685.27C1420.24 2683.18 1408.75 2675.87 1400.4 2663.33C1396.22 2656.02 1393.09 2647.66 1393.09 2638.26V2439.74ZM1262.52 2026C1184.19 2026 1120.48 2090.78 1120.48 2169.14C1120.48 2248.54 1184.19 2312.28 1262.52 2312.28C1341.91 2312.28 1405.62 2248.54 1405.62 2169.14C1405.62 2090.78 1341.91 2026 1262.52 2026ZM1262.52 2765.72C1184.19 2765.72 1120.48 2829.46 1120.48 2908.86C1120.48 2987.22 1184.19 3052 1262.52 3052C1341.91 3052 1405.62 2987.22 1405.62 2908.86C1405.62 2829.46 1341.91 2765.72 1262.52 2765.72ZM1041.09 2395.86C961.714 2395.86 898 2460.64 898 2539C898 2618.41 961.714 2682.14 1041.09 2682.14C1119.43 2682.14 1183.14 2618.41 1183.14 2539C1183.14 2460.64 1119.43 2395.86 1041.09 2395.86Z" fill="white"/>
<path opacity="0.02" fill-rule="evenodd" clip-rule="evenodd" d="M598.984 4527.26C548.849 4549.2 514.381 4599.35 514.381 4657.86C514.381 4736.22 578.094 4801 657.475 4801C736.856 4801 801.614 4735.18 799.525 4655.77C802.658 4550.25 858.016 4469.8 941.575 4417.56V4416.51C989.621 4393.53 1022 4343.38 1022 4288C1022 4234.72 993.799 4186.66 946.797 4161.58C863.238 4111.43 805.792 4021.58 800.569 3918.14C800.569 3839.78 735.811 3775 657.475 3775C578.094 3775 514.381 3839.78 514.381 3918.14C514.381 3971.42 543.626 4018.44 587.495 4042.47C777.591 4146.95 790.125 4416.51 598.984 4527.26ZM343.085 4188.74C343.085 4175.16 348.308 4164.71 356.664 4155.31C363.975 4149.04 371.286 4144.86 380.687 4142.77C384.865 4141.73 390.087 4140.68 395.31 4140.68C409.932 4140.68 429.778 4148 440.222 4157.4L527.959 4246.21C539.448 4256.66 544.671 4271.28 544.671 4284.87C544.671 4299.49 539.448 4314.12 527.959 4324.57L433.956 4418.6C426.644 4425.92 416.199 4431.14 405.754 4434.27C398.443 4435.32 391.132 4435.32 383.82 4434.27C370.242 4432.18 358.753 4424.87 350.397 4412.33C346.219 4405.02 343.085 4396.66 343.085 4387.26V4188.74ZM212.525 3775C134.189 3775 70.4751 3839.78 70.4751 3918.14C70.4751 3997.55 134.189 4061.28 212.525 4061.28C291.906 4061.28 355.619 3997.55 355.619 3918.14C355.619 3839.78 291.906 3775 212.525 3775ZM212.525 4514.72C134.189 4514.72 70.4751 4578.46 70.4751 4657.86C70.4751 4736.22 134.189 4801 212.525 4801C291.906 4801 355.619 4736.22 355.619 4657.86C355.619 4578.46 291.906 4514.72 212.525 4514.72ZM-8.9057 4144.86C-88.2865 4144.86 -152 4209.64 -152 4288C-152 4367.41 -88.2865 4431.14 -8.9057 4431.14C69.4306 4431.14 133.144 4367.41 133.144 4288C133.144 4209.64 69.4306 4144.86 -8.9057 4144.86Z" fill="white"/>
<path opacity="0.02" fill-rule="evenodd" clip-rule="evenodd" d="M1648.98 6276.26C1598.85 6298.2 1564.38 6348.35 1564.38 6406.86C1564.38 6485.22 1628.09 6550 1707.48 6550C1786.86 6550 1851.61 6484.18 1849.52 6404.77C1852.66 6299.25 1908.02 6218.8 1991.57 6166.56V6165.51C2039.62 6142.53 2072 6092.38 2072 6037C2072 5983.72 2043.8 5935.66 1996.8 5910.58C1913.24 5860.43 1855.79 5770.58 1850.57 5667.14C1850.57 5588.78 1785.81 5524 1707.48 5524C1628.09 5524 1564.38 5588.78 1564.38 5667.14C1564.38 5720.43 1593.63 5767.44 1637.49 5791.47C1827.59 5895.95 1840.12 6165.51 1648.98 6276.26ZM1393.09 5937.75C1393.09 5924.16 1398.31 5913.72 1406.66 5904.31C1413.98 5898.04 1421.29 5893.86 1430.69 5891.77C1434.86 5890.73 1440.09 5889.68 1445.31 5889.68C1459.93 5889.68 1479.78 5897 1490.22 5906.4L1577.96 5995.21C1589.45 6005.66 1594.67 6020.29 1594.67 6033.87C1594.67 6048.5 1589.45 6063.12 1577.96 6073.57L1483.96 6167.6C1476.64 6174.92 1466.2 6180.14 1455.75 6183.28C1448.44 6184.32 1441.13 6184.32 1433.82 6183.28C1420.24 6181.19 1408.75 6173.87 1400.4 6161.33C1396.22 6154.02 1393.09 6145.66 1393.09 6136.26V5937.75ZM1262.52 5524C1184.19 5524 1120.48 5588.78 1120.48 5667.14C1120.48 5746.55 1184.19 5810.28 1262.52 5810.28C1341.91 5810.28 1405.62 5746.55 1405.62 5667.14C1405.62 5588.78 1341.91 5524 1262.52 5524ZM1262.52 6263.73C1184.19 6263.73 1120.48 6327.46 1120.48 6406.86C1120.48 6485.22 1184.19 6550 1262.52 6550C1341.91 6550 1405.62 6485.22 1405.62 6406.86C1405.62 6327.46 1341.91 6263.73 1262.52 6263.73ZM1041.09 5893.86C961.714 5893.86 898 5958.64 898 6037C898 6116.41 961.714 6180.14 1041.09 6180.14C1119.43 6180.14 1183.14 6116.41 1183.14 6037C1183.14 5958.64 1119.43 5893.86 1041.09 5893.86Z" fill="white"/>
</g>
<defs>
<clipPath id="clip0">
<rect width="1920" height="5846" fill="white"/>
</clipPath>
</defs>
</svg>
