<svg width="164" height="26" viewBox="0 0 164 26" fill="none" xmlns="http://www.w3.org/2000/svg">
<path d="M149.575 7.52599V11.6218H153.567V25.0868H158.174V11.6218H163.498V7.52599H158.174V2.04785H153.567V7.52599H149.575Z" fill="white"/>
<path d="M147.783 25.0868V7.526H143.176V25.0868H147.783Z" fill="white"/>
<path d="M145.531 5.88769C146.81 5.88769 147.834 4.86374 147.834 3.5838C147.834 2.35506 146.81 1.27991 145.531 1.27991C144.302 1.27991 143.227 2.35506 143.227 3.5838C143.227 4.86374 144.302 5.88769 145.531 5.88769Z" fill="white"/>
<path d="M101.303 25.0868H105.859V15.4616C105.859 12.6969 107.292 11.0586 109.493 11.0586C112.207 11.0586 113.435 13.4137 113.435 15.4616V25.0868H118.042V15.4616C118.042 13.4137 119.271 11.0586 121.932 11.0586C124.185 11.0586 125.618 12.6969 125.618 15.4616V25.0868H130.174V14.7961C130.174 9.4203 125.464 7.1676 122.035 7.1676C119.527 7.1676 117.274 8.14036 115.79 9.62509C114.356 8.14036 112.104 7.1676 109.545 7.1676C105.194 7.1676 101.303 10.1883 101.303 14.7961V25.0868Z" fill="white"/>
<path d="M90.1951 25.5988C92.601 25.5988 95.4164 24.4725 97.1568 22.3733C98.8972 20.3254 99.4091 18.1751 99.4091 16.332C99.4091 14.7961 98.9996 13.2602 98.2318 11.7754C97.3615 10.3419 96.2354 9.16436 94.7509 8.3452C93.3176 7.52604 91.7819 7.11646 90.1951 7.11646C87.7892 7.11646 85.3321 8.19161 83.8988 9.62514C81.6465 11.8778 81.0322 14.5401 81.0322 16.332C81.0322 21.3494 85.1785 25.5988 90.1951 25.5988ZM85.5881 16.5368C85.5881 15.6153 85.844 14.6937 86.4071 13.9257C87.482 12.3386 89.1201 11.8266 90.2463 11.8266C91.526 11.8266 92.6521 12.2874 93.5735 13.209C94.4949 14.1305 94.9557 15.2569 94.9557 16.5368C94.9557 17.8168 94.4949 18.8919 93.5735 19.8135C92.6521 20.735 91.526 21.1958 90.2463 21.1958C89.3249 21.1958 88.4546 20.8886 87.6868 20.3766C86.0999 19.3015 85.5881 17.6632 85.5881 16.5368Z" fill="white"/>
<path d="M65.2661 22.9877C67.8256 24.6261 70.2826 25.4452 72.535 25.4452C73.8147 25.4452 74.992 25.2404 76.1694 24.7284C78.3705 23.8581 79.8038 22.2198 79.8038 20.0183C79.8038 17.3048 78.1658 16.2296 76.7836 15.4617C76.2718 15.2057 75.2992 14.8473 73.8659 14.3353C72.4326 13.8234 71.5624 13.4138 71.2552 13.1066C70.9481 12.7994 70.7945 12.4922 70.7945 12.185C70.7945 11.5195 71.3064 11.0587 72.5861 11.0587C73.098 11.0587 73.6611 11.2123 74.3778 11.4171C74.992 11.6731 76.0158 12.185 77.3467 12.9018L79.3943 9.57396C77.4491 8.14043 74.8897 7.21887 72.6373 7.21887C71.46 7.21887 70.385 7.42366 69.3612 7.83324C67.3137 8.7036 66.1875 10.2907 66.1875 12.3386C66.1875 14.4377 67.3137 15.9737 70.8969 17.3048C72.7397 17.9704 73.7635 18.4311 74.1218 18.6359C74.7361 18.9943 75.1456 19.4551 75.1456 20.0183C75.1456 20.8886 74.2242 21.6054 72.4838 21.6054C70.7433 21.6054 68.747 20.6326 67.2113 19.5575L65.2661 22.9877Z" fill="white"/>
<path d="M49.8584 22.9877C52.4179 24.6261 54.8749 25.4452 57.1272 25.4452C58.3558 25.4452 59.5843 25.2404 60.7105 24.7284C62.9628 23.8581 64.3449 22.2198 64.3449 20.0183C64.3449 17.3048 62.7069 16.2296 61.3759 15.4617C60.8641 15.2057 59.8915 14.8473 58.4582 14.3353C57.0249 13.8234 56.1547 13.4138 55.8475 13.1066C55.5404 12.7994 55.3868 12.4922 55.3868 12.185C55.3868 11.5195 55.8987 11.0587 57.1784 11.0587C57.6903 11.0587 58.2534 11.2123 58.9189 11.4171C59.5843 11.6731 60.5569 12.185 61.939 12.9018L63.9866 9.57396C61.9902 8.14043 59.4308 7.21887 57.2296 7.21887C56.0523 7.21887 54.9261 7.42366 53.9535 7.83324C51.906 8.7036 50.7286 10.2907 50.7286 12.3386C50.7286 14.4377 51.906 15.9737 55.4892 17.3048C57.2808 17.9704 58.3558 18.4311 58.7141 18.6359C59.3284 18.9943 59.7379 19.4551 59.7379 20.0183C59.7379 20.8886 58.8165 21.6054 57.0761 21.6054C55.3356 21.6054 53.3393 20.6326 51.8036 19.5575L49.8584 22.9877Z" fill="white"/>
<path d="M40.2346 25.5988C42.6405 25.5988 45.4559 24.4725 47.1963 22.3733C48.9368 20.3254 49.4486 18.1751 49.4486 16.332C49.4486 14.7961 49.0391 13.2602 48.2201 11.7754C47.4011 10.3419 46.2749 9.16436 44.7904 8.3452C43.306 7.52604 41.8215 7.11646 40.2346 7.11646C37.8287 7.11646 35.3717 8.19161 33.9384 9.62514C31.686 11.8778 31.0718 14.5401 31.0718 16.332C31.0718 21.3494 35.2181 25.5988 40.2346 25.5988ZM35.6276 16.5368C35.6276 15.6153 35.8835 14.6937 36.3954 13.9257C37.4704 12.3386 39.1085 11.8266 40.2858 11.8266C41.5655 11.8266 42.6917 12.2874 43.6131 13.209C44.5345 14.1305 44.944 15.2569 44.944 16.5368C44.944 17.8168 44.5345 18.8919 43.6131 19.8135C42.6917 20.735 41.5655 21.1958 40.2858 21.1958C39.3644 21.1958 38.4942 20.8886 37.7264 20.3766C36.1395 19.3015 35.6276 17.6632 35.6276 16.5368Z" fill="white"/>
<path d="M28.8708 25.0868V0H24.3149V25.0868H28.8708Z" fill="white"/>
<path d="M13.6163 25.087C18.8888 25.087 21.9601 22.5271 21.9601 17.9705C21.9601 15.769 21.0387 13.9771 19.1447 12.5435C21.0387 11.1612 21.9601 9.36929 21.9601 7.16779C21.9601 2.6624 18.8888 0.0513197 13.6163 0.0513197L0 0.00012207V25.087H13.6163ZM4.7094 14.745H13.7187C15.7663 14.745 16.9948 15.9226 16.9948 17.7145C16.9948 19.4552 15.7151 20.7352 13.6675 20.7352H4.65821L4.7094 14.745ZM4.65821 4.45431H13.6675C15.7151 4.45431 16.9948 5.68306 16.9948 7.42378C16.9948 9.26689 15.7663 10.4444 13.7187 10.4444H4.7094L4.65821 4.45431Z" fill="white"/>
</svg>
