<svg xmlns="http://www.w3.org/2000/svg" width="54" height="48" viewBox="0 0 54 48"><defs><linearGradient id="vmi5a" x1="0" x2="54" y1="24" y2="24" gradientUnits="userSpaceOnUse"><stop offset="0" stop-color="#ffcc67"/><stop offset=".23" stop-color="#fe785c"/><stop offset=".5" stop-color="#ea5bda"/><stop offset="1" stop-color="#492af3"/></linearGradient></defs><g><g><path fill="url(#vmi5a)" d="M34.014 12.513c-2.018-1.124-3.363-3.324-3.363-5.816C30.651 3.03 33.581 0 37.233 0c3.603 0 6.582 3.03 6.582 6.697.24 4.839 2.883 9.042 6.726 11.389C52.703 19.258 54 21.506 54 24c0 2.59-1.49 4.937-3.7 6.012v.05c-3.843 2.443-6.389 6.207-6.533 11.144C43.863 44.92 40.884 48 37.233 48s-6.582-3.03-6.582-6.697c0-2.737 1.586-5.083 3.892-6.11 8.791-5.18 8.215-17.792-.529-22.68zm-11.242 6.843c0-.635.24-1.124.625-1.564.336-.293.672-.489 1.105-.586.192-.05.432-.098.672-.098.673 0 1.586.342 2.066.782l4.036 4.155c.528.489.769 1.173.769 1.808 0 .685-.24 1.369-.77 1.858l-4.323 4.399c-.336.342-.817.587-1.297.733a3.488 3.488 0 0 1-1.01 0c-.624-.098-1.152-.44-1.537-1.026-.192-.342-.336-.733-.336-1.173zm.577-12.66c0 3.715-2.93 6.697-6.582 6.697-3.603 0-6.534-2.982-6.534-6.696C10.233 3.03 13.163 0 16.767 0c3.651 0 6.582 3.03 6.582 6.697zm0 34.608c0 3.665-2.93 6.696-6.582 6.696-3.603 0-6.534-3.03-6.534-6.697 0-3.714 2.93-6.696 6.534-6.696 3.651 0 6.582 2.982 6.582 6.696zM13.116 24c0 3.715-2.93 6.697-6.534 6.697C2.93 30.697 0 27.715 0 24c0-3.666 2.93-6.697 6.582-6.697 3.603 0 6.534 3.031 6.534 6.697z"/></g></g></svg>