<svg xmlns="http://www.w3.org/2000/svg" width="179" height="257" viewBox="0 0 179 257"><defs><mask id="rvqlb" width="2" height="2" x="-1" y="-1"><path fill="#fff" d="M3 3h173v251H3z"/><path d="M3.59 44.044c0-11.557 4.447-20.447 11.563-28.448 6.226-5.334 12.452-8.89 20.457-10.668 3.557-.889 8.005-1.778 12.452-1.778 12.452 0 29.351 6.223 38.246 14.224l74.712 75.565c9.784 8.89 14.231 21.336 14.231 32.893 0 12.446-4.447 24.892-14.231 33.782l-80.05 80.01c-6.225 6.223-15.12 10.668-24.014 13.335a65.739 65.739 0 0 1-18.678 0c-11.563-1.778-21.346-8.001-28.462-18.669-3.558-6.223-6.226-13.335-6.226-21.336z"/></mask><filter id="rvqla" width="201" height="279" x="-11" y="-11" filterUnits="userSpaceOnUse"><feOffset in="SourceGraphic" result="FeOffset1023Out"/><feGaussianBlur in="FeOffset1023Out" result="FeGaussianBlur1024Out" stdDeviation="1.6 1.6"/></filter><linearGradient id="rvqlc" x1="-421.4" x2="559.65" y1="128.39" y2="128.39" gradientUnits="userSpaceOnUse"><stop offset="0" stop-color="#ffcc67"/><stop offset=".23" stop-color="#fe785c"/><stop offset=".5" stop-color="#ea5bda"/><stop offset="1" stop-color="#492af3"/></linearGradient></defs><g><g><g filter="url(#rvqla)"><path fill="none" d="M3.59 44.044c0-11.557 4.447-20.447 11.563-28.448 6.226-5.334 12.452-8.89 20.457-10.668 3.557-.889 8.005-1.778 12.452-1.778 12.452 0 29.351 6.223 38.246 14.224l74.712 75.565c9.784 8.89 14.231 21.336 14.231 32.893 0 12.446-4.447 24.892-14.231 33.782l-80.05 80.01c-6.225 6.223-15.12 10.668-24.014 13.335a65.739 65.739 0 0 1-18.678 0c-11.563-1.778-21.346-8.001-28.462-18.669-3.558-6.223-6.226-13.335-6.226-21.336z" mask="url(&quot;#rvqlb&quot;)"/><path fill-opacity=".25" d="M3.59 44.044c0-11.557 4.447-20.447 11.563-28.448 6.226-5.334 12.452-8.89 20.457-10.668 3.557-.889 8.005-1.778 12.452-1.778 12.452 0 29.351 6.223 38.246 14.224l74.712 75.565c9.784 8.89 14.231 21.336 14.231 32.893 0 12.446-4.447 24.892-14.231 33.782l-80.05 80.01c-6.225 6.223-15.12 10.668-24.014 13.335a65.739 65.739 0 0 1-18.678 0c-11.563-1.778-21.346-8.001-28.462-18.669-3.558-6.223-6.226-13.335-6.226-21.336z"/></g><path fill="url(#rvqlc)" d="M3.59 44.044c0-11.557 4.447-20.447 11.563-28.448 6.226-5.334 12.452-8.89 20.457-10.668 3.557-.889 8.005-1.778 12.452-1.778 12.452 0 29.351 6.223 38.246 14.224l74.712 75.565c9.784 8.89 14.231 21.336 14.231 32.893 0 12.446-4.447 24.892-14.231 33.782l-80.05 80.01c-6.225 6.223-15.12 10.668-24.014 13.335a65.739 65.739 0 0 1-18.678 0c-11.563-1.778-21.346-8.001-28.462-18.669-3.558-6.223-6.226-13.335-6.226-21.336z"/></g></g></svg>