<svg width="487" height="687" viewBox="0 0 487 687" fill="none" xmlns="http://www.w3.org/2000/svg">
<circle cx="229.008" cy="457.379" r="229.008" fill="url(#paint0_linear)"/>
<circle cx="229.008" cy="457.379" r="229.008" fill="white" fill-opacity="0.2"/>
<mask id="mask0" mask-type="alpha" maskUnits="userSpaceOnUse" x="0" y="0" width="487" height="687">
<path d="M458.015 457.379C458.015 583.856 355.485 686.386 229.008 686.386C102.53 686.386 0 583.856 0 457.379C0 330.902 40.1892 0 166.667 0C622.773 17.1756 458.015 330.902 458.015 457.379Z" fill="url(#paint1_linear)"/>
<path d="M458.015 457.379C458.015 583.856 355.485 686.386 229.008 686.386C102.53 686.386 0 583.856 0 457.379C0 330.902 40.1892 0 166.667 0C622.773 17.1756 458.015 330.902 458.015 457.379Z" fill="white" fill-opacity="0.2"/>
</mask>
<g mask="url(#mask0)">
<path d="M105.773 206.403C108.092 188.323 124.632 175.548 142.711 177.871L443.927 216.586C462.175 218.931 474.981 235.746 472.392 253.961L410.131 691.919C407.568 709.949 390.884 722.494 372.852 719.951L78.0727 678.38C60.1851 675.858 47.6502 659.422 49.9491 641.504L105.773 206.403Z" fill="url(#paint2_linear)"/>
<path d="M300.173 700.334L415.058 197.325L447.239 221.461C450.899 224.206 452.767 228.732 452.108 233.26L387.698 675.937C385.66 689.945 373.65 700.334 359.495 700.334H300.173Z" fill="#DCDCDC" stroke="white" stroke-width="9"/>
<path d="M61.7851 171.101C64.0376 152.893 80.7095 140.017 98.8958 142.442L409.916 183.9C428.029 186.315 440.731 202.989 438.25 221.092L373.761 691.564C371.27 709.735 354.44 722.389 336.291 719.735L31.9373 675.22C14.1855 672.624 1.7601 656.321 3.96269 638.516L61.7851 171.101Z" fill="url(#paint3_linear)"/>
<circle cx="226.853" cy="449.735" r="103.69" fill="url(#paint4_linear)"/>
<circle cx="226.853" cy="449.735" r="103.69" fill="white" fill-opacity="0.2"/>
<mask id="mask1" mask-type="alpha" maskUnits="userSpaceOnUse" x="123" y="153" width="226" height="401">
<path d="M330.542 449.736C330.542 507.002 284.119 553.425 226.853 553.425C169.586 553.425 123.163 507.002 123.163 449.736C123.163 392.47 169.586 159.66 226.853 159.66C326.14 112.556 378.019 339.255 330.542 449.736Z" fill="#C4C4C4"/>
</mask>
<g mask="url(#mask1)">
<ellipse cx="212.528" cy="530.338" rx="109.753" ry="92.8193" transform="rotate(7.68015 212.528 530.338)" fill="white"/>
<rect x="211.17" y="413.714" width="33.8665" height="40.1381" transform="rotate(7.68015 211.17 413.714)" fill="white"/>
<path d="M314.136 344.698C306.961 397.903 267.474 436.494 225.939 430.893C184.404 425.292 156.55 377.62 163.725 324.414C167.209 274.684 177.445 248.961 191.363 262.96C186.76 226.821 208.024 216.478 252.592 233.246C297.964 239.365 323.889 286.992 314.136 344.698Z" fill="white"/>
<circle cx="163.174" cy="333.199" r="13.1703" transform="rotate(7.68015 163.174 333.199)" fill="white"/>
<circle cx="313.584" cy="353.483" r="13.1703" transform="rotate(7.68015 313.584 353.483)" fill="white"/>
</g>
<rect x="119.717" y="570.301" width="176.845" height="12.7226" rx="6.36132" transform="rotate(7.68 119.717 570.301)" fill="white"/>
<rect x="95.8477" y="590.635" width="219.88" height="12.7226" rx="6.36132" transform="rotate(7.68 95.8477 590.635)" fill="white"/>
<rect x="139.219" y="619.728" width="127.217" height="12.7226" rx="6.36132" transform="rotate(7.68 139.219 619.728)" fill="white"/>
</g>
<defs>
<linearGradient id="paint0_linear" x1="-0.00407487" y1="457.379" x2="458.048" y2="457.379" gradientUnits="userSpaceOnUse">
<stop stop-color="#FFCC67"/>
<stop offset="0.231373" stop-color="#FE785C"/>
<stop offset="0.501961" stop-color="#EA5BDA"/>
<stop offset="1" stop-color="#492AF3"/>
</linearGradient>
<linearGradient id="paint1_linear" x1="-0.00407487" y1="457.379" x2="458.048" y2="457.379" gradientUnits="userSpaceOnUse">
<stop stop-color="#FFCC67"/>
<stop offset="0.231373" stop-color="#FE785C"/>
<stop offset="0.501961" stop-color="#EA5BDA"/>
<stop offset="1" stop-color="#492AF3"/>
</linearGradient>
<linearGradient id="paint2_linear" x1="45.7979" y1="449.109" x2="477.13" y2="449.109" gradientUnits="userSpaceOnUse">
<stop stop-color="#FFCC67"/>
<stop offset="0.231373" stop-color="#FE785C"/>
<stop offset="0.501961" stop-color="#EA5BDA"/>
<stop offset="1" stop-color="#492AF3"/>
</linearGradient>
<linearGradient id="paint3_linear" x1="-0.00393904" y1="431.297" x2="442.779" y2="431.297" gradientUnits="userSpaceOnUse">
<stop stop-color="#FFCC67"/>
<stop offset="0.231373" stop-color="#FE785C"/>
<stop offset="0.501961" stop-color="#EA5BDA"/>
<stop offset="1" stop-color="#492AF3"/>
</linearGradient>
<linearGradient id="paint4_linear" x1="123.161" y1="449.735" x2="330.557" y2="449.735" gradientUnits="userSpaceOnUse">
<stop stop-color="#FFCC67"/>
<stop offset="0.231373" stop-color="#FE785C"/>
<stop offset="0.501961" stop-color="#EA5BDA"/>
<stop offset="1" stop-color="#492AF3"/>
</linearGradient>
</defs>
</svg>
