<svg xmlns="http://www.w3.org/2000/svg" width="21" height="17" viewBox="0 0 21 17"><g><g><path fill="#fff" d="M21 1.635V12.75c0 .45-.171.834-.514 1.155-.343.32-.755.48-1.236.48H13.3c0 .252.058.516.175.791.117.276.233.518.35.726.117.207.175.356.175.444 0 .177-.07.33-.208.46A.696.696 0 0 1 13.3 17H7.7a.696.696 0 0 1-.492-.194.608.608 0 0 1-.208-.46c0-.095.058-.245.175-.45a7.01 7.01 0 0 0 .35-.715c.117-.272.175-.538.175-.796H1.75c-.481 0-.893-.16-1.236-.48A1.524 1.524 0 0 1 0 12.75V1.635C0 1.185.171.8.514.48.857.16 1.269 0 1.75 0h17.5c.481 0 .893.16 1.236.48.343.32.514.705.514 1.155zm-1.4 0a.304.304 0 0 0-.104-.23.348.348 0 0 0-.246-.097H1.75a.349.349 0 0 0-.246.097.304.304 0 0 0-.104.23v8.5c0 .088.035.165.104.23a.35.35 0 0 0 .246.096h17.5a.35.35 0 0 0 .246-.096.304.304 0 0 0 .104-.23z"/></g></g></svg>