<svg width="93" height="54" viewBox="0 0 93 54" fill="none" xmlns="http://www.w3.org/2000/svg">
<g opacity="0.1">
<path d="M82.8308 20.9894V30.8163H75.1098C70.2763 30.8163 66.8238 31.3569 64.7523 32.4382C62.6808 33.5194 61.6451 35.1095 61.6451 37.2085C61.6451 38.9258 62.5867 40.3251 64.4699 41.4064C66.353 42.4876 69.5231 43.0283 73.9799 43.0283C77.809 43.0283 81.3871 42.6148 84.714 41.788C88.041 40.9611 90.7716 40.0389 92.9058 39.0212V50.3746C90.5833 51.4558 87.7271 52.3463 84.3374 53.0459C80.9477 53.682 77.1499 54 72.9442 54C64.0932 54 57.6904 52.6007 53.7357 49.8021C49.7811 47.0035 47.8037 43.2827 47.8037 38.6396C47.8037 34.8233 48.9336 31.9611 51.1935 30.053C53.516 28.1449 56.5605 26.841 60.3269 26.1413V25.6643C57.0627 24.9011 54.6146 23.5018 52.9825 21.4664C51.3504 19.3675 50.5343 16.7597 50.5343 13.6431C50.5343 10.3357 51.5387 7.69612 53.5474 5.72438C55.5562 3.68905 58.2554 2.22615 61.6451 1.33569C65.0348 0.44523 68.8012 0 72.9442 0C76.5222 0 80.1002 0.349824 83.6783 1.04947C87.2563 1.74912 90.3635 2.70318 93 3.91166L88.6687 14.2156C86.4089 13.2615 84.0549 12.4028 81.6068 11.6396C79.2214 10.8763 76.4594 10.4947 73.3208 10.4947C66.4786 10.4947 63.0575 12.1166 63.0575 15.3604C63.0575 17.3958 64.0618 18.8587 66.0706 19.7491C68.1421 20.576 71.3748 20.9894 75.7689 20.9894H82.8308Z" fill="white"/>
<path d="M16.5967 11.5963H0V1.74194H45.1963V11.5963H28.5996V54H16.5967V11.5963Z" fill="white"/>
</g>
</svg>
