<svg width="161" height="62" viewBox="0 0 161 62" fill="none" xmlns="http://www.w3.org/2000/svg">
<g opacity="0.1">
<path d="M88.831 49.915L89.7949 46.0595H90.7147L88.9827 52.102C88.8522 52.5554 88.6679 52.8995 88.4298 53.1343C88.1917 53.3724 87.921 53.4915 87.6176 53.4915C87.5002 53.4915 87.3502 53.4654 87.1675 53.4132V52.6793L87.3583 52.6989C87.6095 52.6989 87.8052 52.6385 87.9455 52.5179C88.089 52.4004 88.2048 52.1949 88.2928 51.9014L88.4641 51.3094L86.9082 46.0595H87.8525L88.831 49.915Z" fill="white"/>
<path d="M95.2845 51.3534H94.4234V46.8081H92.5103V51.3534H91.6394V46.0595H95.2845V51.3534Z" fill="white"/>
<path d="M100.495 48.9609C100.495 49.7992 100.343 50.4238 100.04 50.8348C99.7401 51.2458 99.3144 51.4513 98.7632 51.4513C98.2315 51.4513 97.8221 51.2507 97.5351 50.8495V53.3888H96.674V46.0595H97.4568L97.5008 46.6466C97.7911 46.19 98.207 45.9617 98.7485 45.9617C99.3291 45.9617 99.7629 46.1639 100.05 46.5684C100.337 46.9728 100.485 47.5779 100.495 48.3835V48.9609ZM99.6341 48.4667C99.6341 47.8731 99.5427 47.436 99.3601 47.1555C99.1774 46.8717 98.8838 46.7298 98.4794 46.7298C98.0651 46.7298 97.7504 46.9369 97.5351 47.3512V50.1058C97.7471 50.5102 98.0651 50.7125 98.4892 50.7125C98.8806 50.7125 99.1676 50.5722 99.3503 50.2917C99.5362 50.0079 99.6308 49.5757 99.6341 48.9951V48.4667Z" fill="white"/>
<path d="M104.336 51.3534C104.284 51.2392 104.246 51.0468 104.223 50.7761C103.917 51.2262 103.525 51.4513 103.049 51.4513C102.57 51.4513 102.195 51.3175 101.924 51.0501C101.656 50.7793 101.523 50.3993 101.523 49.9101C101.523 49.3719 101.705 48.9446 102.071 48.6282C102.436 48.3118 102.937 48.1503 103.573 48.1438H104.209V47.5811C104.209 47.2648 104.139 47.0397 103.998 46.906C103.858 46.7722 103.644 46.7054 103.357 46.7054C103.096 46.7054 102.884 46.7836 102.721 46.9402C102.558 47.0935 102.477 47.2892 102.477 47.5273H101.611C101.611 47.2566 101.691 46.9989 101.85 46.7543C102.01 46.5064 102.226 46.3123 102.496 46.1721C102.767 46.0318 103.069 45.9617 103.401 45.9617C103.943 45.9617 104.354 46.097 104.634 46.3678C104.918 46.6352 105.063 47.0266 105.07 47.542V50.2134C105.073 50.6211 105.129 50.975 105.236 51.2751V51.3534H104.336ZM103.181 50.6635C103.393 50.6635 103.595 50.6048 103.788 50.4874C103.98 50.37 104.121 50.2232 104.209 50.0471V48.7847H103.719C103.308 48.7913 102.984 48.8842 102.746 49.0636C102.508 49.2398 102.389 49.4877 102.389 49.8073C102.389 50.1074 102.449 50.3259 102.57 50.4629C102.69 50.5967 102.894 50.6635 103.181 50.6635Z" fill="white"/>
<path d="M106.494 51.3534V46.0595H108.27C108.876 46.0595 109.339 46.1835 109.659 46.4314C109.979 46.6793 110.139 47.0397 110.139 47.5126C110.139 47.7573 110.075 47.9775 109.948 48.1732C109.821 48.3689 109.635 48.5189 109.39 48.6233C109.661 48.695 109.878 48.8402 110.041 49.0587C110.207 49.2773 110.29 49.5415 110.29 49.8513C110.29 50.3406 110.137 50.7141 109.83 50.9718C109.527 51.2262 109.096 51.3534 108.539 51.3534H106.494ZM107.355 49.0294V50.6244H108.549C109.132 50.6244 109.424 50.3569 109.424 49.822C109.424 49.2936 109.129 49.0294 108.539 49.0294H107.355ZM107.355 48.3053H108.26C108.935 48.3053 109.273 48.0574 109.273 47.5616C109.273 47.0625 108.955 46.8065 108.319 46.7934H107.355V48.3053Z" fill="white"/>
<path d="M115.198 46.0595V51.3534H114.332V46.8081H112.937L112.854 48.6037C112.808 49.5986 112.675 50.3047 112.453 50.7222C112.231 51.1365 111.876 51.3469 111.386 51.3534H111.098V50.5559L111.318 50.5363C111.559 50.5037 111.729 50.3422 111.827 50.0519C111.928 49.7584 111.995 49.1827 112.027 48.3248L112.11 46.0595H115.198Z" fill="white"/>
<path d="M120.032 46.0595V51.3534H119.166V49.2936H118.143L117.076 51.3534H116.147L117.292 49.1419C117.005 49.018 116.786 48.8271 116.636 48.5695C116.486 48.3118 116.411 48.0133 116.411 47.6741C116.411 47.1881 116.568 46.7983 116.881 46.5048C117.194 46.2079 117.615 46.0595 118.143 46.0595H120.032ZM117.277 47.6839C117.277 47.9448 117.347 48.1552 117.487 48.315C117.628 48.4716 117.817 48.5499 118.055 48.5499H119.166V46.7934H118.133C117.876 46.7934 117.668 46.8766 117.512 47.043C117.355 47.206 117.277 47.4197 117.277 47.6839Z" fill="white"/>
<path d="M122.346 48.3053H123.334C123.396 47.5877 123.61 47.0185 123.975 46.5977C124.344 46.1737 124.804 45.9617 125.355 45.9617C125.942 45.9617 126.421 46.1933 126.793 46.6564C127.165 47.1163 127.367 47.7198 127.4 48.4667L127.405 48.7652C127.405 49.5578 127.217 50.2036 126.842 50.7027C126.467 51.2017 125.975 51.4513 125.365 51.4513C124.784 51.4513 124.311 51.2295 123.946 50.7858C123.58 50.339 123.375 49.76 123.329 49.0489H122.346V51.3534H121.485V46.0595H122.346V48.3053ZM124.186 48.7652C124.186 49.3556 124.292 49.8285 124.504 50.184C124.716 50.5363 125.003 50.7125 125.365 50.7125C125.72 50.7125 126.004 50.5363 126.216 50.184C126.428 49.8318 126.534 49.3229 126.534 48.6575C126.534 48.0606 126.426 47.586 126.211 47.2338C125.996 46.8815 125.71 46.7054 125.355 46.7054C125.003 46.7054 124.719 46.8815 124.504 47.2338C124.292 47.586 124.186 48.0965 124.186 48.7652Z" fill="white"/>
<path d="M129.377 46.0595V50.6146H130.869V46.0595H131.73V50.6146H133.227V46.0595H134.093V50.6146H134.754L134.666 52.9239H133.897V51.3534H128.506V46.0595H129.377Z" fill="white"/>
<path d="M138.448 51.3534C138.395 51.2392 138.358 51.0468 138.335 50.7761C138.029 51.2262 137.637 51.4513 137.161 51.4513C136.681 51.4513 136.306 51.3175 136.036 51.0501C135.768 50.7793 135.634 50.3993 135.634 49.9101C135.634 49.3719 135.817 48.9446 136.182 48.6282C136.548 48.3118 137.048 48.1503 137.684 48.1438H138.32V47.5811C138.32 47.2648 138.25 47.0397 138.11 46.906C137.97 46.7722 137.756 46.7054 137.469 46.7054C137.208 46.7054 136.996 46.7836 136.833 46.9402C136.67 47.0935 136.588 47.2892 136.588 47.5273H135.722C135.722 47.2566 135.802 46.9989 135.962 46.7543C136.122 46.5064 136.337 46.3123 136.608 46.1721C136.879 46.0318 137.18 45.9617 137.513 45.9617C138.055 45.9617 138.466 46.097 138.746 46.3678C139.03 46.6352 139.175 47.0266 139.182 47.542V50.2134C139.185 50.6211 139.24 50.975 139.348 51.2751V51.3534H138.448ZM137.293 50.6635C137.505 50.6635 137.707 50.6048 137.9 50.4874C138.092 50.37 138.232 50.2232 138.32 50.0471V48.7847H137.831C137.42 48.7913 137.096 48.8842 136.858 49.0636C136.619 49.2398 136.5 49.4877 136.5 49.8073C136.5 50.1074 136.561 50.3259 136.681 50.4629C136.802 50.5967 137.006 50.6635 137.293 50.6635Z" fill="white"/>
<path d="M143.986 46.0595V51.3534H143.12V49.2936H142.098L141.031 51.3534H140.101L141.246 49.1419C140.959 49.018 140.741 48.8271 140.591 48.5695C140.441 48.3118 140.366 48.0133 140.366 47.6741C140.366 47.1881 140.522 46.7983 140.835 46.5048C141.148 46.2079 141.569 46.0595 142.098 46.0595H143.986ZM141.232 47.6839C141.232 47.9448 141.302 48.1552 141.442 48.315C141.582 48.4716 141.771 48.5499 142.01 48.5499H143.12V46.7934H142.088C141.83 46.7934 141.623 46.8766 141.466 47.043C141.31 47.206 141.232 47.4197 141.232 47.6839Z" fill="white"/>
<path d="M88.8212 59.1181H88.332V61.3736H87.466V56.0797H88.332V58.3206H88.7625L90.2059 56.0797H91.2382L89.472 58.5995L91.3654 61.3736H90.2793L88.8212 59.1181Z" fill="white"/>
<path d="M91.9085 58.482C91.9085 57.7122 92.0944 57.1039 92.4663 56.6571C92.8414 56.2069 93.3355 55.9819 93.9488 55.9819C94.562 55.9819 95.0545 56.2004 95.4264 56.6375C95.8015 57.0746 95.9939 57.6698 96.0037 58.4233V58.9811C96.0037 59.7476 95.8178 60.3543 95.4459 60.8012C95.0741 61.248 94.5783 61.4715 93.9586 61.4715C93.3453 61.4715 92.8528 61.2545 92.481 60.8207C92.1124 60.3869 91.9216 59.7998 91.9085 59.0594V58.482ZM92.7745 58.9811C92.7745 59.5258 92.8805 59.9547 93.0925 60.2679C93.3078 60.5777 93.5965 60.7327 93.9586 60.7327C94.7218 60.7327 95.1149 60.1814 95.1377 59.0789V58.482C95.1377 57.9406 95.03 57.5133 94.8148 57.2001C94.5995 56.8838 94.3108 56.7256 93.9488 56.7256C93.5932 56.7256 93.3078 56.8838 93.0925 57.2001C92.8805 57.5133 92.7745 57.9389 92.7745 58.4771V58.9811Z" fill="white"/>
<path d="M99.7172 60.1749L101.136 56.0797H102.212V61.3736H101.351V57.7237L100.016 61.3736H99.4237L98.0586 57.6356V61.3736H97.1975V56.0797H98.313L99.7172 60.1749Z" fill="white"/>
<path d="M107.32 61.3736H106.459V56.8283H104.546V61.3736H103.675V56.0797H107.32V61.3736Z" fill="white"/>
<path d="M111.43 61.3736C111.378 61.2594 111.341 61.067 111.318 60.7963C111.011 61.2464 110.62 61.4715 110.144 61.4715C109.664 61.4715 109.289 61.3377 109.018 61.0703C108.751 60.7995 108.617 60.4195 108.617 59.9303C108.617 59.3921 108.8 58.9648 109.165 58.6484C109.53 58.332 110.031 58.1705 110.667 58.164H111.303V57.6013C111.303 57.285 111.233 57.0599 111.093 56.9262C110.952 56.7924 110.739 56.7256 110.452 56.7256C110.191 56.7256 109.979 56.8038 109.816 56.9604C109.653 57.1137 109.571 57.3094 109.571 57.5475H108.705C108.705 57.2768 108.785 57.0191 108.945 56.7745C109.105 56.5266 109.32 56.3325 109.591 56.1923C109.861 56.052 110.163 55.9819 110.496 55.9819C111.037 55.9819 111.448 56.1172 111.729 56.388C112.013 56.6554 112.158 57.0468 112.164 57.5622V60.2336C112.167 60.6413 112.223 60.9952 112.331 61.2953V61.3736H111.43ZM110.276 60.6837C110.488 60.6837 110.69 60.625 110.882 60.5076C111.075 60.3902 111.215 60.2434 111.303 60.0673V58.8049H110.814C110.403 58.8115 110.078 58.9044 109.84 59.0838C109.602 59.26 109.483 59.5079 109.483 59.8275C109.483 60.1276 109.543 60.3461 109.664 60.4831C109.785 60.6169 109.989 60.6837 110.276 60.6837Z" fill="white"/>
<path d="M117.228 61.3736H116.367V59.1132H114.459V61.3736H113.588V56.0797H114.459V58.3744H116.367V56.0797H117.228V61.3736Z" fill="white"/>
<path d="M121.47 56.0797H122.331V61.3736H121.47V57.5133L119.552 61.3736H118.686V56.0797H119.552V59.9449L121.47 56.0797Z" fill="white"/>
<path d="M127.175 56.0797V61.3736H126.309V59.3138H125.286L124.22 61.3736H123.29L124.435 59.1621C124.148 59.0382 123.929 58.8473 123.779 58.5897C123.629 58.332 123.554 58.0335 123.554 57.6943C123.554 57.2083 123.711 56.8185 124.024 56.525C124.337 56.2281 124.758 56.0797 125.286 56.0797H127.175ZM124.42 57.7041C124.42 57.965 124.49 58.1754 124.631 58.3352C124.771 58.4918 124.96 58.5701 125.198 58.5701H126.309V56.8136H125.277C125.019 56.8136 124.812 56.8968 124.655 57.0632C124.499 57.2262 124.42 57.4399 124.42 57.7041Z" fill="white"/>
<path d="M20.0887 20.9789L23.4309 22.5374L24.6294 23.0963L10.2682 53.8941L5.72751 51.7767L20.0887 20.9789Z" fill="white"/>
<path d="M22.2325 23.0962L23.4309 22.5374L26.7732 20.9789L41.1344 51.7766L36.5937 53.894L22.2325 23.0962Z" fill="white"/>
<path d="M20.0887 20.9789L23.4309 22.5374L26.7732 20.9789L20.0887 20.9789Z" fill="white"/>
<path d="M2.81836 51.3532H7.82846V61.9997H2.81836V51.3532Z" fill="white"/>
<path d="M39.1416 51.3532H44.1517V61.9997H39.1416V51.3532Z" fill="white"/>
<path d="M7.82846 51.3532H39.1416V55.7371H7.82846V51.3532Z" fill="white"/>
<path fill-rule="evenodd" clip-rule="evenodd" d="M55.1108 62C59.7801 62 63.5653 58.2148 63.5653 53.5455C63.5653 48.8762 59.7801 45.0909 55.1108 45.0909C50.4415 45.0909 46.6562 48.8762 46.6562 53.5455C46.6562 58.2148 50.4415 62 55.1108 62ZM55.1108 59.495C58.3966 59.495 61.0603 56.8313 61.0603 53.5455C61.0603 50.2597 58.3966 47.596 55.1108 47.596C51.825 47.596 49.1613 50.2597 49.1613 53.5455C49.1613 56.8313 51.825 59.495 55.1108 59.495Z" fill="white"/>
<path d="M66.0703 45.7173H68.5754V46.1934V61.3738H66.0703V45.7173Z" fill="white"/>
<path d="M81.1006 45.7173H83.6057V61.3738H81.1006V46.0938V45.7173Z" fill="white"/>
<path d="M80.2965 45.7188L81.1006 46.0938L82.5669 46.7775L75.6515 61.3738L74.934 60.9263L73.6271 60.1109L80.2965 45.7188Z" fill="white"/>
<path d="M67.3228 46.7775L68.5754 46.1934L69.5932 45.7188L76.2498 60.1109L74.934 60.9263L74.2155 61.3715L74.2117 61.3738L67.3228 46.7775Z" fill="white"/>
<path d="M81.1006 46.0938V45.7173L80.2965 45.7188L81.1006 46.0938Z" fill="white"/>
<path d="M68.5754 45.7173V46.1934L69.5932 45.7188L68.5754 45.7173Z" fill="white"/>
<path d="M75.6515 61.3738L74.934 60.9263L74.2155 61.3715L75.6515 61.3738Z" fill="white"/>
<path d="M20.351 0.000764481L24.8917 2.11812L5.43574 43.8416L0.966145 41.7574L20.351 0.000764481Z" fill="white"/>
<path d="M5.43574 43.8416L0.966145 41.7574L0 43.8385L5.43574 43.8416Z" fill="white"/>
<path d="M43.5252 0H20.3535L41.6465 41.9596H62.3131L65.4444 34.7576L43.5252 0Z" fill="white"/>
<path d="M46.3525 2.80147L50.6664 2.33055e-07L71.8056 32.5515L67.4917 35.353L46.3525 2.80147Z" fill="white"/>
<path d="M46.3525 2.80147L50.6664 2.33055e-07L44.4648 0L46.3525 2.80147Z" fill="white"/>
<path d="M83.2931 0.000206094L87.756 1.98078L68.4923 41.8776L64.5052 39.7678L83.2931 0.000206094Z" fill="white"/>
<path d="M83.2931 0.000206094L87.756 1.98078L88.6163 0.000206018L83.2931 0.000206094Z" fill="white"/>
<path d="M68.4923 41.8776L64.5052 39.7678L63.5659 41.8776H68.4923Z" fill="white"/>
<path d="M78.5957 26.3031H81.1008V41.9597H78.5957V26.3031Z" fill="white"/>
<path d="M81.1008 32.5658H83.6058V35.0708H81.1008V32.5658Z" fill="white"/>
<path fill-rule="evenodd" clip-rule="evenodd" d="M91.121 41.9597C95.6173 41.9597 99.2624 38.3147 99.2624 33.8183C99.2624 29.3219 95.6173 25.6769 91.121 25.6769C86.6246 25.6769 82.9795 29.3219 82.9795 33.8183C82.9795 38.3147 86.6246 41.9597 91.121 41.9597ZM91.121 39.5474C94.2851 39.5474 96.8501 36.9824 96.8501 33.8183C96.8501 30.6542 94.2851 28.0892 91.121 28.0892C87.9568 28.0892 85.3918 30.6542 85.3918 33.8183C85.3918 36.9824 87.9568 39.5474 91.121 39.5474Z" fill="white"/>
<path d="M104.273 28.1819H106.778V41.9597H104.273V28.1819Z" fill="white"/>
<path d="M99.8887 25.6769H111.161V28.1819H99.8887V25.6769Z" fill="white"/>
<path d="M112.414 26.3032H114.919V41.9598H112.414V26.3032Z" fill="white"/>
<path d="M123.061 26.3032H125.566V41.9598H123.061V26.3032Z" fill="white"/>
<path d="M114.919 32.5658H123.061V35.0709H114.919V32.5658Z" fill="white"/>
<path d="M135.273 41.9598C137.867 41.9598 139.97 39.8569 139.97 37.2628C139.97 34.6688 137.867 32.5658 135.273 32.5658C133.471 32.5658 131.905 33.5811 131.118 35.0709H134.96C136.343 35.0709 137.465 36.1924 137.465 37.5759C137.465 38.9595 136.343 40.081 134.96 40.081H131.515C132.372 41.2218 133.736 41.9598 135.273 41.9598Z" fill="white"/>
<path d="M130.889 38.9527V35.5729C130.687 36.0973 130.576 36.6671 130.576 37.2628C130.576 37.8585 130.687 38.4283 130.889 38.9527Z" fill="white"/>
<path d="M128.697 26.3032H131.202V39.4547V41.9598H128.697V26.3032Z" fill="white"/>
<path d="M131.202 40.081H135.586V41.9598H131.202V40.081Z" fill="white"/>
<path d="M131.202 32.5658H135.586V34.4446L131.202 35.0709V32.5658Z" fill="white"/>
<path d="M141.223 26.3032H143.728V41.9598H141.223V26.3032Z" fill="white"/>
<path d="M147.485 26.3032H149.99V38.2022V41.9598H147.485V26.3032Z" fill="white"/>
<path d="M158.132 26.3032H160.637V41.9598H158.132V30.0608V26.3032Z" fill="white"/>
<path d="M149.99 38.2022V41.9598L158.132 30.0608V26.3032L149.99 38.2022Z" fill="white"/>
<path d="M154.374 23.1719C155.758 23.1719 156.879 22.0504 156.879 20.6669H158.758C158.758 23.088 156.795 25.0507 154.374 25.0507C151.953 25.0507 149.99 23.088 149.99 20.6669H151.869C151.869 22.0504 152.991 23.1719 154.374 23.1719Z" fill="white"/>
</g>
</svg>
