<svg width="24" height="23" viewBox="0 0 24 23" fill="none" xmlns="http://www.w3.org/2000/svg">
<g opacity="0.3">
<path fill-rule="evenodd" clip-rule="evenodd" d="M17.7779 11.4313C17.7779 14.6715 15.1417 17.3078 11.9011 17.3078C8.66088 17.3078 6.02462 14.6715 6.02462 11.4313C6.02462 8.19074 8.66088 5.55448 11.9011 5.55448C15.1412 5.55448 17.7779 8.19116 17.7779 11.4313ZM11.9006 14.8249C10.0301 14.8249 8.5079 13.3018 8.5079 11.4313C8.5079 9.56044 10.0306 8.03819 11.9006 8.03819C13.772 8.03819 15.2946 9.56002 15.2946 11.4313C15.2946 13.3018 13.772 14.8249 11.9006 14.8249Z" fill="white"/>
<path d="M7.23963 5.36557C7.23963 6.13261 6.61586 6.75639 5.84924 6.75639C5.08261 6.75639 4.45884 6.13261 4.45884 5.36557C4.45884 4.59895 5.08261 3.97517 5.84924 3.97517C6.61586 3.97517 7.23963 4.59895 7.23963 5.36557Z" fill="white"/>
<path fill-rule="evenodd" clip-rule="evenodd" d="M17.5539 0.0224762C20.7282 0.0224762 23.3099 2.60422 23.3099 5.77847V17.0842C23.3099 20.258 20.7282 22.8402 17.5539 22.8402H6.24818C3.07435 22.8402 0.492188 20.258 0.492188 17.0842L0.492188 5.77847C0.492188 2.60422 3.07435 0.0224762 6.24818 0.0224762H17.5539ZM2.97547 17.0842L2.97547 5.77846C2.97547 3.97348 4.44362 2.50533 6.24818 2.50533H17.5539C19.3589 2.50533 20.8271 3.9739 20.8271 5.77846V17.0842C20.8271 18.8888 19.3585 20.3569 17.5539 20.3569H6.24818C4.44362 20.3569 2.97547 18.8888 2.97547 17.0842Z" fill="white"/>
</g>
</svg>
