<svg width="72" height="65" viewBox="0 0 72 65" fill="none" xmlns="http://www.w3.org/2000/svg">
<path opacity="0.1" d="M37.9577 50.7846C35.8912 49.2654 34.9124 47.0409 34.9124 43.6227C34.9124 39.3364 36.2175 34.1277 38.3927 31.8489C39.9154 30.3297 42.0906 29.6244 45.0272 29.6244C49.2145 29.6244 54.3807 30.7095 56.5015 32.934C57.9698 34.399 58.6224 36.4065 58.6224 39.2279C58.6224 43.2972 57.4804 48.9942 54.9245 51.3815C53.4562 52.6836 51.5529 53.2805 48.7795 53.2805C45.0272 53.2262 40.2961 52.3581 37.9577 50.7846ZM56.3927 59.7371L55.9033 63.6436L66.8338 65L72 22.8422L61.0695 21.4858L60.5801 25.5551H59.2749C57.6435 22.6795 53.2931 18.773 45.0272 18.773C33.5529 18.773 25.0695 27.2371 23.5468 38.7938C23.3837 39.9332 23.3293 41.0726 23.3293 42.212C23.3293 53.2805 30.8338 62.3414 42.5801 63.6436C43.2326 63.6978 43.8852 63.7521 44.5378 63.6978C49.432 63.6978 53.1299 61.5818 55.0332 59.7371H56.3927ZM7.12387 0L0 56.8072L11.5831 58.2179L18.5982 1.41069L7.12387 0Z" fill="white"/>
</svg>
