<svg width="1920" height="1080" viewBox="0 0 1920 1080" fill="none" xmlns="http://www.w3.org/2000/svg">
<g clip-path="url(#clip0)">
<rect width="1920" height="1080" fill="#120B31"/>
<path opacity="0.02" fill-rule="evenodd" clip-rule="evenodd" d="M599.583 1029.26C549.408 1051.2 514.912 1101.35 514.912 1159.86C514.912 1238.22 578.676 1303 658.121 1303C737.565 1303 802.374 1237.18 800.284 1157.77C803.42 1052.25 858.821 971.797 942.447 919.556V918.512C990.531 895.526 1022.94 845.375 1022.94 790C1022.94 736.715 994.713 688.654 947.673 663.579C864.048 613.428 806.556 523.575 801.329 420.139C801.329 341.778 736.519 277 658.121 277C578.676 277 514.912 341.778 514.912 420.139C514.912 473.424 544.181 520.44 588.084 544.471C778.332 648.951 790.876 918.512 599.583 1029.26ZM343.48 690.744C343.48 677.161 348.707 666.713 357.069 657.31C364.387 651.041 371.704 646.862 381.112 644.772C385.293 643.727 390.519 642.683 395.746 642.683C410.381 642.683 430.242 649.996 440.695 659.399L528.501 748.208C540 758.656 545.226 773.283 545.226 786.866C545.226 801.493 540 816.121 528.501 826.569L434.423 920.601C427.106 927.915 416.652 933.139 406.199 936.273C398.882 937.318 391.565 937.318 384.248 936.273C370.658 934.184 359.16 926.87 350.797 914.332C346.616 907.019 343.48 898.66 343.48 889.257V690.744ZM212.816 277C134.417 277 70.6525 341.778 70.6525 420.139C70.6525 499.544 134.417 563.277 212.816 563.277C292.26 563.277 356.024 499.544 356.024 420.139C356.024 341.778 292.26 277 212.816 277ZM212.816 1016.72C134.417 1016.72 70.6525 1080.46 70.6525 1159.86C70.6525 1238.22 134.417 1303 212.816 1303C292.26 1303 356.024 1238.22 356.024 1159.86C356.024 1080.46 292.26 1016.72 212.816 1016.72ZM-8.79158 646.862C-88.2357 646.862 -152 711.64 -152 790C-152 869.406 -88.2357 933.139 -8.79158 933.139C69.6072 933.139 133.372 869.406 133.372 790C133.372 711.64 69.6072 646.862 -8.79158 646.862Z" fill="white"/>
</g>
<defs>
<clipPath id="clip0">
<rect width="1920" height="1080" fill="white"/>
</clipPath>
</defs>
</svg>
