<svg xmlns="http://www.w3.org/2000/svg" width="12" height="21" viewBox="0 0 12 21"><g><g><path fill="#fff" d="M10.605 0C11.372 0 12 .638 12 1.418v18.164c0 .78-.628 1.418-1.395 1.418h-9.21C.628 21 0 20.362 0 19.581V1.418C0 .638.628 0 1.395 0zM4.527 1.022a.17.17 0 0 0-.169.173.17.17 0 0 0 .169.171h2.946a.17.17 0 0 0 .169-.171.17.17 0 0 0-.169-.173zm2.17 18.559a.703.703 0 0 0-.697-.71.703.703 0 0 0-.698.71c0 .392.313.71.698.71a.703.703 0 0 0 .698-.71zM11.03 2.249H.971v16.126h10.058z"/></g></g></svg>