<svg xmlns="http://www.w3.org/2000/svg" width="27" height="33" viewBox="0 0 27 33"><g><g><path fill="#fff" d="M.44 8.88h5.258v24.115H.44z"/></g><g><path fill="#fff" d="M5.7 19.4h6.8l8.612 13.599h-6.8z"/></g><g><path fill="#fff" d="M12.77 12.506a3.626 3.626 0 1 1 7.253 0 3.626 3.626 0 0 1-7.253 0zm3.626 2.267a2.266 2.266 0 1 0 0-4.533 2.266 2.266 0 0 0 0 4.533z"/></g><g><path fill="#fff" d="M15.49 2.221a2.221 2.221 0 1 1 4.442 0 2.221 2.221 0 0 1-4.442 0zm2.221 1.224a1.224 1.224 0 1 0 0-2.448 1.224 1.224 0 0 0 0 2.448z"/></g><g><path fill="#fff" d="M20.84 8.114a2.674 2.674 0 1 1 5.349 0 2.674 2.674 0 0 1-5.349 0zm2.674 1.587a1.587 1.587 0 1 0 0-3.173 1.587 1.587 0 0 0 0 3.173z"/></g></g></svg>