<svg width="58" height="74" viewBox="0 0 58 74" fill="none" xmlns="http://www.w3.org/2000/svg">
<g opacity="0.1">
<rect y="19.9231" width="11.7913" height="54.0772" fill="white"/>
<path d="M11.791 43.5059H27.0383L46.3516 74.0005H31.1043L11.791 43.5059Z" fill="white"/>
<path fill-rule="evenodd" clip-rule="evenodd" d="M35.7794 36.1869C40.2705 36.1869 43.9113 32.5461 43.9113 28.055C43.9113 23.5639 40.2705 19.9231 35.7794 19.9231C31.2883 19.9231 27.6475 23.5639 27.6475 28.055C27.6475 32.5461 31.2883 36.1869 35.7794 36.1869ZM35.7794 33.1374C38.5863 33.1374 40.8618 30.862 40.8618 28.055C40.8618 25.248 38.5863 22.9726 35.7794 22.9726C32.9724 22.9726 30.6969 25.248 30.6969 28.055C30.6969 30.862 32.9724 33.1374 35.7794 33.1374Z" fill="white"/>
<path fill-rule="evenodd" clip-rule="evenodd" d="M38.7288 9.96158C41.4796 9.96158 43.7096 7.7316 43.7096 4.98079C43.7096 2.22998 41.4796 0 38.7288 0C35.9781 0 33.748 2.22998 33.748 4.98079C33.748 7.7316 35.9781 9.96158 38.7288 9.96158ZM38.7288 7.72531C40.2446 7.72531 41.4734 6.49654 41.4734 4.98079C41.4734 3.46503 40.2446 2.23627 38.7288 2.23627C37.213 2.23627 35.9843 3.46503 35.9843 4.98079C35.9843 6.49654 37.213 7.72531 38.7288 7.72531Z" fill="white"/>
<path fill-rule="evenodd" clip-rule="evenodd" d="M51.7395 24.1924C55.0517 24.1924 57.7367 21.5074 57.7367 18.1952C57.7367 14.8829 55.0517 12.1979 51.7395 12.1979C48.4272 12.1979 45.7422 14.8829 45.7422 18.1952C45.7422 21.5074 48.4272 24.1924 51.7395 24.1924ZM51.7395 21.7529C53.7043 21.7529 55.2972 20.16 55.2972 18.1952C55.2972 16.2303 53.7043 14.6374 51.7395 14.6374C49.7746 14.6374 48.1818 16.2303 48.1818 18.1952C48.1818 20.16 49.7746 21.7529 51.7395 21.7529Z" fill="white"/>
</g>
</svg>
