<svg width="86" height="83" viewBox="0 0 86 83" fill="none" xmlns="http://www.w3.org/2000/svg">
<g opacity="0.1">
<path d="M78.3994 15.95C77.4694 14.68 76.5494 13.41 75.7394 12.13L26.0194 40.69L2.01941 26.93C1.46858 28.4148 1.13187 29.9704 1.01941 31.55L26.2494 46.16L78.3994 15.95Z" fill="white"/>
<path d="M26.0194 51.44L0.239415 36.64C0.0486431 37.5503 -0.0286116 38.4807 0.00941583 39.41C0.00941583 50.7255 4.50446 61.5775 12.5057 69.5787C20.5069 77.58 31.359 82.075 42.6744 82.075C53.9899 82.075 64.8419 77.58 72.8431 69.5787C80.8444 61.5775 85.3394 50.7255 85.3394 39.41C85.3872 32.6589 83.8022 25.9963 80.7194 19.99L26.0194 51.44Z" fill="white"/>
<path d="M72.2694 8.55C71.0544 7.40312 69.7792 6.3216 68.4494 5.31L26.0194 29.94L5.55941 18.26C4.86941 19.53 4.16941 20.92 3.35941 22.42L25.7894 35.37L72.2694 8.55Z" fill="white"/>
<path d="M64.2894 2.54C62.6835 1.57865 61.0129 0.729942 59.2894 0L26.0194 19.16L11.1094 10.75C10.1094 11.75 9.10941 13.06 8.10941 14.33L25.9094 24.51L64.2894 2.54Z" fill="white"/>
</g>
</svg>
