<svg width="244" height="244" viewBox="0 0 244 244" fill="none" xmlns="http://www.w3.org/2000/svg">
<circle cx="122" cy="122" r="122" fill="#00A99C"/>
<rect x="79.9238" y="87.8467" width="19.4395" height="89.1535" fill="white"/>
<path d="M99.3633 126.726H124.501L156.341 177H131.204L99.3633 126.726Z" fill="white"/>
<path fill-rule="evenodd" clip-rule="evenodd" d="M138.911 114.66C146.316 114.66 152.318 108.657 152.318 101.253C152.318 93.849 146.316 87.8467 138.911 87.8467C131.507 87.8467 125.505 93.849 125.505 101.253C125.505 108.657 131.507 114.66 138.911 114.66ZM138.911 109.632C143.539 109.632 147.291 105.881 147.291 101.253C147.291 96.6256 143.539 92.8741 138.911 92.8741C134.284 92.8741 130.532 96.6256 130.532 101.253C130.532 105.881 134.284 109.632 138.911 109.632Z" fill="white"/>
<path fill-rule="evenodd" clip-rule="evenodd" d="M143.774 71.4235C148.309 71.4235 151.986 67.7471 151.986 63.212C151.986 58.6769 148.309 55.0005 143.774 55.0005C139.239 55.0005 135.562 58.6769 135.562 63.212C135.562 67.7471 139.239 71.4235 143.774 71.4235ZM143.774 67.7367C146.273 67.7367 148.299 65.7109 148.299 63.212C148.299 60.7131 146.273 58.6873 143.774 58.6873C141.275 58.6873 139.249 60.7131 139.249 63.212C139.249 65.7109 141.275 67.7367 143.774 67.7367Z" fill="white"/>
<path fill-rule="evenodd" clip-rule="evenodd" d="M165.223 94.885C170.684 94.885 175.111 90.4583 175.111 84.9977C175.111 79.5371 170.684 75.1104 165.223 75.1104C159.763 75.1104 155.336 79.5371 155.336 84.9977C155.336 90.4583 159.763 94.885 165.223 94.885ZM165.223 90.863C168.463 90.863 171.089 88.237 171.089 84.9977C171.089 81.7583 168.463 79.1323 165.223 79.1323C161.984 79.1323 159.358 81.7583 159.358 84.9977C159.358 88.237 161.984 90.863 165.223 90.863Z" fill="white"/>
</svg>
