<svg width="15" height="26" viewBox="0 0 15 26" fill="none" xmlns="http://www.w3.org/2000/svg">
<g opacity="0.3">
<path fill-rule="evenodd" clip-rule="evenodd" d="M14.4967 13.1297V11.6411C14.4967 11.6411 14.4474 11.1914 14.1999 10.9619C13.9727 10.7506 13.546 10.7573 13.546 10.7573C13.546 10.7573 11.5486 10.7864 11.2544 9.85935C10.9647 8.94548 13.1849 7.77195 14.0386 6.5281C14.6847 5.58752 14.5431 4.87279 14.5431 4.87279L14.4967 1.54694C14.4967 1.54694 14.3896 -0.192896 13.0216 0.632055C12.9097 0.699675 12.0097 1.11249 10.1603 3.10489C8.22474 5.19026 8.53782 4.91099 5.18966 2.39894C3.15061 0.869061 1.90575 0.257446 1.37257 0.448471C0.864751 0.630703 0.998975 1.75588 0.998975 1.75588L1.0223 5.50063C1.0223 5.50063 0.984437 5.7782 1.1075 5.9841C1.2282 6.18527 1.5095 6.31476 1.5095 6.31476C1.5095 6.31476 3.08739 6.90744 4.42929 7.69791C7.26084 9.36539 7.41027 10.0321 7.23446 10.3046C6.82469 10.9386 5.58828 10.7803 4.70991 10.7803C1.96593 10.7803 0.821814 10.3641 0.525643 11.5907C0.427257 11.9978 0.362343 12.2974 0.351862 13.3383C0.338 14.6745 0.355919 15.8054 0.669671 16.4458C0.878276 16.8718 1.34316 17.2004 1.36987 17.0003C1.403 16.7528 1.52099 16.1922 1.92569 15.895C2.44771 15.5113 3.62023 15.5248 3.62023 15.5248C3.62023 15.5248 6.85039 15.3044 7.25171 16.0397C7.52692 16.5445 6.965 17.2369 4.39616 18.7235C3.08029 19.4853 1.6258 20.0604 1.6258 20.0604C1.6258 20.0604 1.35397 20.1713 1.20859 20.369C1.03245 20.6091 0.976324 20.9445 0.976324 20.9445L0.999651 24.5029C0.999651 24.5029 1.01453 25.0371 1.2468 25.2332C1.45338 25.4077 1.88073 25.2471 1.88073 25.2471C1.88073 25.2471 8.39853 22.4612 11.6831 19.3067C14.6945 16.4143 14.4967 13.1297 14.4967 13.1297Z" fill="white"/>
</g>
</svg>
