<svg width="375" height="812" viewBox="0 0 375 812" fill="none" xmlns="http://www.w3.org/2000/svg">
<g clip-path="url(#clip0)">
<rect width="375" height="812" fill="#120B31"/>
<g filter="url(#filter0_d)">
<path d="M188.314 215.8L180.07 241H173.806L168.262 223.936L162.538 241H156.31L148.03 215.8H154.078L159.766 233.512L165.706 215.8H171.106L176.866 233.656L182.734 215.8H188.314ZM191.57 215.8H197.402V241H191.57V215.8ZM214.291 215.8C216.523 215.8 218.455 216.172 220.087 216.916C221.743 217.66 223.015 218.716 223.903 220.084C224.791 221.452 225.235 223.072 225.235 224.944C225.235 226.792 224.791 228.412 223.903 229.804C223.015 231.172 221.743 232.228 220.087 232.972C218.455 233.692 216.523 234.052 214.291 234.052H209.215V241H203.383V215.8H214.291ZM213.967 229.3C215.719 229.3 217.051 228.928 217.963 228.184C218.875 227.416 219.331 226.336 219.331 224.944C219.331 223.528 218.875 222.448 217.963 221.704C217.051 220.936 215.719 220.552 213.967 220.552H209.215V229.3H213.967Z" fill="white"/>
<g clip-path="url(#clip1)">
<g opacity="0.5" filter="url(#filter1_f)">
<path d="M54.9702 433.251C56.5691 438.002 58.7881 442.583 61.5944 446.882L53.5997 455.621C50.9891 458.477 51.2828 462.55 54.2197 465.123L67.9902 477.058C70.9597 479.631 75.6586 479.857 78.9544 477.595L88.9723 470.723C94.1281 473.296 99.6102 475.304 105.321 476.718L106.822 487.889C107.311 491.509 110.835 494.224 115.012 494.224H134.493C138.67 494.224 142.194 491.509 142.684 487.889L144.12 477.114C150.254 475.728 156.128 473.664 161.643 470.977L171.334 477.623C174.63 479.886 179.329 479.631 182.299 477.086L196.069 465.151C199.039 462.578 199.3 458.505 196.689 455.649L189.151 447.362C192.284 442.668 194.731 437.662 196.363 432.43L207.98 431.271C212.157 430.846 215.289 427.792 215.289 424.172V407.288C215.289 403.668 212.156 400.614 207.98 400.19L196.526 399.03C194.959 393.855 192.61 388.906 189.608 384.268L196.657 376.547C199.267 373.691 198.974 369.618 196.037 367.045L182.299 355.138C179.329 352.565 174.63 352.338 171.335 354.601L162.687 360.54C157.075 357.684 151.07 355.506 144.773 354.035L143.467 344.335C142.978 340.715 139.454 338 135.277 338H115.796C111.619 338 108.095 340.715 107.605 344.335L106.3 354.035C99.8389 355.534 93.6715 357.797 87.9284 360.766L78.9547 354.601C75.6589 352.338 70.96 352.593 67.9905 355.138L54.22 367.073C51.2505 369.646 50.9895 373.719 53.6 376.575L61.1052 384.805C58.1031 389.5 55.8189 394.505 54.3179 399.709L42.3095 400.897C38.1326 401.321 35 404.375 35 407.995V424.879C35 428.499 38.1326 431.553 42.3095 431.978L54.9702 433.251ZM125.552 387.577C143.304 387.577 157.76 400.105 157.76 415.49C157.76 430.875 143.304 443.403 125.552 443.403C107.801 443.403 93.3449 430.875 93.3449 415.49C93.3449 400.105 107.801 387.577 125.552 387.577Z" fill="url(#paint0_linear)"/>
<path d="M318.144 437.408L307.865 429.885C304.7 427.566 300.033 427.679 297.031 430.14L291.354 434.749C286.557 432.742 281.467 431.328 276.213 430.507L274.614 423.72C273.798 420.213 270.046 417.781 265.934 418.064L252.522 419.054C248.41 419.365 245.18 422.278 245.049 425.869L244.789 432.77C239.633 434.382 234.77 436.588 230.333 439.359L223.546 435.457C220.086 433.477 215.485 434.042 212.81 436.786L204.13 445.751C201.454 448.494 201.584 452.538 204.423 455.14L210.362 460.626C208.306 464.642 206.837 468.856 205.989 473.183L197.505 474.682C193.459 475.389 190.653 478.641 190.979 482.205L192.121 493.828C192.48 497.392 195.841 500.192 199.985 500.305L209.155 500.559C210.82 504.349 213.006 507.941 215.648 511.306L210.526 518.008C208.241 521.006 208.894 524.994 212.059 527.313L222.338 534.836C225.503 537.155 230.169 537.041 233.172 534.581L239.894 529.123C244.299 530.904 248.933 532.234 253.697 533.026L255.557 541.001C256.373 544.508 260.125 546.94 264.237 546.657L277.649 545.667C281.76 545.356 284.991 542.443 285.121 538.851L285.415 531.046C290.31 529.547 294.943 527.51 299.218 524.994L306.625 529.236C310.084 531.216 314.685 530.65 317.361 527.907L326.041 518.998C328.717 516.255 328.586 512.211 325.748 509.609L319.776 504.123C321.962 500.107 323.562 495.865 324.475 491.509L332.632 490.067C336.679 489.36 339.485 486.107 339.159 482.544L338.017 470.92C337.658 467.357 334.297 464.557 330.152 464.444L321.962 464.218C320.265 460.089 317.981 456.186 315.142 452.566L319.612 446.74C321.962 443.743 321.309 439.727 318.144 437.408ZM267.598 504.603C253.11 505.678 240.317 496.317 239.11 483.76C237.87 471.204 248.672 460.117 263.16 459.071C277.648 457.996 290.44 467.357 291.647 479.914C292.888 492.471 282.086 503.557 267.598 504.603Z" fill="url(#paint1_linear)"/>
<path d="M101.895 535.882C97.7837 536.25 94.6184 539.247 94.5858 542.839L94.4879 549.994C94.4226 553.586 97.49 556.64 101.602 557.093L107.671 557.772C108.683 560.968 110.118 564.022 111.978 566.907L108.063 571.092C105.452 573.892 105.648 577.908 108.552 580.481L114.328 585.6C117.232 588.174 121.866 588.457 125.162 586.251L130.023 582.998C133.45 584.752 137.072 586.138 140.857 587.099L141.51 592.529C141.934 596.093 145.393 598.836 149.537 598.864L157.793 598.949C161.937 599.006 165.462 596.347 165.984 592.784L166.734 587.637C170.846 586.76 174.762 585.431 178.482 583.677L183.05 586.873C186.28 589.135 190.914 588.966 193.884 586.449L199.79 581.443C202.76 578.926 203.086 574.91 200.541 572.054L197.049 568.122C199.203 565.012 200.867 561.703 202.009 558.224L207.426 557.743C211.538 557.376 214.703 554.378 214.736 550.786L214.833 543.631C214.899 540.039 211.831 536.985 207.72 536.532L202.433 535.938C201.421 532.488 199.921 529.151 197.963 526.04L201.259 522.533C203.869 519.733 203.673 515.718 200.769 513.144L194.994 508.025C192.09 505.451 187.455 505.168 184.16 507.375L180.211 510.005C176.491 508.053 172.51 506.555 168.333 505.536L167.811 501.096C167.387 497.533 163.928 494.79 159.784 494.761L151.528 494.677C147.384 494.62 143.859 497.278 143.337 500.842L142.684 505.254C138.377 506.215 134.233 507.686 130.383 509.609L126.304 506.724C123.073 504.462 118.439 504.632 115.47 507.148L109.531 512.183C106.561 514.699 106.235 518.716 108.78 521.572L112.272 525.475C110.249 528.586 108.65 531.894 107.605 535.373L101.895 535.882ZM155.183 527.794C167.028 527.907 176.523 536.363 176.393 546.629C176.263 556.895 166.505 565.124 154.66 565.012C142.815 564.898 133.319 556.442 133.45 546.176C133.58 535.91 143.337 527.681 155.183 527.794Z" fill="url(#paint2_linear)"/>
</g>
<path d="M54.9702 433.251C56.5691 438.002 58.7881 442.583 61.5944 446.882L53.5997 455.621C50.9891 458.477 51.2828 462.55 54.2197 465.123L67.9902 477.058C70.9597 479.631 75.6586 479.857 78.9544 477.595L88.9723 470.723C94.1281 473.296 99.6102 475.304 105.321 476.718L106.822 487.889C107.311 491.509 110.835 494.224 115.012 494.224H134.493C138.67 494.224 142.194 491.509 142.684 487.889L144.12 477.114C150.254 475.728 156.128 473.664 161.643 470.977L171.334 477.623C174.63 479.886 179.329 479.631 182.299 477.086L196.069 465.151C199.039 462.578 199.3 458.505 196.689 455.649L189.151 447.362C192.284 442.668 194.731 437.662 196.363 432.43L207.98 431.271C212.157 430.846 215.289 427.792 215.289 424.172V407.288C215.289 403.668 212.156 400.614 207.98 400.19L196.526 399.03C194.959 393.855 192.61 388.906 189.608 384.268L196.657 376.547C199.267 373.691 198.974 369.618 196.037 367.045L182.299 355.138C179.329 352.565 174.63 352.338 171.335 354.601L162.687 360.54C157.075 357.684 151.07 355.506 144.773 354.035L143.467 344.335C142.978 340.715 139.454 338 135.277 338H115.796C111.619 338 108.095 340.715 107.605 344.335L106.3 354.035C99.8389 355.534 93.6715 357.797 87.9284 360.766L78.9547 354.601C75.6589 352.338 70.96 352.593 67.9905 355.138L54.22 367.073C51.2505 369.646 50.9895 373.719 53.6 376.575L61.1052 384.805C58.1031 389.5 55.8189 394.505 54.3179 399.709L42.3095 400.897C38.1326 401.321 35 404.375 35 407.995V424.879C35 428.499 38.1326 431.553 42.3095 431.978L54.9702 433.251ZM125.552 387.577C143.304 387.577 157.76 400.105 157.76 415.49C157.76 430.875 143.304 443.403 125.552 443.403C107.801 443.403 93.3449 430.875 93.3449 415.49C93.3449 400.105 107.801 387.577 125.552 387.577Z" fill="url(#paint3_linear)"/>
<path d="M318.144 437.408L307.865 429.885C304.7 427.566 300.033 427.679 297.031 430.14L291.354 434.749C286.557 432.742 281.467 431.328 276.213 430.507L274.614 423.72C273.798 420.213 270.046 417.781 265.934 418.064L252.522 419.054C248.41 419.365 245.18 422.278 245.049 425.869L244.789 432.77C239.633 434.382 234.77 436.588 230.333 439.359L223.546 435.457C220.086 433.477 215.485 434.042 212.81 436.786L204.13 445.751C201.454 448.494 201.584 452.538 204.423 455.14L210.362 460.626C208.306 464.642 206.837 468.856 205.989 473.183L197.505 474.682C193.459 475.389 190.653 478.641 190.979 482.205L192.121 493.828C192.48 497.392 195.841 500.192 199.985 500.305L209.155 500.559C210.82 504.349 213.006 507.941 215.648 511.306L210.526 518.008C208.241 521.006 208.894 524.994 212.059 527.313L222.338 534.836C225.503 537.155 230.169 537.041 233.172 534.581L239.894 529.123C244.299 530.904 248.933 532.234 253.697 533.026L255.557 541.001C256.373 544.508 260.125 546.94 264.237 546.657L277.649 545.667C281.76 545.356 284.991 542.443 285.121 538.851L285.415 531.046C290.31 529.547 294.943 527.51 299.218 524.994L306.625 529.236C310.084 531.216 314.685 530.65 317.361 527.907L326.041 518.998C328.717 516.255 328.586 512.211 325.748 509.609L319.776 504.123C321.962 500.107 323.562 495.865 324.475 491.509L332.632 490.067C336.679 489.36 339.485 486.107 339.159 482.544L338.017 470.92C337.658 467.357 334.297 464.557 330.152 464.444L321.962 464.218C320.265 460.089 317.981 456.186 315.142 452.566L319.612 446.74C321.962 443.743 321.309 439.727 318.144 437.408ZM267.598 504.603C253.11 505.678 240.317 496.317 239.11 483.76C237.87 471.204 248.672 460.117 263.16 459.071C277.648 457.996 290.44 467.357 291.647 479.914C292.888 492.471 282.086 503.557 267.598 504.603Z" fill="url(#paint4_linear)"/>
<path d="M101.895 535.882C97.7837 536.25 94.6184 539.247 94.5858 542.839L94.4879 549.994C94.4226 553.586 97.49 556.64 101.602 557.093L107.671 557.772C108.683 560.968 110.118 564.022 111.978 566.907L108.063 571.092C105.452 573.892 105.648 577.908 108.552 580.481L114.328 585.6C117.232 588.174 121.866 588.457 125.162 586.251L130.023 582.998C133.45 584.752 137.072 586.138 140.857 587.099L141.51 592.529C141.934 596.093 145.393 598.836 149.537 598.864L157.793 598.949C161.937 599.006 165.462 596.347 165.984 592.784L166.734 587.637C170.846 586.76 174.762 585.431 178.482 583.677L183.05 586.873C186.28 589.135 190.914 588.966 193.884 586.449L199.79 581.443C202.76 578.926 203.086 574.91 200.541 572.054L197.049 568.122C199.203 565.012 200.867 561.703 202.009 558.224L207.426 557.743C211.538 557.376 214.703 554.378 214.736 550.786L214.833 543.631C214.899 540.039 211.831 536.985 207.72 536.532L202.433 535.938C201.421 532.488 199.921 529.151 197.963 526.04L201.259 522.533C203.869 519.733 203.673 515.718 200.769 513.144L194.994 508.025C192.09 505.451 187.455 505.168 184.16 507.375L180.211 510.005C176.491 508.053 172.51 506.555 168.333 505.536L167.811 501.096C167.387 497.533 163.928 494.79 159.784 494.761L151.528 494.677C147.384 494.62 143.859 497.278 143.337 500.842L142.684 505.254C138.377 506.215 134.233 507.686 130.383 509.609L126.304 506.724C123.073 504.462 118.439 504.632 115.47 507.148L109.531 512.183C106.561 514.699 106.235 518.716 108.78 521.572L112.272 525.475C110.249 528.586 108.65 531.894 107.605 535.373L101.895 535.882ZM155.183 527.794C167.028 527.907 176.523 536.363 176.393 546.629C176.263 556.895 166.505 565.124 154.66 565.012C142.815 564.898 133.319 556.442 133.45 546.176C133.58 535.91 143.337 527.681 155.183 527.794Z" fill="url(#paint5_linear)"/>
</g>
</g>
<path opacity="0.02" fill-rule="evenodd" clip-rule="evenodd" d="M209.548 725.283C191.954 733.196 179.858 751.281 179.858 772.381C179.858 800.64 202.217 824 230.075 824C257.932 824 280.658 800.263 279.925 771.627C281.025 733.572 300.452 704.56 329.776 685.721V685.344C346.637 677.055 358 658.969 358 639C358 619.784 348.103 602.452 331.609 593.409C302.285 575.324 282.125 542.921 280.292 505.619C280.292 477.36 257.566 454 230.075 454C202.217 454 179.858 477.36 179.858 505.619C179.858 524.835 190.121 541.79 205.516 550.456C272.228 588.134 276.626 685.344 209.548 725.283ZM119.744 603.206C119.744 598.308 121.577 594.54 124.509 591.149C127.075 588.888 129.641 587.381 132.939 586.627C134.406 586.251 136.238 585.874 138.071 585.874C143.203 585.874 150.167 588.511 153.833 591.902L184.623 623.929C188.655 627.697 190.488 632.971 190.488 637.87C190.488 643.145 188.655 648.42 184.623 652.187L151.633 686.098C149.068 688.735 145.402 690.619 141.737 691.749C139.171 692.126 136.605 692.126 134.039 691.749C129.274 690.996 125.242 688.358 122.31 683.837C120.843 681.2 119.744 678.185 119.744 674.794L119.744 603.206ZM73.9253 454C46.4342 454 24.0747 477.36 24.0747 505.619C24.0747 534.255 46.4342 557.238 73.9253 557.238C101.783 557.238 124.142 534.255 124.142 505.619C124.142 477.36 101.783 454 73.9253 454ZM73.9253 720.762C46.4342 720.762 24.0747 743.745 24.0747 772.381C24.0747 800.64 46.4342 824 73.9253 824C101.783 824 124.142 800.64 124.142 772.381C124.142 743.745 101.783 720.762 73.9253 720.762ZM-3.78292 587.381C-31.6406 587.381 -54 610.741 -54 639C-54 667.635 -31.6406 690.619 -3.78292 690.619C23.7082 690.619 46.0676 667.635 46.0676 639C46.0676 610.741 23.7082 587.381 -3.78292 587.381Z" fill="white"/>
<path fill-rule="evenodd" clip-rule="evenodd" d="M52.8131 54.8486C51.2901 55.515 50.243 57.0382 50.243 58.8154C50.243 61.1954 52.1785 63.1629 54.5899 63.1629C57.0013 63.1629 58.9685 61.1637 58.905 58.7519C59.0002 55.5467 60.6818 53.1032 63.2201 51.5165V51.4848C64.6797 50.7866 65.6633 49.2634 65.6633 47.5815C65.6633 45.963 64.8066 44.5033 63.3788 43.7416C60.8405 42.2184 59.0954 39.4893 58.9367 36.3476C58.9367 33.9675 56.9695 32 54.5899 32C52.1785 32 50.243 33.9675 50.243 36.3476C50.243 37.966 51.1314 39.3941 52.464 40.1239C58.2387 43.2974 58.6194 51.4848 52.8131 54.8486ZM45.0395 44.5667C45.0395 44.1542 45.1981 43.8368 45.452 43.5512C45.6741 43.3608 45.8962 43.2339 46.1817 43.1704C46.3086 43.1387 46.4673 43.107 46.6259 43.107C47.0701 43.107 47.673 43.3291 47.9903 43.6147L50.6555 46.3121C51.0045 46.6294 51.1632 47.0737 51.1632 47.4863C51.1632 47.9305 51.0045 48.3748 50.6555 48.6922L47.7999 51.5482C47.5778 51.7704 47.2605 51.929 46.9432 52.0242C46.7211 52.056 46.499 52.056 46.2769 52.0242C45.8644 51.9608 45.5154 51.7386 45.2616 51.3578C45.1347 51.1357 45.0395 50.8818 45.0395 50.5962V44.5667ZM41.0734 32C38.6937 32 36.7583 33.9675 36.7583 36.3476C36.7583 38.7594 38.6937 40.6952 41.0734 40.6952C43.4848 40.6952 45.4202 38.7594 45.4202 36.3476C45.4202 33.9675 43.4848 32 41.0734 32ZM41.0734 54.4678C38.6937 54.4678 36.7583 56.4036 36.7583 58.8154C36.7583 61.1954 38.6937 63.1629 41.0734 63.1629C43.4848 63.1629 45.4202 61.1954 45.4202 58.8154C45.4202 56.4036 43.4848 54.4678 41.0734 54.4678ZM34.3469 43.2339C31.9355 43.2339 30 45.2014 30 47.5815C30 49.9933 31.9355 51.929 34.3469 51.929C36.7265 51.929 38.662 49.9933 38.662 47.5815C38.662 45.2014 36.7265 43.2339 34.3469 43.2339Z" fill="url(#paint6_linear)"/>
<path d="M171.371 43.877V46.4157H173.846V54.7618H176.702V46.4157H180.001V43.877H176.702V40.4814H173.846V43.877H171.371Z" fill="white"/>
<path d="M170.26 54.7627V43.8779H167.404V54.7627H170.26Z" fill="white"/>
<path d="M168.863 42.8619C169.657 42.8619 170.291 42.2272 170.291 41.4339C170.291 40.6723 169.657 40.0059 168.863 40.0059C168.102 40.0059 167.436 40.6723 167.436 41.4339C167.436 42.2272 168.102 42.8619 168.863 42.8619Z" fill="white"/>
<path d="M141.449 54.7622H144.273V48.7962C144.273 47.0826 145.161 46.0671 146.526 46.0671C148.207 46.0671 148.969 47.5268 148.969 48.7962V54.7622H151.825V48.7962C151.825 47.5268 152.586 46.0671 154.236 46.0671C155.632 46.0671 156.52 47.0826 156.52 48.7962V54.7622H159.344V48.3837C159.344 45.0516 156.425 43.6553 154.299 43.6553C152.745 43.6553 151.349 44.2582 150.428 45.1785C149.54 44.2582 148.144 43.6553 146.558 43.6553C143.861 43.6553 141.449 45.5276 141.449 48.3837V54.7622Z" fill="white"/>
<path d="M134.564 55.0791C136.055 55.0791 137.801 54.3809 138.879 53.0798C139.958 51.8105 140.275 50.4776 140.275 49.3352C140.275 48.3832 140.022 47.4311 139.546 46.5109C139.006 45.6223 138.308 44.8924 137.388 44.3847C136.5 43.8769 135.548 43.623 134.564 43.623C133.073 43.623 131.55 44.2895 130.662 45.178C129.266 46.5743 128.885 48.2245 128.885 49.3352C128.885 52.4451 131.455 55.0791 134.564 55.0791ZM131.709 49.4621C131.709 48.8909 131.867 48.3197 132.216 47.8437C132.883 46.8599 133.898 46.5426 134.596 46.5426C135.389 46.5426 136.087 46.8282 136.658 47.3994C137.229 47.9706 137.515 48.6688 137.515 49.4621C137.515 50.2555 137.229 50.9219 136.658 51.4931C136.087 52.0643 135.389 52.3499 134.596 52.3499C134.025 52.3499 133.485 52.1595 133.01 51.8422C132.026 51.1758 131.709 50.1603 131.709 49.4621Z" fill="white"/>
<path d="M119.113 53.4606C120.7 54.4761 122.223 54.9839 123.619 54.9839C124.412 54.9839 125.142 54.8569 125.872 54.5396C127.236 54.0001 128.124 52.9846 128.124 51.6201C128.124 49.9381 127.109 49.2717 126.252 48.7957C125.935 48.637 125.332 48.4149 124.444 48.0976C123.555 47.7802 123.016 47.5264 122.826 47.3359C122.635 47.1455 122.54 46.9551 122.54 46.7647C122.54 46.3522 122.857 46.0666 123.651 46.0666C123.968 46.0666 124.317 46.1618 124.761 46.2887C125.142 46.4474 125.776 46.7647 126.601 47.209L127.87 45.1463C126.665 44.2577 125.078 43.6865 123.682 43.6865C122.952 43.6865 122.286 43.8135 121.652 44.0673C120.382 44.6068 119.684 45.5906 119.684 46.8599C119.684 48.161 120.382 49.1131 122.603 49.9381C123.746 50.3507 124.38 50.6363 124.602 50.7632C124.983 50.9854 125.237 51.271 125.237 51.6201C125.237 52.1595 124.666 52.6038 123.587 52.6038C122.508 52.6038 121.271 52.0009 120.319 51.3345L119.113 53.4606Z" fill="white"/>
<path d="M109.562 53.4606C111.149 54.4761 112.672 54.9839 114.068 54.9839C114.829 54.9839 115.591 54.8569 116.289 54.5396C117.685 54.0001 118.542 52.9846 118.542 51.6201C118.542 49.9381 117.526 49.2717 116.701 48.7957C116.384 48.637 115.781 48.4149 114.893 48.0976C114.005 47.7802 113.465 47.5264 113.275 47.3359C113.084 47.1455 112.989 46.9551 112.989 46.7647C112.989 46.3522 113.307 46.0666 114.1 46.0666C114.417 46.0666 114.766 46.1618 115.179 46.2887C115.591 46.4474 116.194 46.7647 117.051 47.209L118.32 45.1463C117.082 44.2577 115.496 43.6865 114.131 43.6865C113.402 43.6865 112.704 43.8135 112.101 44.0673C110.832 44.6068 110.102 45.5906 110.102 46.8599C110.102 48.161 110.832 49.1131 113.053 49.9381C114.163 50.3507 114.829 50.6363 115.052 50.7632C115.432 50.9854 115.686 51.271 115.686 51.6201C115.686 52.1595 115.115 52.6038 114.036 52.6038C112.957 52.6038 111.72 52.0009 110.768 51.3345L109.562 53.4606Z" fill="white"/>
<path d="M103.597 55.0791C105.089 55.0791 106.834 54.3809 107.913 53.0798C108.991 51.8105 109.309 50.4776 109.309 49.3352C109.309 48.3832 109.055 47.4311 108.547 46.5109C108.039 45.6223 107.341 44.8924 106.421 44.3847C105.501 43.8769 104.581 43.623 103.597 43.623C102.106 43.623 100.583 44.2895 99.6948 45.178C98.2987 46.5743 97.918 48.2245 97.918 49.3352C97.918 52.4451 100.488 55.0791 103.597 55.0791ZM100.742 49.4621C100.742 48.8909 100.9 48.3197 101.218 47.8437C101.884 46.8599 102.899 46.5426 103.629 46.5426C104.422 46.5426 105.12 46.8282 105.692 47.3994C106.263 47.9706 106.516 48.6688 106.516 49.4621C106.516 50.2555 106.263 50.9219 105.692 51.4931C105.12 52.0643 104.422 52.3499 103.629 52.3499C103.058 52.3499 102.519 52.1595 102.043 51.8422C101.059 51.1758 100.742 50.1603 100.742 49.4621Z" fill="white"/>
<path d="M96.5543 54.7616V39.2119H93.7305V54.7616H96.5543Z" fill="white"/>
<path d="M87.0981 54.7617C90.3662 54.7617 92.2699 53.1749 92.2699 50.3506C92.2699 48.986 91.6988 47.8753 90.5248 46.9868C91.6988 46.13 92.2699 45.0193 92.2699 43.6547C92.2699 40.8621 90.3662 39.2436 87.0981 39.2436L78.6582 39.2119V54.7617H87.0981ZM81.5773 48.3514H87.1615C88.4307 48.3514 89.1922 49.0812 89.1922 50.1919C89.1922 51.2709 88.399 52.0642 87.1298 52.0642H81.5455L81.5773 48.3514ZM81.5455 41.9728H87.1298C88.399 41.9728 89.1922 42.7344 89.1922 43.8134C89.1922 44.9558 88.4307 45.6857 87.1615 45.6857H81.5773L81.5455 41.9728Z" fill="white"/>
</g>
<defs>
<filter id="filter0_d" x="18" y="215.8" width="339" height="410.2" filterUnits="userSpaceOnUse" color-interpolation-filters="sRGB">
<feFlood flood-opacity="0" result="BackgroundImageFix"/>
<feColorMatrix in="SourceAlpha" type="matrix" values="0 0 0 0 0 0 0 0 0 0 0 0 0 0 0 0 0 0 127 0"/>
<feOffset dy="4"/>
<feGaussianBlur stdDeviation="1"/>
<feColorMatrix type="matrix" values="0 0 0 0 0 0 0 0 0 0 0 0 0 0 0 0 0 0 0.25 0"/>
<feBlend mode="normal" in2="BackgroundImageFix" result="effect1_dropShadow"/>
<feBlend mode="normal" in="SourceGraphic" in2="effect1_dropShadow" result="shape"/>
</filter>
<filter id="filter1_f" x="-5" y="298" width="384.185" height="340.95" filterUnits="userSpaceOnUse" color-interpolation-filters="sRGB">
<feFlood flood-opacity="0" result="BackgroundImageFix"/>
<feBlend mode="normal" in="SourceGraphic" in2="BackgroundImageFix" result="shape"/>
<feGaussianBlur stdDeviation="20" result="effect1_foregroundBlur"/>
</filter>
<linearGradient id="paint0_linear" x1="34.9973" y1="468.475" x2="339.206" y2="468.475" gradientUnits="userSpaceOnUse">
<stop stop-color="#FFCC67"/>
<stop offset="0.231373" stop-color="#FE785C"/>
<stop offset="0.501961" stop-color="#EA5BDA"/>
<stop offset="1" stop-color="#492AF3"/>
</linearGradient>
<linearGradient id="paint1_linear" x1="34.9973" y1="468.475" x2="339.206" y2="468.475" gradientUnits="userSpaceOnUse">
<stop stop-color="#FFCC67"/>
<stop offset="0.231373" stop-color="#FE785C"/>
<stop offset="0.501961" stop-color="#EA5BDA"/>
<stop offset="1" stop-color="#492AF3"/>
</linearGradient>
<linearGradient id="paint2_linear" x1="34.9973" y1="468.475" x2="339.206" y2="468.475" gradientUnits="userSpaceOnUse">
<stop stop-color="#FFCC67"/>
<stop offset="0.231373" stop-color="#FE785C"/>
<stop offset="0.501961" stop-color="#EA5BDA"/>
<stop offset="1" stop-color="#492AF3"/>
</linearGradient>
<linearGradient id="paint3_linear" x1="34.9973" y1="468.475" x2="339.206" y2="468.475" gradientUnits="userSpaceOnUse">
<stop stop-color="#FFCC67"/>
<stop offset="0.231373" stop-color="#FE785C"/>
<stop offset="0.501961" stop-color="#EA5BDA"/>
<stop offset="1" stop-color="#492AF3"/>
</linearGradient>
<linearGradient id="paint4_linear" x1="34.9973" y1="468.475" x2="339.206" y2="468.475" gradientUnits="userSpaceOnUse">
<stop stop-color="#FFCC67"/>
<stop offset="0.231373" stop-color="#FE785C"/>
<stop offset="0.501961" stop-color="#EA5BDA"/>
<stop offset="1" stop-color="#492AF3"/>
</linearGradient>
<linearGradient id="paint5_linear" x1="34.9973" y1="468.475" x2="339.206" y2="468.475" gradientUnits="userSpaceOnUse">
<stop stop-color="#FFCC67"/>
<stop offset="0.231373" stop-color="#FE785C"/>
<stop offset="0.501961" stop-color="#EA5BDA"/>
<stop offset="1" stop-color="#492AF3"/>
</linearGradient>
<linearGradient id="paint6_linear" x1="29.9997" y1="47.5815" x2="65.6658" y2="47.5815" gradientUnits="userSpaceOnUse">
<stop stop-color="#FFCC67"/>
<stop offset="0.231373" stop-color="#FE785C"/>
<stop offset="0.501961" stop-color="#EA5BDA"/>
<stop offset="1" stop-color="#492AF3"/>
</linearGradient>
<clipPath id="clip0">
<rect width="375" height="812" fill="white"/>
</clipPath>
<clipPath id="clip1">
<rect width="335" height="304" fill="white" transform="translate(20 316)"/>
</clipPath>
</defs>
</svg>
