<svg width="15" height="12" viewBox="0 0 15 12" fill="none" xmlns="http://www.w3.org/2000/svg">
<path d="M14.6327 0.33902C14.3879 0.113082 14.0938 0 13.7499 0H1.25C0.906256 0 0.61207 0.113082 0.367138 0.33902C0.122343 0.565033 0 0.836563 0 1.15389V9.00002C0 9.31742 0.122343 9.58892 0.367138 9.81499C0.61207 10.0409 0.906256 10.1538 1.25 10.1538H5.50006C5.50006 10.3364 5.45836 10.5241 5.37501 10.7163C5.29171 10.9086 5.20836 11.0768 5.12502 11.221C5.04178 11.3653 5.0001 11.471 5.0001 11.5382C5.0001 11.6632 5.04955 11.7716 5.14852 11.8627C5.24744 11.9542 5.36464 12 5.50006 12H9.50005C9.63547 12 9.7527 11.9542 9.85162 11.8627C9.95067 11.7716 10.0001 11.6632 10.0001 11.5382C10.0001 11.4759 9.95836 11.3712 9.87504 11.2246C9.79169 11.0781 9.70834 10.9072 9.6251 10.7127C9.54175 10.518 9.50008 10.3317 9.50008 10.1538H13.7501C14.0938 10.1538 14.388 10.0409 14.6327 9.81499C14.8776 9.58895 15 9.31744 15 9.00002V1.15389C15.0001 0.836563 14.8776 0.565033 14.6327 0.33902ZM14 7.15385C14 7.21636 13.9753 7.27036 13.9258 7.31611C13.8763 7.36167 13.8176 7.38448 13.7499 7.38448H1.25C1.18233 7.38448 1.12371 7.36167 1.07424 7.31611C1.0248 7.27021 1.00003 7.21636 1.00003 7.15385V1.15389C1.00003 1.09137 1.02471 1.03732 1.07424 0.99165C1.12374 0.946058 1.18235 0.923149 1.25 0.923149H13.7501C13.8177 0.923149 13.8765 0.945983 13.9258 0.99165C13.9753 1.03734 14 1.0914 14 1.15389V7.15385Z" fill="white"/>
</svg>
