<svg width="13" height="16" viewBox="0 0 13 16" fill="none" xmlns="http://www.w3.org/2000/svg">
<rect y="4.30762" width="2.54945" height="11.6923" fill="white"/>
<path d="M2.54883 9.40625H5.84553L10.0213 15.9996H6.72465L2.54883 9.40625Z" fill="white"/>
<path fill-rule="evenodd" clip-rule="evenodd" d="M7.73676 7.8241C8.7078 7.8241 9.49499 7.03691 9.49499 6.06586C9.49499 5.09481 8.7078 4.30762 7.73676 4.30762C6.76571 4.30762 5.97852 5.09481 5.97852 6.06586C5.97852 7.03691 6.76571 7.8241 7.73676 7.8241ZM7.73676 7.16476C8.34366 7.16476 8.83565 6.67276 8.83565 6.06586C8.83565 5.45895 8.34366 4.96696 7.73676 4.96696C7.12985 4.96696 6.63786 5.45895 6.63786 6.06586C6.63786 6.67276 7.12985 7.16476 7.73676 7.16476Z" fill="white"/>
<path fill-rule="evenodd" clip-rule="evenodd" d="M8.3738 2.15384C8.96856 2.15384 9.45072 1.67169 9.45072 1.07692C9.45072 0.482154 8.96856 0 8.3738 0C7.77904 0 7.29688 0.482154 7.29688 1.07692C7.29688 1.67169 7.77904 2.15384 8.3738 2.15384ZM8.3738 1.67033C8.70154 1.67033 8.9672 1.40465 8.9672 1.07692C8.9672 0.749193 8.70154 0.483516 8.3738 0.483516C8.04606 0.483516 7.78039 0.749193 7.78039 1.07692C7.78039 1.40465 8.04606 1.67033 8.3738 1.67033Z" fill="white"/>
<path fill-rule="evenodd" clip-rule="evenodd" d="M11.1873 5.2311C11.9035 5.2311 12.484 4.65055 12.484 3.9344C12.484 3.21825 11.9035 2.6377 11.1873 2.6377C10.4712 2.6377 9.89062 3.21825 9.89062 3.9344C9.89062 4.65055 10.4712 5.2311 11.1873 5.2311ZM11.1873 4.70363C11.6122 4.70363 11.9566 4.35923 11.9566 3.9344C11.9566 3.50956 11.6122 3.16517 11.1873 3.16517C10.7625 3.16517 10.4181 3.50956 10.4181 3.9344C10.4181 4.35923 10.7625 4.70363 11.1873 4.70363Z" fill="white"/>
</svg>
