<svg width="8" height="13" viewBox="0 0 8 13" fill="none" xmlns="http://www.w3.org/2000/svg">
<path d="M7.06984 0H0.930159C0.41865 0 0 0.394829 0 0.878057V12.1216C0 12.6048 0.41865 13 0.930159 13H7.06984C7.58135 13 8 12.6055 8 12.1219V0.878057C8 0.394829 7.58135 0 7.06984 0ZM3.0179 0.632914H4.9821C5.04427 0.632914 5.09463 0.680457 5.09463 0.739514C5.09463 0.7982 5.04427 0.845743 4.9821 0.845743H3.0179C2.95573 0.845743 2.90537 0.7982 2.90537 0.739514C2.90537 0.680457 2.95573 0.632914 3.0179 0.632914ZM4 12.561C3.74307 12.561 3.53492 12.3645 3.53492 12.1216C3.53492 11.8787 3.74307 11.6825 4 11.6825C4.25693 11.6825 4.46508 11.8787 4.46508 12.1216C4.46508 12.3645 4.25693 12.561 4 12.561ZM7.35274 11.375H0.647256V1.39249H7.35274V11.375Z" fill="white"/>
</svg>
