<svg width="36" height="22" viewBox="0 0 36 22" fill="none" xmlns="http://www.w3.org/2000/svg">
<g opacity="0.2">
<path d="M14.8107 9.944C15.5578 9.5766 16.1226 9.1674 16.5096 8.7252C17.1981 7.9288 17.5379 6.8728 17.5379 5.5638C17.5379 4.29 17.1981 3.201 16.5186 2.288C15.3845 0.8008 13.4651 0.0396 10.7514 0H0V21.4566H10.0246C11.1542 21.4566 12.2005 21.362 13.1681 21.1684C14.1356 20.9726 14.9727 20.614 15.6815 20.0904C16.3116 19.635 16.8381 19.0696 17.2566 18.403C17.9182 17.3954 18.249 16.2536 18.249 14.982C18.249 13.75 17.9587 12.7006 17.3827 11.8382C16.7999 10.9758 15.9448 10.3444 14.8107 9.944ZM4.43511 3.7268H9.2775C10.3418 3.7268 11.2194 3.839 11.908 4.0612C12.7045 4.3846 13.1028 5.0424 13.1028 6.0456C13.1028 6.9454 12.799 7.5746 12.1982 7.9288C11.5929 8.283 10.8076 8.4612 9.84455 8.4612H4.43511V3.7268ZM12.0925 17.3558C11.5569 17.6088 10.8031 17.7342 9.8378 17.7342H4.43511V12.012H9.91205C10.8661 12.0186 11.6087 12.1418 12.1397 12.3728C13.0848 12.7908 13.5551 13.5564 13.5551 14.6762C13.5551 15.9962 13.0691 16.885 12.0925 17.3558Z" fill="white"/>
<path d="M32.5399 1.001H23.0059V3.6718H32.5399V1.001Z" fill="white"/>
<path d="M35.8522 11.5412C35.6541 10.2982 35.2176 9.2048 34.538 8.261C33.7932 7.1918 32.8482 6.4086 31.6983 5.9136C30.553 5.4164 29.2636 5.1678 27.828 5.17C25.4181 5.17 23.4604 5.907 21.946 7.37C20.4362 8.8374 19.6801 10.9472 19.6801 13.6972C19.6801 16.6298 20.5149 18.7484 22.1935 20.0486C23.8654 21.351 25.7961 22 27.9878 22C30.6407 22 32.7042 21.2278 34.178 19.6878C35.1208 18.7154 35.6541 17.7584 35.7711 16.819H31.3788C31.1245 17.2832 30.8297 17.6462 30.4922 17.9102C29.8802 18.3942 29.0836 18.6362 28.107 18.6362C27.1777 18.6362 26.3901 18.436 25.7331 18.0378C24.6485 17.3998 24.0815 16.2822 24.0094 14.6916H35.9962C36.0142 13.321 35.9692 12.2672 35.8522 11.5412ZM24.1175 11.9526C24.275 10.9208 24.6575 10.1024 25.265 9.4974C25.8726 8.8946 26.7322 8.591 27.8325 8.5888C28.8473 8.5888 29.6957 8.8726 30.3865 9.4424C31.0683 10.0166 31.453 10.8504 31.5318 11.9526H24.1175Z" fill="white"/>
</g>
</svg>
