<svg width="67" height="86" viewBox="0 0 67 86" fill="none" xmlns="http://www.w3.org/2000/svg">
<rect x="0.0976562" y="23.4297" width="13.6429" height="62.5693" fill="#028087"/>
<path d="M13.7402 50.7158H31.382L53.7281 85.9993H36.0864L13.7402 50.7158Z" fill="#58BDAD"/>
<path fill-rule="evenodd" clip-rule="evenodd" d="M41.4988 42.2475C46.6951 42.2475 50.9077 38.035 50.9077 32.8386C50.9077 27.6422 46.6951 23.4297 41.4988 23.4297C36.3024 23.4297 32.0898 27.6422 32.0898 32.8386C32.0898 38.035 36.3024 42.2475 41.4988 42.2475ZM41.4988 38.7192C44.7465 38.7192 47.3793 36.0864 47.3793 32.8386C47.3793 29.5909 44.7465 26.958 41.4988 26.958C38.251 26.958 35.6182 29.5909 35.6182 32.8386C35.6182 36.0864 38.251 38.7192 41.4988 38.7192Z" fill="#FDED00"/>
<path fill-rule="evenodd" clip-rule="evenodd" d="M44.9075 11.9048C48.0902 11.9048 50.6705 9.32466 50.6705 6.14187C50.6705 2.95907 48.0902 0.378906 44.9075 0.378906C41.7247 0.378906 39.1445 2.95907 39.1445 6.14187C39.1445 9.32466 41.7247 11.9048 44.9075 11.9048ZM44.9075 9.31738C46.6613 9.31738 48.083 7.89565 48.083 6.14187C48.083 4.38808 46.6613 2.96636 44.9075 2.96636C43.1537 2.96636 41.732 4.38808 41.732 6.14187C41.732 7.89565 43.1537 9.31738 44.9075 9.31738Z" fill="#FDED00"/>
<path fill-rule="evenodd" clip-rule="evenodd" d="M59.9625 28.3723C63.7949 28.3723 66.9016 25.2656 66.9016 21.4332C66.9016 17.6009 63.7949 14.4941 59.9625 14.4941C56.1301 14.4941 53.0234 17.6009 53.0234 21.4332C53.0234 25.2656 56.1301 28.3723 59.9625 28.3723ZM59.9625 25.5496C62.236 25.5496 64.0789 23.7066 64.0789 21.4332C64.0789 19.1598 62.236 17.3168 59.9625 17.3168C57.6891 17.3168 55.8461 19.1598 55.8461 21.4332C55.8461 23.7066 57.6891 25.5496 59.9625 25.5496Z" fill="#FDED00"/>
</svg>
